<svg width="53" height="53" viewBox="0 0 53 53" fill="none" xmlns="http://www.w3.org/2000/svg">
<g filter="url(#filter0_d_71_479)">
<rect x="2" y="2" width="45" height="45" rx="22.5" fill="#C2CBB3"/>
<rect x="2.5" y="2.5" width="44" height="44" rx="22" stroke="#ECECEC"/>
</g>
<path d="M24.6742 23.3559H32.629C32.8641 23.3559 33.0568 23.1631 33.0568 22.9281C33.0568 22.693 32.8641 22.5002 32.629 22.5002H24.6742C24.4391 22.5002 24.2463 22.693 24.2463 22.9281C24.2463 23.1631 24.4391 23.3559 24.6742 23.3559Z" fill="white"/>
<path d="M24.6742 25.6267H30.4522C30.6873 25.6267 30.8801 25.4339 30.8801 25.1988C30.8801 24.9638 30.6873 24.771 30.4522 24.771H24.6742C24.4391 24.771 24.2463 24.9638 24.2463 25.1988C24.2463 25.4386 24.4391 25.6267 24.6742 25.6267Z" fill="white"/>
<path d="M24.6742 27.7094H32.629C32.8641 27.7094 33.0568 27.5167 33.0568 27.2816C33.0568 27.0465 32.8641 26.8538 32.629 26.8538H24.6742C24.4391 26.8538 24.2463 27.0465 24.2463 27.2816C24.2463 27.5214 24.4391 27.7094 24.6742 27.7094Z" fill="white"/>
<path d="M25.4311 29.228H24.6742C24.4391 29.228 24.2463 29.4208 24.2463 29.6559C24.2463 29.8909 24.4391 30.0837 24.6742 30.0837H25.4311C25.6662 30.0837 25.8589 29.8909 25.8589 29.6559C25.8589 29.4208 25.6662 29.228 25.4311 29.228Z" fill="white"/>
<path d="M25.4311 31.3107H24.6742C24.4391 31.3107 24.2463 31.5034 24.2463 31.7385C24.2463 31.9736 24.4391 32.1663 24.6742 32.1663H25.4311C25.6662 32.1663 25.8589 31.9736 25.8589 31.7385C25.8542 31.4987 25.6662 31.3107 25.4311 31.3107Z" fill="white"/>
<path d="M32.629 29.228H27.133C26.898 29.228 26.7052 29.4208 26.7052 29.6559C26.7052 29.8909 26.898 30.0837 27.133 30.0837H32.629C32.8641 30.0837 33.0568 29.8909 33.0568 29.6559C33.0568 29.4208 32.8641 29.228 32.629 29.228Z" fill="white"/>
<path d="M30.8754 31.7339C30.8754 31.4988 30.6826 31.306 30.4475 31.306H27.133C26.898 31.306 26.7052 31.4988 26.7052 31.7339C26.7052 31.9689 26.898 32.1617 27.133 32.1617H30.4475C30.6826 32.1617 30.8754 31.9689 30.8754 31.7339Z" fill="white"/>
<path d="M30.0573 36.8583C30.2218 37.0229 30.4945 37.0229 30.659 36.8583L32.1071 35.4103L33.5551 36.8583C33.6398 36.943 33.7479 36.9853 33.856 36.9853C33.9642 36.9853 34.0723 36.943 34.1569 36.8583L35.0314 35.9839C35.1113 35.9039 35.1583 35.7958 35.1583 35.683V21.1603C35.1583 20.0883 34.2885 19.2186 33.2166 19.2186H29.9491V14.4278C29.9491 14.1928 29.7564 14 29.5213 14H16.4278C16.1928 14 16 14.1928 16 14.4278V28.9458C16 30.0178 16.8698 30.8875 17.9417 30.8875H20.4052C20.6403 30.8875 20.8331 30.6948 20.8331 30.4597C20.8331 30.2246 20.6403 30.0319 20.4052 30.0319H19.5496C19.7611 29.7216 19.8881 29.3455 19.8881 28.9411V21.1603C19.8881 20.5585 20.377 20.0695 20.9788 20.0695C21.5806 20.0695 22.0695 20.5585 22.0695 21.1603V35.6783C22.0695 35.7065 22.0742 35.7347 22.0789 35.7629C22.0836 35.7817 22.0883 35.7958 22.093 35.8146C22.0978 35.824 22.0978 35.8334 22.1025 35.8428C22.1119 35.8616 22.1213 35.8804 22.1307 35.8945C22.1354 35.8992 22.1354 35.9086 22.1401 35.9133C22.1542 35.9369 22.173 35.9604 22.1918 35.9792L23.0662 36.8536C23.2308 37.0182 23.5035 37.0182 23.668 36.8536L25.1161 35.4056L26.5641 36.8536C26.7287 37.0182 27.0013 37.0182 27.1659 36.8536L28.6139 35.4056L30.0573 36.8583ZM19.0371 21.1603V28.9458C19.0371 29.5476 18.5482 30.0366 17.9464 30.0366C17.3446 30.0366 16.8557 29.5476 16.8557 28.9458V14.851H29.0982V19.2186H20.9788C19.9069 19.2186 19.0371 20.0883 19.0371 21.1603ZM26.865 35.951L25.417 34.5029C25.3323 34.4183 25.2242 34.376 25.1161 34.376C25.0079 34.376 24.8998 34.4183 24.8152 34.5029L23.3671 35.951L22.9205 35.5043V21.1603C22.9205 21.0992 22.9158 21.038 22.9111 20.9816C22.9111 20.9628 22.9064 20.9487 22.9064 20.9299C22.9017 20.8876 22.897 20.8453 22.8876 20.803C22.8829 20.7842 22.8829 20.7701 22.8782 20.7512C22.8688 20.6995 22.8547 20.6431 22.8359 20.5914C22.8359 20.5867 22.8359 20.5867 22.8312 20.582C22.8124 20.5256 22.7936 20.4739 22.7701 20.4221C22.7654 20.408 22.756 20.3939 22.7512 20.3751C22.7324 20.3375 22.7183 20.2999 22.6948 20.2623C22.6854 20.2482 22.6807 20.2341 22.6713 20.2153C22.6478 20.173 22.6196 20.126 22.5914 20.0836C22.5867 20.0789 22.5867 20.0742 22.582 20.0695C22.582 20.0695 22.582 20.0695 22.582 20.0648H33.2025C33.8043 20.0648 34.2932 20.5538 34.2932 21.1556V35.5043L33.8466 35.951L32.3986 34.5029C32.234 34.3384 31.9613 34.3384 31.7968 34.5029L30.3488 35.951L28.9148 34.5076C28.7503 34.3431 28.4776 34.3431 28.313 34.5076L26.865 35.951Z" fill="white"/>
<defs>
<filter id="filter0_d_71_479" x="0" y="0" width="53" height="53" filterUnits="userSpaceOnUse" color-interpolation-filters="sRGB">
<feFlood flood-opacity="0" result="BackgroundImageFix"/>
<feColorMatrix in="SourceAlpha" type="matrix" values="0 0 0 0 0 0 0 0 0 0 0 0 0 0 0 0 0 0 127 0" result="hardAlpha"/>
<feOffset dx="2" dy="2"/>
<feGaussianBlur stdDeviation="2"/>
<feComposite in2="hardAlpha" operator="out"/>
<feColorMatrix type="matrix" values="0 0 0 0 0 0 0 0 0 0 0 0 0 0 0 0 0 0 0.25 0"/>
<feBlend mode="normal" in2="BackgroundImageFix" result="effect1_dropShadow_71_479"/>
<feBlend mode="normal" in="SourceGraphic" in2="effect1_dropShadow_71_479" result="shape"/>
</filter>
</defs>
</svg>
