<svg width="53" height="53" viewBox="0 0 53 53" fill="none" xmlns="http://www.w3.org/2000/svg">
<g filter="url(#filter0_d_58_249)">
<rect x="2" y="2" width="45" height="45" rx="22.5" fill="#CBB3C5"/>
<rect x="2.5" y="2.5" width="44" height="44" rx="22" stroke="#ECECEC"/>
</g>
<path d="M36.4582 31.9369L32.7525 28.2306C32.0145 27.4956 30.792 27.5181 30.0281 28.2819L28.1612 30.1488C28.0434 30.0835 27.9213 30.0156 27.7929 29.9436C26.614 29.2904 25.0002 28.395 23.3021 26.6957C21.5991 24.9929 20.7026 23.3766 20.0476 22.1968C19.9781 22.0717 19.912 21.9514 19.8467 21.837L21.0998 20.5856L21.7157 19.9688C22.4809 19.2037 22.5021 17.9815 21.7653 17.2444L18.0595 13.5377C17.3232 12.8015 16.1002 12.8239 15.3351 13.589L14.2906 14.6394L14.3194 14.6678C13.9692 15.1146 13.6763 15.6301 13.4589 16.1859C13.258 16.7148 13.1329 17.2198 13.0757 17.7254C12.5865 21.7823 14.4402 25.4897 19.4711 30.5211C26.4253 37.4747 32.0297 36.9495 32.2714 36.9237C32.7983 36.8609 33.3027 36.735 33.8157 36.5358C34.3667 36.3205 34.8818 36.0284 35.3281 35.6791L35.351 35.699L36.4091 34.6629C37.1726 33.8979 37.1946 32.6757 36.4582 31.9369ZM35.5859 33.839L35.1195 34.3045L34.9338 34.483C34.6414 34.7657 34.1351 35.1629 33.3959 35.452C32.9762 35.6136 32.5625 35.7173 32.1415 35.7674C32.0886 35.7725 26.8173 36.2223 20.2934 29.6988C14.7463 24.1519 13.8573 20.9556 14.23 17.8599C14.2766 17.4496 14.3795 17.0367 14.5441 16.6052C14.8357 15.8617 15.2325 15.3559 15.5131 15.063L16.1578 14.4119C16.4685 14.1004 16.9531 14.0766 17.2371 14.3606L20.9428 18.0663C21.2264 18.3507 21.204 18.8353 20.8928 19.1478L18.3902 21.6479L18.6211 22.0367C18.7495 22.2533 18.8853 22.4961 19.0303 22.7599C19.7187 24.0015 20.6606 25.701 22.4796 27.5183C24.2938 29.3335 25.9908 30.2746 27.2286 30.9612C27.496 31.1091 27.7403 31.2452 27.9594 31.3758L28.349 31.6067L30.85 29.1049C31.162 28.7942 31.6482 28.7712 31.9323 29.0544L35.6363 32.7594C35.9195 33.0433 35.897 33.5278 35.5859 33.839Z" fill="white"/>
<defs>
<filter id="filter0_d_58_249" x="0" y="0" width="53" height="53" filterUnits="userSpaceOnUse" color-interpolation-filters="sRGB">
<feFlood flood-opacity="0" result="BackgroundImageFix"/>
<feColorMatrix in="SourceAlpha" type="matrix" values="0 0 0 0 0 0 0 0 0 0 0 0 0 0 0 0 0 0 127 0" result="hardAlpha"/>
<feOffset dx="2" dy="2"/>
<feGaussianBlur stdDeviation="2"/>
<feComposite in2="hardAlpha" operator="out"/>
<feColorMatrix type="matrix" values="0 0 0 0 0 0 0 0 0 0 0 0 0 0 0 0 0 0 0.25 0"/>
<feBlend mode="normal" in2="BackgroundImageFix" result="effect1_dropShadow_58_249"/>
<feBlend mode="normal" in="SourceGraphic" in2="effect1_dropShadow_58_249" result="shape"/>
</filter>
</defs>
</svg>
