<svg width="53" height="53" viewBox="0 0 53 53" fill="none" xmlns="http://www.w3.org/2000/svg">
<g filter="url(#filter0_d_71_471)">
<rect x="2" y="2" width="45" height="45" rx="22.5" fill="#CBB3B3"/>
<rect x="2.5" y="2.5" width="44" height="44" rx="22" stroke="#ECECEC"/>
</g>
<path d="M38.8942 28.2509C38.7311 27.9336 38.4084 27.7371 38.0518 27.7371H37.5139C37.2859 21.7465 32.9149 16.8022 27.1896 15.692C27.1979 15.6129 27.2107 15.5343 27.2107 15.4562C27.2107 14.1018 26.1088 13 24.7545 13C23.4002 13 22.2983 14.1018 22.2983 15.4562C22.2983 15.5343 22.3106 15.6134 22.3195 15.692C16.5936 16.8017 12.2226 21.7465 11.9947 27.7371H11.948C11.5914 27.7371 11.2686 27.9336 11.1055 28.2509C10.9424 28.5682 10.9699 28.945 11.1772 29.2353L12.2874 30.7896C12.8995 31.6468 13.8938 32.1582 14.9465 32.1582H35.0538C36.1065 32.1582 37.1007 31.6468 37.7128 30.7896L38.8235 29.2353C39.0303 28.945 39.0573 28.5678 38.8942 28.2509ZM23.2838 15.5407C23.2818 15.5122 23.2808 15.4837 23.2808 15.4562C23.2808 14.6437 23.942 13.9825 24.7545 13.9825C25.567 13.9825 26.2282 14.6437 26.2282 15.4562C26.2282 15.4842 26.2272 15.5122 26.2253 15.5407C26.2022 15.5382 26.1791 15.5372 26.1565 15.5348C25.9875 15.5161 25.8175 15.5028 25.6466 15.4911C25.5837 15.4866 25.5213 15.4802 25.4585 15.4768C25.2246 15.4635 24.9903 15.4562 24.7545 15.4562C24.5187 15.4562 24.2839 15.4635 24.0511 15.4763C23.9882 15.4798 23.9258 15.4861 23.8629 15.4906C23.692 15.5024 23.522 15.5161 23.353 15.5343C23.3299 15.5372 23.3068 15.5377 23.2838 15.5407ZM22.989 16.5708C23.2518 16.5315 23.5171 16.503 23.7824 16.4814C23.8364 16.477 23.8904 16.473 23.9445 16.4696C24.4838 16.4332 25.0257 16.4332 25.565 16.4696C25.6191 16.4735 25.6731 16.4775 25.7272 16.4814C25.9924 16.503 26.2572 16.5315 26.5205 16.5708C32.0277 17.4015 36.3 22.0569 36.5339 27.7371H12.9747C13.209 22.0569 17.4808 17.4015 22.989 16.5708ZM36.9131 30.2183C36.4847 30.8176 35.7896 31.1757 35.0533 31.1757H14.9465C14.2101 31.1757 13.515 30.8176 13.0867 30.2188L12.0158 28.7195H37.5266H37.984L36.9131 30.2183Z" fill="white"/>
<path d="M24.7476 17.4211C23.9405 17.4211 23.1374 17.51 22.3602 17.6848C22.0955 17.7443 21.9294 18.0071 21.9889 18.2719C22.0404 18.5003 22.2433 18.655 22.4678 18.655C22.5037 18.655 22.54 18.6511 22.5764 18.6432C23.2828 18.4841 24.0132 18.4035 24.7476 18.4035C24.7496 18.4035 24.7516 18.4035 24.754 18.4035C25.0252 18.4035 25.2453 18.1839 25.2453 17.9128C25.2458 17.6392 25.0276 17.4117 24.7476 17.4211Z" fill="white"/>
<path d="M19.4246 18.8452C16.8682 20.3597 15.0074 23.0998 14.4464 26.175C14.3978 26.4422 14.5746 26.6976 14.8418 26.7463C14.8713 26.7522 14.9008 26.7546 14.9303 26.7546C15.1631 26.7546 15.3699 26.5886 15.4132 26.3518C15.9235 23.5528 17.6104 21.0622 19.9256 19.6907C20.159 19.5526 20.2361 19.251 20.0981 19.0177C19.959 18.7843 19.6584 18.7072 19.4246 18.8452Z" fill="white"/>
<defs>
<filter id="filter0_d_71_471" x="0" y="0" width="53" height="53" filterUnits="userSpaceOnUse" color-interpolation-filters="sRGB">
<feFlood flood-opacity="0" result="BackgroundImageFix"/>
<feColorMatrix in="SourceAlpha" type="matrix" values="0 0 0 0 0 0 0 0 0 0 0 0 0 0 0 0 0 0 127 0" result="hardAlpha"/>
<feOffset dx="2" dy="2"/>
<feGaussianBlur stdDeviation="2"/>
<feComposite in2="hardAlpha" operator="out"/>
<feColorMatrix type="matrix" values="0 0 0 0 0 0 0 0 0 0 0 0 0 0 0 0 0 0 0.25 0"/>
<feBlend mode="normal" in2="BackgroundImageFix" result="effect1_dropShadow_71_471"/>
<feBlend mode="normal" in="SourceGraphic" in2="effect1_dropShadow_71_471" result="shape"/>
</filter>
</defs>
</svg>
