<svg width="53" height="53" viewBox="0 0 53 53" fill="none" xmlns="http://www.w3.org/2000/svg">
<g filter="url(#filter0_d_58_223)">
<rect x="2" y="2" width="45" height="45" rx="22.5" fill="#E5D0BD"/>
<rect x="2.5" y="2.5" width="44" height="44" rx="22" stroke="#ECECEC"/>
</g>
<path d="M15.3438 28.7203C15.3698 24.3977 15.3952 20.0813 15.4199 15.7711C15.421 15.6324 15.4724 15.4984 15.5654 15.3918C15.6583 15.2853 15.7871 15.2129 15.9297 15.1869C17.5703 14.8603 20.1563 14.9424 21.9121 15.5864C23.1486 16.013 24.2325 16.7672 25.0371 17.7607C25.8675 16.8148 26.9459 16.0966 28.1621 15.6797C29.8203 15.075 32.3359 14.9294 34.1387 15.1869C34.2875 15.2062 34.4241 15.2761 34.5234 15.3837C34.6228 15.4913 34.6782 15.6295 34.6797 15.773V28.7744C34.6794 28.8533 34.6629 28.9313 34.631 29.004C34.5992 29.0767 34.5526 29.1427 34.494 29.1982C34.4354 29.2537 34.3659 29.2976 34.2895 29.3273C34.2131 29.3571 34.1313 29.3722 34.0488 29.3717C34.0002 29.371 33.9517 29.3654 33.9043 29.3549C32.3648 29.164 30.8001 29.3037 29.3242 29.7636C28.2339 30.152 27.1991 30.67 26.2441 31.3053C27.587 30.9071 28.9867 30.7119 30.3926 30.7267C32.1967 30.7541 33.9921 30.972 35.7461 31.3762V17.7701H36.373C36.5393 17.7701 36.6988 17.8332 36.8164 17.9455C36.9339 18.0579 37 18.2103 37 18.3692V32.1601C37 32.319 36.9339 32.4714 36.8164 32.5838C36.6988 32.6961 36.5393 32.7592 36.373 32.7592C36.3066 32.7587 36.2406 32.748 36.1777 32.7275C34.2883 32.231 32.3419 31.9596 30.3828 31.9194C28.6515 31.8985 26.9357 32.2333 25.3516 32.9011C25.2453 32.9657 25.122 33 24.9961 33C24.8702 33 24.7469 32.9657 24.6406 32.9011C23.0565 32.2331 21.3407 31.8983 19.6094 31.9194C17.6547 31.9619 15.713 32.2346 13.8281 32.7312C13.7652 32.7517 13.6993 32.7624 13.6328 32.763C13.5497 32.7637 13.4672 32.7486 13.3902 32.7186C13.3132 32.6886 13.2432 32.6443 13.1843 32.5882C13.1254 32.5321 13.0788 32.4653 13.0472 32.3918C13.0155 32.3184 12.9995 32.2396 13 32.1601V18.3692C13 18.2103 13.0661 18.0579 13.1836 17.9455C13.3012 17.8332 13.4607 17.7701 13.627 17.7701H14.2539V31.3762C16.0079 30.972 17.8033 30.7541 19.6074 30.7267C21.1146 30.7097 22.614 30.9349 24.043 31.393C23.1403 30.6953 22.1117 30.1614 21.0078 29.8178C19.6406 29.3885 17.5547 29.2448 16.0293 29.3698C15.9466 29.3775 15.8631 29.3694 15.7837 29.346C15.7043 29.3226 15.6306 29.2843 15.5668 29.2335C15.503 29.1826 15.4504 29.1201 15.4122 29.0496C15.3739 28.9791 15.3506 28.9021 15.3438 28.823C15.3418 28.7888 15.3418 28.7545 15.3438 28.7203ZM27.3828 27.02C27.3336 27.0551 27.2773 27.0801 27.2175 27.0936C27.1577 27.1071 27.0957 27.1087 27.0352 27.0983C26.9748 27.088 26.9172 27.0659 26.866 27.0334C26.8148 27.0009 26.7711 26.9588 26.7377 26.9095C26.7042 26.8603 26.6817 26.8051 26.6715 26.7472C26.6613 26.6893 26.6636 26.63 26.6783 26.573C26.693 26.516 26.7198 26.4625 26.757 26.4158C26.7941 26.3691 26.841 26.3302 26.8945 26.3014C27.6152 25.8739 28.3896 25.5353 29.1992 25.2936C30.0208 25.0278 30.8736 24.8605 31.7383 24.7952C31.797 24.7922 31.8558 24.8002 31.9113 24.8189C31.9668 24.8375 32.0179 24.8664 32.0617 24.9039C32.1055 24.9415 32.1411 24.9869 32.1666 25.0375C32.192 25.0882 32.2068 25.1432 32.21 25.1993C32.2132 25.2555 32.2048 25.3116 32.1853 25.3647C32.1657 25.4177 32.1355 25.4665 32.0962 25.5084C32.057 25.5502 32.0095 25.5843 31.9564 25.6086C31.9034 25.6329 31.8458 25.647 31.7871 25.6501C31.0028 25.7128 30.2295 25.867 29.4844 26.1092C28.7464 26.3266 28.0402 26.6327 27.3828 27.02ZM27.4219 23.7053C27.3216 23.7661 27.2002 23.7865 27.0843 23.7618C26.9684 23.7371 26.8674 23.6695 26.8037 23.5737C26.74 23.4779 26.7187 23.3618 26.7445 23.2511C26.7704 23.1403 26.8412 23.0438 26.9414 22.983C27.6605 22.5649 28.4306 22.2327 29.2344 21.9938C30.0427 21.7352 30.8809 21.571 31.7305 21.5048C31.8467 21.5029 31.9592 21.5441 32.0442 21.6198C32.1293 21.6955 32.1804 21.7997 32.1867 21.9106C32.193 22.0215 32.1541 22.1305 32.0781 22.2145C32.0022 22.2986 31.8951 22.3513 31.7793 22.3614C31.006 22.4227 30.2433 22.5732 29.5078 22.8094C28.7769 23.0255 28.0763 23.3264 27.4219 23.7053ZM27.4336 20.4017C27.3837 20.4319 27.3281 20.4523 27.2699 20.4619C27.2118 20.4715 27.1522 20.4701 27.0946 20.4577C27.037 20.4453 26.9826 20.4222 26.9343 20.3897C26.8861 20.3572 26.845 20.3159 26.8135 20.2683C26.7819 20.2206 26.7605 20.1674 26.7505 20.1119C26.7404 20.0563 26.7419 19.9994 26.7549 19.9443C26.7678 19.8893 26.792 19.8373 26.826 19.7912C26.8601 19.7451 26.9032 19.7058 26.9531 19.6757C27.6712 19.2595 28.4399 18.9292 29.2422 18.6921C30.048 18.4346 30.8835 18.2717 31.7305 18.2068C31.7892 18.2037 31.848 18.2118 31.9035 18.2304C31.959 18.2491 32.0101 18.278 32.0539 18.3155C32.0977 18.353 32.1333 18.3984 32.1588 18.4491C32.1842 18.4998 32.1989 18.5548 32.2022 18.6109C32.2054 18.667 32.197 18.7232 32.1774 18.7762C32.1579 18.8292 32.1277 18.8781 32.0884 18.9199C32.0491 18.9618 32.0016 18.9958 31.9486 19.0202C31.8956 19.0445 31.838 19.0586 31.7793 19.0616C31.0088 19.123 30.2487 19.2728 29.5156 19.5077C28.786 19.7234 28.0868 20.0236 27.4336 20.4017ZM23.1055 26.3014C23.159 26.3302 23.2059 26.3691 23.2431 26.4158C23.2803 26.4625 23.307 26.516 23.3217 26.573C23.3364 26.63 23.3387 26.6893 23.3285 26.7472C23.3183 26.8051 23.2958 26.8603 23.2623 26.9095C23.2289 26.9588 23.1852 27.0009 23.134 27.0334C23.0829 27.0659 23.0253 27.088 22.9648 27.0983C22.9043 27.1087 22.8423 27.1071 22.7825 27.0936C22.7227 27.0801 22.6665 27.0551 22.6172 27.02C21.9623 26.6332 21.2588 26.3272 20.5234 26.1092C19.7783 25.867 19.005 25.7128 18.2207 25.6501C18.162 25.6468 18.1045 25.6324 18.0516 25.6079C17.9986 25.5834 17.9513 25.5491 17.9122 25.5071C17.8731 25.465 17.843 25.4161 17.8238 25.3629C17.8045 25.3098 17.7964 25.2536 17.7998 25.1975C17.8033 25.1413 17.8183 25.0864 17.844 25.0358C17.8696 24.9852 17.9055 24.94 17.9495 24.9026C17.9934 24.8653 18.0447 24.8366 18.1003 24.8181C18.1559 24.7997 18.2147 24.7919 18.2734 24.7952C19.1381 24.8605 19.991 25.0278 20.8125 25.2936C21.6222 25.5353 22.3965 25.8739 23.1172 26.3014H23.1055ZM23.0586 22.983C23.1588 23.0448 23.2292 23.1422 23.2543 23.2537C23.2794 23.3652 23.2571 23.4816 23.1924 23.5774C23.1276 23.6732 23.0257 23.7405 22.9091 23.7645C22.7924 23.7884 22.6706 23.7671 22.5703 23.7053C21.9159 23.3264 21.2153 23.0255 20.4844 22.8094C19.7489 22.5732 18.9862 22.4227 18.2129 22.3614C18.094 22.3538 17.9832 22.3013 17.9048 22.2155C17.8264 22.1298 17.7869 22.0178 17.7949 21.9042C17.803 21.7906 17.8579 21.6847 17.9476 21.6098C18.0374 21.5349 18.1546 21.4971 18.2734 21.5048C19.1231 21.571 19.9612 21.7352 20.7695 21.9938C21.5733 22.2327 22.3434 22.5649 23.0625 22.983H23.0586ZM23.0469 19.6757C23.1006 19.7038 23.1477 19.7421 23.1854 19.7882C23.223 19.8344 23.2504 19.8874 23.2659 19.944C23.2813 20.0006 23.2845 20.0597 23.2751 20.1175C23.2658 20.1753 23.2442 20.2307 23.2117 20.2803C23.1792 20.3299 23.1364 20.3726 23.0859 20.4058C23.0355 20.4389 22.9785 20.4619 22.9184 20.4733C22.8584 20.4847 22.7965 20.4842 22.7366 20.4719C22.6768 20.4596 22.6202 20.4357 22.5703 20.4017C21.9171 20.0236 21.2179 19.7234 20.4883 19.5077C19.7552 19.2728 18.9952 19.123 18.2246 19.0616C18.1659 19.0586 18.1084 19.0445 18.0553 19.0202C18.0023 18.9958 17.9548 18.9618 17.9155 18.9199C17.8762 18.8781 17.846 18.8292 17.8265 18.7762C17.807 18.7232 17.7986 18.667 17.8018 18.6109C17.805 18.5548 17.8197 18.4998 17.8452 18.4491C17.8706 18.3984 17.9062 18.353 17.95 18.3155C17.9938 18.278 18.0449 18.2491 18.1004 18.2304C18.1559 18.2118 18.2147 18.2037 18.2734 18.2068C19.1204 18.2717 19.9559 18.4346 20.7617 18.6921C21.564 18.9292 22.3328 19.2595 23.0508 19.6757H23.0469ZM33.4219 16.3068C31.9727 16.1761 29.8945 16.3292 28.5918 16.8014C27.3808 17.2071 26.3426 17.9815 25.6367 19.0056V30.2526C26.6517 29.5878 27.7485 29.045 28.9023 28.6363C30.3607 28.1899 31.8936 28.0083 33.4219 28.1007V16.3068ZM24.3828 30.1369V18.9888C23.7266 17.882 22.666 17.1429 21.4668 16.7043C20.0996 16.206 18 16.094 16.6699 16.2751L16.5996 28.138C18.0508 28.0876 20.0547 28.2649 21.3887 28.6811C22.4605 29.0132 23.4709 29.5044 24.3828 30.1369Z" fill="white"/>
<defs>
<filter id="filter0_d_58_223" x="0" y="0" width="53" height="53" filterUnits="userSpaceOnUse" color-interpolation-filters="sRGB">
<feFlood flood-opacity="0" result="BackgroundImageFix"/>
<feColorMatrix in="SourceAlpha" type="matrix" values="0 0 0 0 0 0 0 0 0 0 0 0 0 0 0 0 0 0 127 0" result="hardAlpha"/>
<feOffset dx="2" dy="2"/>
<feGaussianBlur stdDeviation="2"/>
<feComposite in2="hardAlpha" operator="out"/>
<feColorMatrix type="matrix" values="0 0 0 0 0 0 0 0 0 0 0 0 0 0 0 0 0 0 0.25 0"/>
<feBlend mode="normal" in2="BackgroundImageFix" result="effect1_dropShadow_58_223"/>
<feBlend mode="normal" in="SourceGraphic" in2="effect1_dropShadow_58_223" result="shape"/>
</filter>
</defs>
</svg>
