<svg width="53" height="53" viewBox="0 0 53 53" fill="none" xmlns="http://www.w3.org/2000/svg">
<g filter="url(#filter0_d_29_159)">
<rect x="2" y="2" width="45" height="45" rx="22.5" fill="#E5E1BD"/>
<rect x="2.5" y="2.5" width="44" height="44" rx="22" stroke="#ECECEC"/>
</g>
<g clip-path="url(#clip0_29_159)">
<path d="M35.1712 28.822C35.3183 28.6997 35.4035 28.5183 35.4035 28.3268V27.1486C35.4035 26.9378 35.3003 26.7404 35.1273 26.62L27.0835 21.0256L27.2608 15.9589C27.2613 15.9441 27.2613 15.9295 27.2608 15.9147C27.2031 14.2004 26.5575 13.2497 26.026 12.7542C25.3863 12.1576 24.7012 12 24.4283 12C24.1182 12 23.439 12.22 22.8388 12.8259C22.3283 13.3414 21.723 14.3005 21.7388 15.9426C21.7389 15.9481 21.739 15.9535 21.7392 15.959L21.9165 21.0257L13.8727 26.6201C13.6997 26.7405 13.5964 26.938 13.5964 27.1488V28.3269C13.5964 28.5183 13.6816 28.6997 13.8288 28.8221C13.9759 28.9444 14.1699 28.9949 14.3581 28.96L22.1434 27.5123L22.3219 32.613L19.4987 34.5765C19.3256 34.6969 19.2224 34.8944 19.2224 35.1052V35.6373C19.2224 35.9929 19.5107 36.2812 19.8663 36.2812H22.9218C23.2997 36.7162 23.8396 36.9783 24.4265 36.9987C24.4514 36.9996 24.4763 37 24.501 37C25.1093 37 25.6856 36.7318 26.0799 36.2811H29.1335C29.4891 36.2811 29.7775 35.9928 29.7775 35.6372V35.1051C29.7775 34.8943 29.6743 34.6968 29.5012 34.5764L26.6779 32.6129L26.8564 27.5122L34.6418 28.96C34.83 28.9948 35.024 28.9444 35.1712 28.822ZM34.1156 27.5522L26.3568 26.1094C26.1725 26.0752 25.9824 26.1229 25.8363 26.2402C25.69 26.3574 25.6021 26.5326 25.5956 26.72L25.3788 32.9186C25.3711 33.1373 25.4749 33.3449 25.6546 33.4697L27.8451 34.9933H25.7539C25.5254 34.9933 25.314 35.1143 25.1984 35.3114C25.0536 35.5586 24.7863 35.7122 24.501 35.7122C24.4913 35.7122 24.4815 35.712 24.4716 35.7116C24.1955 35.7019 23.9457 35.552 23.8035 35.3105C23.6877 35.1139 23.4767 34.9933 23.2486 34.9933H21.1548L23.3454 33.4697C23.525 33.3449 23.6289 33.1372 23.6212 32.9186L23.4044 26.72C23.3978 26.5326 23.3099 26.3574 23.1637 26.2402C23.0175 26.1229 22.8274 26.0752 22.6431 26.1094L14.8843 27.5522V27.4851L22.94 21.8825C23.1196 21.7575 23.2234 21.5499 23.2158 21.3313L23.0266 15.9222C23.0096 13.838 24.218 13.3635 24.4409 13.2945C24.6753 13.3496 25.8913 13.7424 25.9729 15.9365L25.7841 21.3314C25.7765 21.55 25.8803 21.7576 26.0599 21.8825L34.1156 27.4852V27.5522Z" fill="white"/>
</g>
<defs>
<filter id="filter0_d_29_159" x="0" y="0" width="53" height="53" filterUnits="userSpaceOnUse" color-interpolation-filters="sRGB">
<feFlood flood-opacity="0" result="BackgroundImageFix"/>
<feColorMatrix in="SourceAlpha" type="matrix" values="0 0 0 0 0 0 0 0 0 0 0 0 0 0 0 0 0 0 127 0" result="hardAlpha"/>
<feOffset dx="2" dy="2"/>
<feGaussianBlur stdDeviation="2"/>
<feComposite in2="hardAlpha" operator="out"/>
<feColorMatrix type="matrix" values="0 0 0 0 0 0 0 0 0 0 0 0 0 0 0 0 0 0 0.25 0"/>
<feBlend mode="normal" in2="BackgroundImageFix" result="effect1_dropShadow_29_159"/>
<feBlend mode="normal" in="SourceGraphic" in2="effect1_dropShadow_29_159" result="shape"/>
</filter>
<clipPath id="clip0_29_159">
<rect width="25" height="25" fill="white" transform="translate(12 12)"/>
</clipPath>
</defs>
</svg>
