<svg width="53" height="53" viewBox="0 0 53 53" fill="none" xmlns="http://www.w3.org/2000/svg">
<g filter="url(#filter0_d_29_147)">
<rect x="2" y="2" width="45" height="45" rx="22.5" fill="#D5D9DB"/>
<rect x="2.5" y="2.5" width="44" height="44" rx="22" stroke="#ECECEC"/>
</g>
<g clip-path="url(#clip0_29_147)">
<path d="M21.592 12.9325C21.3802 11.7528 19.7182 11.0641 17.8801 11.3942C16.4896 11.644 14.8356 13.2027 14.1124 13.9472C13.9228 14.1423 13.981 14.4669 14.2268 14.584C15.1639 15.0303 17.2569 15.916 18.6474 15.6663C20.4855 15.3362 21.8039 14.1122 21.592 12.9325Z" fill="white"/>
<path d="M22.0726 28.7458C21.5861 27.3643 21.6458 25.8797 22.2408 24.5655C22.8467 23.227 23.9319 22.2252 25.2965 21.7447C25.5739 21.647 25.8626 21.5734 26.1606 21.5238C25.9504 20.8376 25.8407 20.1193 25.8407 19.391C25.8407 17.6449 24.6854 16.169 23.0977 15.6846C23.4814 15.018 24.2702 13.8663 25.4311 13.2307C25.6344 13.1194 25.7259 12.8757 25.6452 12.6584L25.1624 11.3573C25.0598 11.0807 24.7291 10.9668 24.4775 11.1225C23.6513 11.6338 22.065 12.9386 21.8118 15.52C19.7433 15.6011 18.0911 17.3026 18.0911 19.3909C18.0911 21.1017 17.4927 22.748 16.3971 24.0618C15.349 25.3187 14.7185 26.9357 14.7185 28.7002C14.7185 32.7028 17.9633 35.9475 21.9659 35.9475C23.179 35.9475 24.3222 35.649 25.3269 35.1221C24.9749 34.6802 24.6296 34.1785 24.2937 33.6194C23.2856 31.942 22.5295 30.0432 22.0726 28.7458Z" fill="white"/>
<path d="M35.2707 23.0676C34.5275 23.0676 33.7555 23.2564 33.0706 23.6006C32.8079 23.7326 32.5349 23.8351 32.2561 23.9086C32.5842 23.3263 33.2973 22.2534 34.3636 21.6696C34.5444 21.5706 34.6257 21.3538 34.554 21.1605L34.1245 20.0031C34.0331 19.7566 33.7386 19.6562 33.5153 19.7943C32.745 20.271 31.2324 21.5238 31.1206 24.0466C30.4949 24.037 29.8708 23.8883 29.2964 23.6C28.6119 23.2563 27.8401 23.0678 27.0976 23.0677C24.3521 23.0677 22.74 25.7642 23.6005 28.2078C24.2648 30.0947 26.5144 35.9477 29.5184 35.9477C29.7596 35.9477 30.0053 35.91 30.2559 35.8295C30.6471 35.7037 30.952 35.3088 31.1841 34.7417C31.4163 35.3089 31.7212 35.7038 32.1124 35.8295C32.3628 35.91 32.6088 35.9477 32.8499 35.9477C35.8542 35.9477 38.1033 30.0948 38.7678 28.2078C39.6277 25.7658 38.0182 23.0676 35.2707 23.0676Z" fill="white"/>
</g>
<defs>
<filter id="filter0_d_29_147" x="0" y="0" width="53" height="53" filterUnits="userSpaceOnUse" color-interpolation-filters="sRGB">
<feFlood flood-opacity="0" result="BackgroundImageFix"/>
<feColorMatrix in="SourceAlpha" type="matrix" values="0 0 0 0 0 0 0 0 0 0 0 0 0 0 0 0 0 0 127 0" result="hardAlpha"/>
<feOffset dx="2" dy="2"/>
<feGaussianBlur stdDeviation="2"/>
<feComposite in2="hardAlpha" operator="out"/>
<feColorMatrix type="matrix" values="0 0 0 0 0 0 0 0 0 0 0 0 0 0 0 0 0 0 0.25 0"/>
<feBlend mode="normal" in2="BackgroundImageFix" result="effect1_dropShadow_29_147"/>
<feBlend mode="normal" in="SourceGraphic" in2="effect1_dropShadow_29_147" result="shape"/>
</filter>
<clipPath id="clip0_29_147">
<rect width="25" height="25" fill="white" transform="translate(14 11)"/>
</clipPath>
</defs>
</svg>
