<svg width="53" height="53" viewBox="0 0 53 53" fill="none" xmlns="http://www.w3.org/2000/svg">
<g filter="url(#filter0_d_71_475)">
<rect x="2" y="2" width="45" height="45" rx="22.5" fill="#B3C0CB"/>
<rect x="2.5" y="2.5" width="44" height="44" rx="22" stroke="#ECECEC"/>
</g>
<path d="M35.5715 18.6875C35.3008 18.484 34.9502 18.42 34.6252 18.5149C34.0288 18.6889 33.4205 18.7771 32.8171 18.7771C31.0848 18.7771 29.3692 18.2697 28.1104 17.3847C26.999 16.6035 26.3615 15.6278 26.3615 14.7081C26.3615 14.1149 25.8806 13.634 25.2874 13.634C24.6943 13.634 24.2134 14.1149 24.2134 14.7081C24.2134 15.6278 23.5759 16.6035 22.4645 17.3848C21.2057 18.2697 19.4903 18.7771 17.7579 18.7771C17.1544 18.7771 16.5461 18.6889 15.9499 18.5149C15.6247 18.42 15.2742 18.484 15.0036 18.6875C14.733 18.891 14.5742 19.2101 14.575 19.5486C14.5895 25.2605 17.0998 29.7546 18.5949 31.9252C19.6406 33.4432 20.8116 34.7527 21.9814 35.7121C22.8439 36.4196 24.1178 37.2629 25.2874 37.2629C26.4571 37.2629 27.7309 36.4196 28.5936 35.7121C29.7634 34.7527 30.9344 33.4432 31.98 31.9252C33.4751 29.7546 35.9855 25.2605 36 19.5486C36.0009 19.2101 35.842 18.891 35.5715 18.6875ZM30.211 30.7066C28.0653 33.8218 25.9455 35.1149 25.2874 35.1149C24.6294 35.1149 22.5096 33.8218 20.3638 30.7067C19.1284 28.9131 17.1275 25.3727 16.7763 20.8678C17.103 20.906 17.4307 20.9253 17.7578 20.9253C19.9538 20.9253 22.0641 20.292 23.6998 19.1421C24.3351 18.6955 24.8689 18.1885 25.2874 17.6434C25.7061 18.1885 26.2397 18.6955 26.8751 19.1421C28.5108 20.292 30.6211 20.9253 32.817 20.9253C33.1441 20.9253 33.4718 20.906 33.7985 20.8678C33.4474 25.3727 31.4465 28.913 30.211 30.7066Z" fill="white"/>
<path d="M25.2875 25.6796C26.7355 25.6796 27.9092 24.5058 27.9092 23.0579C27.9092 21.6099 26.7355 20.4362 25.2875 20.4362C23.8396 20.4362 22.6658 21.6099 22.6658 23.0579C22.6658 24.5058 23.8396 25.6796 25.2875 25.6796Z" fill="white"/>
<path d="M25.2875 25.6797C23.0352 25.6797 21.2094 27.5054 21.2094 29.7579H29.3656C29.3656 27.5054 27.5397 25.6797 25.2875 25.6797Z" fill="white"/>
<defs>
<filter id="filter0_d_71_475" x="0" y="0" width="53" height="53" filterUnits="userSpaceOnUse" color-interpolation-filters="sRGB">
<feFlood flood-opacity="0" result="BackgroundImageFix"/>
<feColorMatrix in="SourceAlpha" type="matrix" values="0 0 0 0 0 0 0 0 0 0 0 0 0 0 0 0 0 0 127 0" result="hardAlpha"/>
<feOffset dx="2" dy="2"/>
<feGaussianBlur stdDeviation="2"/>
<feComposite in2="hardAlpha" operator="out"/>
<feColorMatrix type="matrix" values="0 0 0 0 0 0 0 0 0 0 0 0 0 0 0 0 0 0 0.25 0"/>
<feBlend mode="normal" in2="BackgroundImageFix" result="effect1_dropShadow_71_475"/>
<feBlend mode="normal" in="SourceGraphic" in2="effect1_dropShadow_71_475" result="shape"/>
</filter>
</defs>
</svg>
