<svg width="53" height="53" viewBox="0 0 53 53" fill="none" xmlns="http://www.w3.org/2000/svg">
<g filter="url(#filter0_d_71_472)">
<rect x="2" y="2" width="45" height="45" rx="22.5" fill="#B3C0CB"/>
<rect x="2.5" y="2.5" width="44" height="44" rx="22" stroke="#ECECEC"/>
</g>
<path d="M18.0417 28.0326C18.249 28.1354 18.502 28.0525 18.6069 27.8447C18.7123 27.6374 18.6289 27.3831 18.422 27.2765C18.3607 27.2448 16.9121 26.4748 16.5326 24.1995C16.5017 24.0125 16.3498 23.8691 16.1607 23.8488C15.9673 23.8272 15.7931 23.9363 15.7224 24.1119C14.8043 26.408 16.5355 29.0467 16.6095 29.158C16.6907 29.2802 16.8253 29.3462 16.9615 29.3462C17.0419 29.3462 17.1236 29.323 17.1959 29.2751C17.3901 29.1457 17.443 28.8834 17.314 28.6888C17.3034 28.6727 16.5871 27.5773 16.3662 26.2874C17.0623 27.5283 17.9871 28.0051 18.0417 28.0326Z" fill="white"/>
<path d="M20.006 28.9145C20.2349 28.8688 20.3838 28.6458 20.3382 28.417C20.292 28.1881 20.0716 28.0392 19.8402 28.0853C18.9911 28.2549 17.3846 29.1793 17.3846 31.4614C17.3846 33.1173 17.7315 34.266 17.9994 34.9049C17.0732 35.0847 16.5385 35.6672 16.5385 36.5383C16.5385 37.519 17.4282 38.2306 18.6539 38.2306H19.0769C19.7784 38.2306 20.2099 37.7047 20.2565 37.6451C20.4003 37.4611 20.3677 37.195 20.1833 37.0511C19.9992 36.9068 19.7331 36.9402 19.5897 37.1239C19.5876 37.1269 19.3727 37.3845 19.077 37.3845H18.6539C18.0231 37.3845 17.3846 37.0939 17.3846 36.5383C17.3846 36.3289 17.3846 35.6922 18.6539 35.6922C18.8091 35.6922 18.9513 35.6063 19.0253 35.4696C19.0993 35.333 19.0917 35.1663 19.0071 35.0364C18.9991 35.0241 18.2307 33.8188 18.2307 31.4614C18.2308 29.316 19.9358 28.9297 20.006 28.9145Z" fill="white"/>
<path d="M32.0007 34.9049C32.2685 34.2661 32.6154 33.1174 32.6154 31.4615C32.6154 29.1794 31.009 28.255 30.1599 28.0853C29.9306 28.04 29.708 28.1877 29.6619 28.417C29.6162 28.6459 29.7652 28.8689 29.9941 28.9145C30.0668 28.9293 31.7693 29.2949 31.7693 31.4615C31.7693 33.8188 31.001 35.0242 30.9942 35.0343C30.9079 35.1642 30.8995 35.3313 30.9731 35.4688C31.0467 35.6063 31.1901 35.6922 31.3462 35.6922C32.6154 35.6922 32.6154 36.329 32.6154 36.5384C32.6154 37.0939 31.977 37.3846 31.3462 37.3846H30.9231C30.6312 37.3846 30.4163 37.1312 30.4078 37.121C30.2635 36.9404 30 36.9082 29.8168 37.0512C29.6323 37.195 29.5997 37.4612 29.7436 37.6452C29.7901 37.7049 30.2217 38.2308 30.9231 38.2308H31.3462C32.5723 38.2308 33.4616 37.5191 33.4616 36.5385C33.4616 35.6673 32.9268 35.0847 32.0007 34.9049Z" fill="white"/>
<path d="M27.6095 34.8783L28.3787 30.2622C28.4172 30.0316 28.2615 29.8137 28.031 29.7752C27.7995 29.7371 27.5825 29.8924 27.5445 30.1225L26.7571 34.8462H26.6923C26.4584 34.8462 26.2693 35.0357 26.2693 35.2693C26.2693 35.5028 26.4584 35.6923 26.6923 35.6923H27.1154C28.3846 35.6923 28.3846 36.3291 28.3846 36.5385C28.3846 37.094 27.7462 37.3847 27.1154 37.3847H26.6923C25.9926 37.3847 25.4231 36.8152 25.4231 36.1154V30.1923C25.4231 29.9588 25.234 29.7693 25 29.7693C24.7661 29.7693 24.577 29.9588 24.577 30.1923V36.1154C24.577 36.8152 24.0075 37.3847 23.3078 37.3847H22.8847C22.2539 37.3847 21.6155 37.094 21.6155 36.5385C21.6155 36.3291 21.6155 35.6923 22.8847 35.6923H23.3078C23.5417 35.6923 23.7308 35.5028 23.7308 35.2693C23.7308 35.0357 23.5417 34.8462 23.3078 34.8462H23.243L22.4557 30.1225C22.4181 29.8924 22.2002 29.7371 21.9692 29.7752C21.7386 29.8137 21.5829 30.0316 21.6214 30.2622L22.3906 34.8783C21.3659 35.0201 20.7693 35.6183 20.7693 36.5385C20.7693 37.5192 21.6591 38.2308 22.8847 38.2308H23.3078C23.9991 38.2308 24.6138 37.8974 25.0001 37.3834C25.3863 37.8974 26.001 38.2308 26.6923 38.2308H27.1153C28.3414 38.2308 29.2307 37.5192 29.2307 36.5385C29.2307 35.6183 28.6342 35.0201 27.6095 34.8783Z" fill="white"/>
<path d="M35.5321 16.4648C34.6022 14.6045 32.362 12.8462 30.9231 12.8462C30.1061 12.8462 28.7002 14.1129 27.9941 14.8033C27.178 14.104 26.1846 13.6924 25 13.6924C23.8154 13.6924 22.822 14.104 22.0059 14.8034C21.2998 14.1129 19.8939 12.8462 19.0769 12.8462C17.638 12.8462 15.3978 14.6045 14.4679 16.4648C14.1879 17.0241 14 17.7801 14 18.3462C14 19.5126 14.9489 20.4616 16.1154 20.4616C17.1667 20.4616 17.6372 19.7703 18.0146 19.2148C18.0607 19.1475 18.1064 19.0798 18.1597 19.0041L19.852 16.4656C19.9819 16.271 19.9294 16.0083 19.7348 15.8788C19.5393 15.7485 19.2774 15.8014 19.148 15.996L17.462 18.5251C17.4121 18.5958 17.3635 18.6673 17.3148 18.7388C16.9344 19.2989 16.6907 19.6154 16.1153 19.6154C15.4156 19.6154 14.8461 19.0459 14.8461 18.3462C14.8461 17.9066 15.0018 17.2885 15.2248 16.843C16.0582 15.1756 18.0733 13.6923 19.0769 13.6923C19.4378 13.6923 20.5119 14.5325 21.4076 15.4032C19.8181 17.2513 19.0769 20.3452 19.0769 23.4231C19.0769 27.3293 20.7929 28.9231 25 28.9231C29.207 28.9231 30.923 27.3293 30.923 23.4231C30.923 20.3448 30.1818 17.2513 28.5923 15.4032C29.488 14.5325 30.5618 13.6923 30.923 13.6923C31.9266 13.6923 33.9417 15.1756 34.7756 16.843C34.9982 17.2885 35.1538 17.9066 35.1538 18.3462C35.1538 19.0459 34.5844 19.6154 33.8846 19.6154C33.2885 19.6154 33.0533 19.3023 32.6564 18.7028L30.852 15.996C30.7225 15.8014 30.4598 15.7485 30.2652 15.8788C30.0706 16.0083 30.0181 16.271 30.148 16.4656L31.9507 19.1699C32.3518 19.7753 32.8058 20.4616 33.8846 20.4616C35.051 20.4616 36 19.5126 36 18.3462C36 17.7801 35.8121 17.0241 35.5321 16.4648ZM30.0769 23.4231C30.0769 26.8593 28.748 28.0769 25 28.0769C21.252 28.0769 19.9231 26.8593 19.9231 23.4231C19.9231 19.0007 21.4931 14.5385 25 14.5385C28.5069 14.5385 30.0769 19.0007 30.0769 23.4231Z" fill="white"/>
<path d="M27.1623 25.3446C27.09 25.4855 26.8074 25.5366 26.6922 25.5383C26.1968 25.5383 25.6849 25.1165 25.5 24.6317C26.1956 24.4743 26.6922 24.0025 26.6922 23.4229C26.6922 22.7113 25.9489 22.1537 24.9999 22.1537C24.051 22.1537 23.3077 22.7113 23.3077 23.4229C23.3077 24.0025 23.8043 24.4742 24.4999 24.6317C24.3154 25.1165 23.8035 25.5383 23.3106 25.5383C23.1892 25.5366 22.9125 25.4854 22.8351 25.3399C22.7255 25.1334 22.4695 25.0552 22.2631 25.1647C22.0566 25.2743 21.9779 25.5303 22.0879 25.7367C22.4221 26.3663 23.218 26.3845 23.3077 26.3845C23.9647 26.3845 24.6001 26.0092 24.9999 25.4723C25.3998 26.0092 26.0352 26.3845 26.6922 26.3845C26.7828 26.3845 27.5875 26.3659 27.9145 25.7321C28.0216 25.5244 27.9399 25.2693 27.7322 25.1623C27.5244 25.0552 27.2697 25.1364 27.1623 25.3446ZM24.9999 23.846C24.4914 23.846 24.1538 23.5913 24.1538 23.423C24.1538 23.2546 24.4914 22.9999 24.9999 22.9999C25.5165 22.9999 25.8461 23.2504 25.8461 23.423C25.8461 23.5956 25.5165 23.846 24.9999 23.846Z" fill="white"/>
<path d="M26.9039 20.4615C27.2538 20.4615 27.5385 20.1768 27.5385 19.8269C27.5385 19.477 27.2538 19.1923 26.9039 19.1923C26.554 19.1923 26.2693 19.477 26.2693 19.8269C26.2693 20.1768 26.554 20.4615 26.9039 20.4615Z" fill="white"/>
<path d="M23.0962 20.4615C23.446 20.4615 23.7308 20.1768 23.7308 19.8269C23.7308 19.477 23.446 19.1923 23.0962 19.1923C22.7463 19.1923 22.4615 19.477 22.4615 19.8269C22.4615 20.1768 22.7463 20.4615 23.0962 20.4615Z" fill="white"/>
<defs>
<filter id="filter0_d_71_472" x="0" y="0" width="53" height="53" filterUnits="userSpaceOnUse" color-interpolation-filters="sRGB">
<feFlood flood-opacity="0" result="BackgroundImageFix"/>
<feColorMatrix in="SourceAlpha" type="matrix" values="0 0 0 0 0 0 0 0 0 0 0 0 0 0 0 0 0 0 127 0" result="hardAlpha"/>
<feOffset dx="2" dy="2"/>
<feGaussianBlur stdDeviation="2"/>
<feComposite in2="hardAlpha" operator="out"/>
<feColorMatrix type="matrix" values="0 0 0 0 0 0 0 0 0 0 0 0 0 0 0 0 0 0 0.25 0"/>
<feBlend mode="normal" in2="BackgroundImageFix" result="effect1_dropShadow_71_472"/>
<feBlend mode="normal" in="SourceGraphic" in2="effect1_dropShadow_71_472" result="shape"/>
</filter>
</defs>
</svg>
