<svg width="53" height="53" viewBox="0 0 53 53" fill="none" xmlns="http://www.w3.org/2000/svg">
<g filter="url(#filter0_d_71_477)">
<rect x="2" y="2" width="45" height="45" rx="22.5" fill="#B7B3CB"/>
<rect x="2.5" y="2.5" width="44" height="44" rx="22" stroke="#ECECEC"/>
</g>
<path d="M25.0886 21.0864C24.8854 21.2897 24.8854 21.6191 25.0887 21.8224C25.2919 22.0256 25.6214 22.0256 25.8246 21.8223L26.2542 21.3924C26.4088 21.2378 26.4503 21.0032 26.358 20.8049C26.0713 20.1888 25.9259 19.5514 25.9259 18.9104C25.9259 17.6053 26.494 16.3762 27.4522 15.5269L27.4539 18.9333C27.4539 19.104 27.5377 19.2638 27.678 19.3609L30.1469 21.0705C30.325 21.1939 30.561 21.194 30.7392 21.0706L33.209 19.3619C33.3495 19.2647 33.4334 19.1048 33.4334 18.9339L33.433 15.5277C34.3911 16.3762 34.9593 17.6044 34.9596 18.9083C34.9596 20.115 34.4897 21.2496 33.6365 22.103C32.784 22.9557 31.6508 23.4251 30.4454 23.4251C30.4442 23.4251 30.443 23.4251 30.4418 23.4251C30.027 23.4248 29.2128 23.224 28.934 23.1466C28.7533 23.0963 28.5594 23.1474 28.4268 23.28L26.8448 24.8621C26.6416 25.0653 26.6416 25.3948 26.8448 25.598C26.9464 25.6996 27.0796 25.7504 27.2127 25.7504C27.3459 25.7504 27.4791 25.6996 27.5807 25.598L28.952 24.2266C29.3343 24.3212 29.9915 24.4655 30.441 24.4659C30.4425 24.4659 30.4438 24.4659 30.4454 24.4659C31.9287 24.4658 33.3234 23.888 34.3724 22.8388C35.4221 21.7889 36.0002 20.393 36.0002 18.9082C35.9997 16.9082 34.9146 15.0536 33.1682 14.0681C33.0071 13.9772 32.8098 13.9786 32.65 14.0719C32.4903 14.1652 32.392 14.3363 32.3921 14.5213L32.3925 18.6612L30.4432 20.0098L28.4945 18.6603L28.4925 14.5201C28.4924 14.3351 28.3941 14.1641 28.2344 14.0709C28.0746 13.9776 27.8773 13.9763 27.7162 14.0673C25.97 15.0537 24.8853 16.9095 24.8853 18.9103C24.8853 19.5862 25.0143 20.2557 25.2694 20.9056L25.0886 21.0864Z" fill="white"/>
<path d="M23.7107 27.9964L16.492 35.2153C16.2207 35.4867 15.8601 35.6363 15.4766 35.6366C15.4763 35.6366 15.4761 35.6366 15.4758 35.6366C15.0924 35.6365 14.7317 35.4871 14.4605 35.2158C14.1894 34.9444 14.0402 34.5833 14.0407 34.199C14.0411 33.8158 14.1905 33.4562 14.462 33.1855L20.671 26.9759C20.8742 26.7727 20.8742 26.4433 20.671 26.24C20.4678 26.0369 20.1383 26.0368 19.9351 26.2401L13.7268 32.449C13.2589 32.9153 13.0008 33.5364 13 34.1978C12.9992 34.8603 13.2564 35.483 13.7245 35.9516C14.1925 36.4196 14.8144 36.6773 15.4758 36.6773C15.4763 36.6773 15.4768 36.6773 15.4772 36.6773C16.1386 36.6769 16.7605 36.419 17.2281 35.9511L24.4466 28.7323C24.6498 28.5291 24.6498 28.1996 24.4466 27.9964C24.2433 27.7932 23.9139 27.7932 23.7107 27.9964Z" fill="white"/>
<path d="M15.4684 33.567C15.297 33.5671 15.136 33.6341 15.0172 33.7536C14.767 34.0021 14.7658 34.4084 15.0144 34.6589C15.015 34.6596 15.0156 34.6602 15.0162 34.6608C15.1409 34.7852 15.3045 34.8474 15.4683 34.8474C15.6326 34.8474 15.797 34.7848 15.9226 34.6595C16.1717 34.4093 16.1709 34.0031 15.922 33.755C15.8011 33.6337 15.6402 33.567 15.4688 33.567C15.4687 33.567 15.4686 33.567 15.4684 33.567Z" fill="white"/>
<path d="M32.4817 30.929C32.4278 30.8752 32.3627 30.8338 32.2911 30.8078L30.7989 30.2667L25.4085 24.8762L26.2797 24.005C26.4829 23.8018 26.483 23.4723 26.2797 23.269C26.1255 23.1149 25.8985 23.0776 25.7092 23.1575L17.556 15.0051C17.0629 14.5104 16.4062 14.2375 15.7068 14.2367C15.7058 14.2367 15.7049 14.2367 15.7038 14.2367C15.0045 14.2367 14.3472 14.5086 13.8525 15.0027C13.3573 15.4979 13.0848 16.1561 13.0852 16.856C13.0856 17.5553 13.3583 18.2128 13.853 18.7073L22.0064 26.8603C21.9266 27.0496 21.9637 27.2765 22.1179 27.4307C22.3212 27.6339 22.6507 27.634 22.8539 27.4307L23.7249 26.5597L29.1154 31.9501L29.6565 33.4424C29.6825 33.514 29.7238 33.5791 29.7777 33.633L32.8023 36.6575C32.904 36.7591 33.0371 36.8099 33.1703 36.8099C33.3035 36.8099 33.4367 36.7591 33.5383 36.6575L35.5062 34.6895C35.6038 34.5919 35.6587 34.4596 35.6587 34.3216C35.6587 34.1836 35.6038 34.0512 35.5062 33.9536L32.4817 30.929ZM24.3045 24.5082C24.3034 24.5093 24.3023 24.5105 24.3012 24.5116L22.7153 26.0974L14.5888 17.9713C14.2905 17.6732 14.1262 17.2769 14.1259 16.8555C14.1257 16.4337 14.29 16.0371 14.5882 15.7388C14.8862 15.4412 15.2823 15.2775 15.7038 15.2775C15.7044 15.2775 15.7051 15.2775 15.7056 15.2775C16.1268 15.278 16.522 15.4422 16.8194 15.7405L24.9463 23.8665L24.3079 24.5049C24.3068 24.506 24.3056 24.5071 24.3045 24.5082ZM33.1703 35.5537L30.5955 32.9789L30.0544 31.4865C30.0284 31.4149 29.987 31.3498 29.9331 31.296L24.4609 25.8238L24.6725 25.6121L30.1448 31.0844C30.1987 31.1383 30.2637 31.1796 30.3353 31.2057L31.8276 31.7467L34.4024 34.3215L33.1703 35.5537Z" fill="white"/>
<path d="M16.0692 16.4844C15.866 16.2812 15.5365 16.2812 15.3333 16.4844C15.1301 16.6876 15.1301 17.0171 15.3333 17.2204L22.5119 24.3989C22.6134 24.5004 22.7467 24.5513 22.8798 24.5513C23.013 24.5513 23.1462 24.5004 23.2478 24.3989C23.451 24.1957 23.451 23.8662 23.2478 23.6629L16.0692 16.4844Z" fill="white"/>
<defs>
<filter id="filter0_d_71_477" x="0" y="0" width="53" height="53" filterUnits="userSpaceOnUse" color-interpolation-filters="sRGB">
<feFlood flood-opacity="0" result="BackgroundImageFix"/>
<feColorMatrix in="SourceAlpha" type="matrix" values="0 0 0 0 0 0 0 0 0 0 0 0 0 0 0 0 0 0 127 0" result="hardAlpha"/>
<feOffset dx="2" dy="2"/>
<feGaussianBlur stdDeviation="2"/>
<feComposite in2="hardAlpha" operator="out"/>
<feColorMatrix type="matrix" values="0 0 0 0 0 0 0 0 0 0 0 0 0 0 0 0 0 0 0.25 0"/>
<feBlend mode="normal" in2="BackgroundImageFix" result="effect1_dropShadow_71_477"/>
<feBlend mode="normal" in="SourceGraphic" in2="effect1_dropShadow_71_477" result="shape"/>
</filter>
</defs>
</svg>
