<svg width="53" height="53" viewBox="0 0 53 53" fill="none" xmlns="http://www.w3.org/2000/svg">
<g filter="url(#filter0_d_29_140)">
<rect x="2" y="2" width="45" height="45" rx="22.5" fill="#BCB7C3"/>
<rect x="2.5" y="2.5" width="44" height="44" rx="22" stroke="#ECECEC"/>
</g>
<path d="M33.1119 27.5539C33.4319 27.5539 33.6913 27.2945 33.6913 26.9745C33.6913 26.6545 33.4319 26.3951 33.1119 26.3951C32.7919 26.3951 32.5325 26.6545 32.5325 26.9745C32.5325 27.2945 32.7919 27.5539 33.1119 27.5539Z" fill="white"/>
<path d="M18.0061 27.5539C18.3261 27.5539 18.5855 27.2945 18.5855 26.9745C18.5855 26.6545 18.3261 26.3951 18.0061 26.3951C17.6861 26.3951 17.4267 26.6545 17.4267 26.9745C17.4267 27.2945 17.6861 27.5539 18.0061 27.5539Z" fill="white"/>
<path d="M34.3696 20.9518L32.0025 20.5902L31.306 19.8274C29.6467 18.01 27.284 16.9677 24.8233 16.9677H22.9725C22.5703 16.9677 22.1735 16.9994 21.7823 17.0554C21.7757 17.0566 21.7692 17.0572 21.7627 17.0584C19.4513 17.3942 17.3759 18.6789 16.0473 20.6462C13.6911 21.5054 12.0001 23.7118 12.0001 25.9625C12.0001 26.9268 12.7845 27.711 13.7486 27.711H14.7714C15.0586 29.1531 16.3329 30.2435 17.8584 30.2435C19.3838 30.2435 20.6581 29.1531 20.9453 27.711H29.8775C30.1647 29.1531 31.4394 30.2435 32.9645 30.2435C34.4896 30.2435 35.764 29.1531 36.0511 27.711H36.9245C37.8889 27.711 38.6731 26.9268 38.6731 25.9625C38.6731 23.4401 36.8635 21.3329 34.3696 20.9518ZM24.8236 18.1532C26.9174 18.1532 28.9277 19.0272 30.3585 20.552H23.6959L22.7277 18.1609C22.8092 18.1582 22.8907 18.1532 22.9725 18.1532H24.8236ZM21.5075 18.3061L22.4168 20.552H17.6227C18.6473 19.4012 20.0073 18.6176 21.5075 18.3061ZM17.8584 29.058C16.776 29.058 15.8955 28.1775 15.8955 27.0955C15.8955 26.0131 16.776 25.1326 17.8584 25.1326C18.9407 25.1326 19.8212 26.0131 19.8212 27.0955C19.8212 28.1778 18.9407 29.058 17.8584 29.058ZM32.9645 29.058C31.8821 29.058 31.0016 28.1775 31.0016 27.0955C31.0016 26.0131 31.8821 25.1326 32.9645 25.1326C34.0465 25.1326 34.927 26.0131 34.927 27.0955C34.927 28.1778 34.0468 29.058 32.9645 29.058Z" fill="white"/>
<defs>
<filter id="filter0_d_29_140" x="0" y="0" width="53" height="53" filterUnits="userSpaceOnUse" color-interpolation-filters="sRGB">
<feFlood flood-opacity="0" result="BackgroundImageFix"/>
<feColorMatrix in="SourceAlpha" type="matrix" values="0 0 0 0 0 0 0 0 0 0 0 0 0 0 0 0 0 0 127 0" result="hardAlpha"/>
<feOffset dx="2" dy="2"/>
<feGaussianBlur stdDeviation="2"/>
<feComposite in2="hardAlpha" operator="out"/>
<feColorMatrix type="matrix" values="0 0 0 0 0 0 0 0 0 0 0 0 0 0 0 0 0 0 0.25 0"/>
<feBlend mode="normal" in2="BackgroundImageFix" result="effect1_dropShadow_29_140"/>
<feBlend mode="normal" in="SourceGraphic" in2="effect1_dropShadow_29_140" result="shape"/>
</filter>
</defs>
</svg>
