<svg width="53" height="53" viewBox="0 0 53 53" fill="none" xmlns="http://www.w3.org/2000/svg">
<g filter="url(#filter0_d_71_476)">
<rect x="2" y="2" width="45" height="45" rx="22.5" fill="#B3C0CB"/>
<rect x="2.5" y="2.5" width="44" height="44" rx="22" stroke="#ECECEC"/>
</g>
<path d="M37.5788 31.7235H37.1015V17.7689C37.1015 16.7935 36.308 16 35.3326 16H14.6674C13.692 16 12.8985 16.7935 12.8985 17.7689V31.7235H12.4212C12.1886 31.7235 12 31.9121 12 32.1447V33.0432C12 33.7709 12.592 34.3629 13.3197 34.3629H36.6803C37.408 34.3629 38 33.7709 38 33.0432V32.1447C38 31.9121 37.8114 31.7235 37.5788 31.7235ZM13.7408 17.7689C13.7408 17.258 14.1565 16.8423 14.6674 16.8423H35.3326C35.8435 16.8423 36.2592 17.258 36.2592 17.7689V31.7235H13.7408V17.7689ZM37.1577 33.0432C37.1577 33.3064 36.9435 33.5205 36.6803 33.5205H13.3197C13.0565 33.5205 12.8423 33.3064 12.8423 33.0432V32.5659H22.334C22.3334 32.5752 22.3326 32.5845 22.3326 32.594C22.3326 32.8265 22.5212 33.0151 22.7538 33.0151H27.2462C27.4788 33.0151 27.6674 32.8265 27.6674 32.594C27.6674 32.5845 27.6666 32.5752 27.666 32.5659H37.1577V33.0432Z" fill="white"/>
<path d="M34.8833 17.7969H15.1166C14.884 17.7969 14.6954 17.9854 14.6954 18.218V30.3476C14.6954 30.5802 14.884 30.7688 15.1166 30.7688H34.8833C35.1159 30.7688 35.3045 30.5802 35.3045 30.3476V18.218C35.3045 17.9854 35.1159 17.7969 34.8833 17.7969ZM34.4622 29.9265H15.5378V18.6392H34.4622V29.9265Z" fill="white"/>
<defs>
<filter id="filter0_d_71_476" x="0" y="0" width="53" height="53" filterUnits="userSpaceOnUse" color-interpolation-filters="sRGB">
<feFlood flood-opacity="0" result="BackgroundImageFix"/>
<feColorMatrix in="SourceAlpha" type="matrix" values="0 0 0 0 0 0 0 0 0 0 0 0 0 0 0 0 0 0 127 0" result="hardAlpha"/>
<feOffset dx="2" dy="2"/>
<feGaussianBlur stdDeviation="2"/>
<feComposite in2="hardAlpha" operator="out"/>
<feColorMatrix type="matrix" values="0 0 0 0 0 0 0 0 0 0 0 0 0 0 0 0 0 0 0.25 0"/>
<feBlend mode="normal" in2="BackgroundImageFix" result="effect1_dropShadow_71_476"/>
<feBlend mode="normal" in="SourceGraphic" in2="effect1_dropShadow_71_476" result="shape"/>
</filter>
</defs>
</svg>
