<svg width="700" height="494" viewBox="0 0 700 494" fill="none" xmlns="http://www.w3.org/2000/svg">
<path d="M432.109 371.375H65.7812C29.6094 371.375 0.234375 342 0.234375 305.828V65.9844C0.234375 29.8125 29.6094 0.4375 65.7812 0.4375H432.109C468.281 0.4375 497.656 29.8125 497.656 65.9844V305.75C497.656 342 468.359 371.375 432.109 371.375Z" fill="#248CBE"/>
<path d="M0.234375 83.1719H497.734V158.25H0.234375V83.1719Z" fill="#183351"/>
<path d="M187.5 262.469H50.2344C40.7812 262.469 33.0469 254.734 33.0469 245.281C33.0469 235.828 40.7812 228.094 50.2344 228.094H187.5C196.953 228.094 204.687 235.828 204.687 245.281C204.687 254.734 196.953 262.469 187.5 262.469ZM291.719 316.688H50.2344C40.7812 316.688 33.0469 308.953 33.0469 299.5C33.0469 290.047 40.7812 282.313 50.2344 282.313H291.719C301.172 282.313 308.906 290.047 308.906 299.5C308.906 308.953 301.172 316.688 291.719 316.688Z" fill="#FBFAEE"/>
<path d="M634.219 493.562H267.891C231.719 493.562 202.344 464.188 202.344 428.016V188.172C202.344 152 231.719 122.625 267.891 122.625H634.219C670.391 122.625 699.766 152 699.766 188.172V427.937C699.766 464.187 670.469 493.562 634.219 493.562Z" fill="url(#paint0_linear_2_3)"/>
<path d="M565.859 321.375H252.344C242.891 321.375 235.156 313.641 235.156 304.188C235.156 294.734 242.891 287 252.344 287H565.859C575.312 287 583.047 294.734 583.047 304.188C583.047 313.641 575.312 321.375 565.859 321.375Z" fill="#AEB8C4"/>
<path d="M389.609 384.656H252.344C242.891 384.656 235.156 376.922 235.156 367.469C235.156 358.016 242.891 350.281 252.344 350.281H389.687C399.141 350.281 406.875 358.016 406.875 367.469C406.797 376.922 399.062 384.656 389.609 384.656ZM493.828 438.875H252.344C242.891 438.875 235.156 431.141 235.156 421.687C235.156 412.234 242.891 404.5 252.344 404.5H493.828C503.281 404.5 511.016 412.234 511.016 421.687C511.016 431.141 503.281 438.875 493.828 438.875Z" fill="#FBFAEE"/>
<path d="M348.75 253.484H263.906C248.047 253.484 235.156 240.594 235.156 224.734V185.047C235.156 169.188 248.047 156.297 263.906 156.297H348.75C364.609 156.297 377.5 169.188 377.5 185.047V224.734C377.5 240.594 364.609 253.484 348.75 253.484Z" fill="#F3C262"/>
<path d="M377.5 189.266H350.703V156.297H324.219V253.484H350.703V216.219H377.5V189.266ZM264.531 156.297V189.266H235.156V216.219H264.531V253.484H291.016V156.297H264.531Z" fill="#F7A04D"/>
<path d="M699.766 298.406V225.125C636.797 224.891 583.984 181.062 570 122.312H495.391C510.391 221.688 596.328 298.172 699.766 298.406Z" fill="#F8D069"/>
<defs>
<linearGradient id="paint0_linear_2_3" x1="451.055" y1="122.625" x2="451.055" y2="493.562" gradientUnits="userSpaceOnUse">
<stop stop-color="#C80048"/>
<stop offset="1" stop-color="#D02548" stop-opacity="0.703095"/>
</linearGradient>
</defs>
</svg>
