<svg width="45" height="45" viewBox="0 0 45 45" fill="none" xmlns="http://www.w3.org/2000/svg">
<rect x="0.5" y="0.5" width="44" height="44" rx="22" fill="#849961" stroke="#ECECEC"/>
<path d="M22.6742 21.3559H30.629C30.8641 21.3559 31.0568 21.1631 31.0568 20.9281C31.0568 20.693 30.8641 20.5002 30.629 20.5002H22.6742C22.4391 20.5002 22.2463 20.693 22.2463 20.9281C22.2463 21.1631 22.4391 21.3559 22.6742 21.3559Z" fill="white"/>
<path d="M22.6742 23.6267H28.4522C28.6873 23.6267 28.8801 23.4339 28.8801 23.1988C28.8801 22.9638 28.6873 22.771 28.4522 22.771H22.6742C22.4391 22.771 22.2463 22.9638 22.2463 23.1988C22.2463 23.4386 22.4391 23.6267 22.6742 23.6267Z" fill="white"/>
<path d="M22.6742 25.7094H30.629C30.8641 25.7094 31.0568 25.5167 31.0568 25.2816C31.0568 25.0465 30.8641 24.8538 30.629 24.8538H22.6742C22.4391 24.8538 22.2463 25.0465 22.2463 25.2816C22.2463 25.5214 22.4391 25.7094 22.6742 25.7094Z" fill="white"/>
<path d="M23.4311 27.228H22.6742C22.4391 27.228 22.2463 27.4208 22.2463 27.6559C22.2463 27.8909 22.4391 28.0837 22.6742 28.0837H23.4311C23.6662 28.0837 23.8589 27.8909 23.8589 27.6559C23.8589 27.4208 23.6662 27.228 23.4311 27.228Z" fill="white"/>
<path d="M23.4311 29.3107H22.6742C22.4391 29.3107 22.2463 29.5034 22.2463 29.7385C22.2463 29.9736 22.4391 30.1663 22.6742 30.1663H23.4311C23.6662 30.1663 23.8589 29.9736 23.8589 29.7385C23.8542 29.4987 23.6662 29.3107 23.4311 29.3107Z" fill="white"/>
<path d="M30.629 27.228H25.133C24.898 27.228 24.7052 27.4208 24.7052 27.6559C24.7052 27.8909 24.898 28.0837 25.133 28.0837H30.629C30.8641 28.0837 31.0568 27.8909 31.0568 27.6559C31.0568 27.4208 30.8641 27.228 30.629 27.228Z" fill="white"/>
<path d="M28.8754 29.7339C28.8754 29.4988 28.6826 29.306 28.4475 29.306H25.133C24.898 29.306 24.7052 29.4988 24.7052 29.7339C24.7052 29.9689 24.898 30.1617 25.133 30.1617H28.4475C28.6826 30.1617 28.8754 29.9689 28.8754 29.7339Z" fill="white"/>
<path d="M28.0573 34.8583C28.2218 35.0229 28.4945 35.0229 28.659 34.8583L30.1071 33.4103L31.5551 34.8583C31.6398 34.943 31.7479 34.9853 31.856 34.9853C31.9642 34.9853 32.0723 34.943 32.1569 34.8583L33.0314 33.9839C33.1113 33.9039 33.1583 33.7958 33.1583 33.683V19.1603C33.1583 18.0883 32.2885 17.2186 31.2166 17.2186H27.9491V12.4278C27.9491 12.1928 27.7564 12 27.5213 12H14.4278C14.1928 12 14 12.1928 14 12.4278V26.9458C14 28.0178 14.8698 28.8875 15.9417 28.8875H18.4052C18.6403 28.8875 18.8331 28.6948 18.8331 28.4597C18.8331 28.2246 18.6403 28.0319 18.4052 28.0319H17.5496C17.7611 27.7216 17.8881 27.3455 17.8881 26.9411V19.1603C17.8881 18.5585 18.377 18.0695 18.9788 18.0695C19.5806 18.0695 20.0695 18.5585 20.0695 19.1603V33.6783C20.0695 33.7065 20.0742 33.7347 20.0789 33.7629C20.0836 33.7817 20.0883 33.7958 20.093 33.8146C20.0978 33.824 20.0978 33.8334 20.1025 33.8428C20.1119 33.8616 20.1213 33.8804 20.1307 33.8945C20.1354 33.8992 20.1354 33.9086 20.1401 33.9133C20.1542 33.9369 20.173 33.9604 20.1918 33.9792L21.0662 34.8536C21.2308 35.0182 21.5035 35.0182 21.668 34.8536L23.1161 33.4056L24.5641 34.8536C24.7287 35.0182 25.0013 35.0182 25.1659 34.8536L26.6139 33.4056L28.0573 34.8583ZM17.0371 19.1603V26.9458C17.0371 27.5476 16.5482 28.0366 15.9464 28.0366C15.3446 28.0366 14.8557 27.5476 14.8557 26.9458V12.851H27.0982V17.2186H18.9788C17.9069 17.2186 17.0371 18.0883 17.0371 19.1603ZM24.865 33.951L23.417 32.5029C23.3323 32.4183 23.2242 32.376 23.1161 32.376C23.0079 32.376 22.8998 32.4183 22.8152 32.5029L21.3671 33.951L20.9205 33.5043V19.1603C20.9205 19.0992 20.9158 19.038 20.9111 18.9816C20.9111 18.9628 20.9064 18.9487 20.9064 18.9299C20.9017 18.8876 20.897 18.8453 20.8876 18.803C20.8829 18.7842 20.8829 18.7701 20.8782 18.7512C20.8688 18.6995 20.8547 18.6431 20.8359 18.5914C20.8359 18.5867 20.8359 18.5867 20.8312 18.582C20.8124 18.5256 20.7936 18.4739 20.7701 18.4221C20.7654 18.408 20.756 18.3939 20.7512 18.3751C20.7324 18.3375 20.7183 18.2999 20.6948 18.2623C20.6854 18.2482 20.6807 18.2341 20.6713 18.2153C20.6478 18.173 20.6196 18.126 20.5914 18.0836C20.5867 18.0789 20.5867 18.0742 20.582 18.0695C20.582 18.0695 20.582 18.0695 20.582 18.0648H31.2025C31.8043 18.0648 32.2932 18.5538 32.2932 19.1556V33.5043L31.8466 33.951L30.3986 32.5029C30.234 32.3384 29.9613 32.3384 29.7968 32.5029L28.3488 33.951L26.9148 32.5076C26.7503 32.3431 26.4776 32.3431 26.313 32.5076L24.865 33.951Z" fill="white"/>
</svg>
