<?xml version="1.0" encoding="utf-8"?>
<!-- Svg Vector Icons : http://www.onlinewebfonts.com/icon -->
<!DOCTYPE svg PUBLIC "-//W3C//DTD SVG 1.1//EN" "http://www.w3.org/Graphics/SVG/1.1/DTD/svg11.dtd">
<svg version="1.1" xmlns="http://www.w3.org/2000/svg" xmlns:xlink="http://www.w3.org/1999/xlink" x="0px" y="0px" width="19"  viewBox="0 0 1000 1000" enable-background="new 0 0 1000 1000" xml:space="preserve">
<metadata> Svg Vector Icons : http://www.onlinewebfonts.com/icon </metadata>
<g><g transform="translate(0.000000,511.000000) scale(0.100000,-0.100000)"><path d="M2771,4975.4c-36.5-19.2-84.6-57.7-105.7-86.5c-36.5-51.9-38.4-82.7-44.2-968.9c-3.8-659.4,1.9-930.5,17.3-968.9c11.5-30.8,51.9-80.7,88.4-111.5c123-107.7,342.2-67.3,422.9,80.7c32.7,57.7,34.6,134.6,34.6,980.5c0,899.7,0,917-40.4,970.8C3044,5006.1,2901.8,5046.5,2771,4975.4z"/><path d="M6963.9,4969.6c-36.5-23.1-84.6-69.2-105.7-98c-38.5-53.8-40.4-76.9-46.2-947.8c-5.8-853.6-3.8-895.9,32.7-978.5c50-111.5,132.6-163.4,265.3-163.4c78.8,0,111.5,9.6,159.6,50c119.2,100,115.4,73.1,115.4,1055.4c0,788.2-3.8,905.5-30.8,963.2C7285,4996.5,7088.9,5056.1,6963.9,4969.6z"/><path d="M1238.8,4166c-257.6-38.4-513.3-230.7-636.3-478.7l-71.1-144.2l-5.8-3812.3l-3.8-3812.3l40.4-119.2c82.7-246.1,265.3-438.3,513.3-538.3l109.6-44.2l3758.4-5.8c2635.7-3.8,3789.2,1.9,3858.4,15.4c298,63.4,540.2,280.7,640.2,574.8c38.4,117.3,38.4,130.7,34.6,3929.5l-5.8,3810.3l-61.5,130.7c-123,259.5-378.7,451.8-659.4,496c-69.2,9.6-371,15.4-672.9,13.5l-547.9-5.8l-5.8-282.6l-5.8-282.6l605.6-5.8c576.8-5.8,607.5-7.7,657.5-46.1c28.8-21.2,71.1-63.4,92.3-92.3c38.5-51.9,40.4-75,40.4-786.3v-734.4l-3918-5.8l-3918-3.9l5.8,738.2c5.8,711.3,7.7,742.1,46.1,792.1c21.1,28.8,63.4,71.1,92.3,92.3c50,38.4,80.8,40.4,646,46.1l592.1,5.8l7.7,178.8c1.9,98,1.9,228.8,0,288.4l-7.7,107.7l-559.4-1.9C1590.6,4181.4,1294.6,4173.7,1238.8,4166z M8919.1-1326.5l-5.8-2687.6l-44.2-69.2c-88.5-144.2,248-132.7-3871.9-132.7c-3570,0-3700.8,1.9-3764.2,36.5c-36.5,19.2-84.6,65.3-105.7,100c-38.4,65.4-38.4,103.8-44.2,2753l-3.9,2685.7h3921.8h3921.8L8919.1-1326.5z"/><path d="M2398.1,496c-109.6-73.1-126.9-123-126.9-376.8c0-259.5,23.1-323,138.4-394.1c57.7-34.6,98-38.4,449.9-38.4c369.1,0,390.3,1.9,449.9,44.2c128.8,86.5,144.2,126.9,144.2,374.9c0,253.8-23.1,323-130.7,388.3c-55.8,34.6-98,38.5-465.2,38.5C2494.2,532.6,2448.1,528.7,2398.1,496z"/><path d="M4537.8,488.3c-111.5-75-134.6-144.2-128.8-398c5.8-198,11.5-228.8,51.9-286.4c75-105.7,128.8-117.3,542.1-117.3c407.5,0,463.3,11.5,542.1,123c36.5,51.9,42.3,88.4,48.1,280.7c5.7,253.8-17.3,323-128.8,398c-63.4,42.3-80.7,44.2-463.3,44.2C4618.5,532.6,4601.2,530.6,4537.8,488.3z"/><path d="M6679.4,494.1c-107.7-65.4-130.7-134.6-130.7-388.3c0-248,15.4-288.4,144.2-374.9c59.6-42.3,80.7-44.2,449.9-44.2c351.8,0,392.2,3.8,449.8,38.4c115.4,71.1,138.4,134.6,138.4,394.1c0,253.8-17.3,303.8-126.9,376.8c-50,32.7-96.1,36.5-459.5,36.5C6777.5,532.6,6735.2,528.7,6679.4,494.1z"/><path d="M2432.7-1024.6c-21.2-7.7-67.3-48.1-101.9-86.5l-63.4-71.1l7.7-257.6c5.8-251.8,5.8-255.7,61.5-313.4c90.4-94.2,126.9-100,551.8-94.2c432.6,5.8,451.8,11.5,530.6,140.3c51.9,88.4,50,472.9-3.8,563.3c-78.8,130.7-111.5,138.4-549.8,136.5C2649.9-1007.4,2455.8-1015,2432.7-1024.6z"/><path d="M4537.8-1049.6c-105.7-69.2-132.6-146.1-132.6-378.7c0-232.6,26.9-309.5,132.6-378.7c63.4-42.3,80.7-44.2,463.3-44.2c380.6,0,399.9,1.9,461.4,44.2c107.7,73.1,134.6,148,134.6,378.7c0,232.6-26.9,309.5-132.7,378.7c-63.4,42.3-80.7,44.2-463.3,44.2C4618.5-1005.4,4601.2-1007.4,4537.8-1049.6z"/><path d="M6671.7-1051.6c-100-69.2-123-140.3-123-386.4c0-186.5,5.8-219.2,44.2-280.7c73.1-121.1,123-132.6,551.8-132.6c405.6,0,436.4,5.8,528.7,105.7c46.2,50,48.1,59.6,48.1,319.1v267.2l-73,71.1l-71.1,73.1l-419.1,5.8C6740.9-1003.5,6740.9-1003.5,6671.7-1051.6z"/><path d="M2415.4-2579.9c-128.8-78.8-134.6-94.2-134.6-388.3v-267.2l73-71.1l71.1-73l409.5-5.8c459.5-7.7,496,0,576.7,128.8c36.5,61.5,42.3,94.2,42.3,290.3c0,196.1-5.8,228.8-44.2,290.3c-75,121.1-123,132.7-555.6,132.7C2517.3-2543.4,2467.3-2547.2,2415.4-2579.9z"/><path d="M4537.8-2587.6c-105.7-69.2-132.6-146.1-132.6-378.7c0-232.6,26.9-309.5,132.6-378.7c63.4-42.3,80.7-44.2,463.3-44.2c382.6,0,399.9,1.9,463.3,44.2c105.7,69.2,132.7,146.1,132.7,378.7c0,232.6-26.9,309.5-132.7,378.7c-63.4,42.3-80.7,44.2-463.3,44.2C4618.5-2543.4,4601.2-2545.3,4537.8-2587.6z"/><path d="M3328.6,3896.9v-288.4h1672.6h1672.5v288.4v288.4H5001.1H3328.6V3896.9z"/></g></g>
</svg>