<svg width="45" height="45" viewBox="0 0 45 45" fill="none" xmlns="http://www.w3.org/2000/svg">
<rect x="0.5" y="0.5" width="44" height="44" rx="22" fill="#AC779D" stroke="#ECECEC"/>
<path d="M34.4582 29.9369L30.7525 26.2306C30.0145 25.4956 28.792 25.5181 28.0281 26.2819L26.1612 28.1488C26.0434 28.0835 25.9213 28.0156 25.7929 27.9436C24.614 27.2904 23.0002 26.3951 21.3021 24.6957C19.5991 22.9929 18.7026 21.3766 18.0476 20.1968C17.9781 20.0717 17.912 19.9514 17.8467 19.837L19.0998 18.5856L19.7157 17.9688C20.4809 17.2037 20.5021 15.9815 19.7653 15.2444L16.0595 11.5377C15.3232 10.8015 14.1002 10.8239 13.3351 11.589L12.2906 12.6394L12.3194 12.6678C11.9692 13.1146 11.6763 13.6301 11.4589 14.1859C11.258 14.7148 11.1329 15.2198 11.0757 15.7254C10.5865 19.7823 12.4402 23.4897 17.4711 28.5211C24.4253 35.4747 30.0297 34.9495 30.2714 34.9237C30.7983 34.861 31.3027 34.735 31.8157 34.5358C32.3667 34.3205 32.8818 34.0284 33.3281 33.6791L33.351 33.699L34.4091 32.6629C35.1726 31.8979 35.1946 30.6757 34.4582 29.9369ZM33.5859 31.839L33.1195 32.3045L32.9338 32.483C32.6414 32.7657 32.1351 33.1629 31.3959 33.452C30.9762 33.6136 30.5625 33.7173 30.1415 33.7674C30.0886 33.7725 24.8173 34.2223 18.2934 27.6988C12.7463 22.1519 11.8573 18.9556 12.23 15.8599C12.2766 15.4496 12.3795 15.0367 12.5441 14.6052C12.8357 13.8617 13.2325 13.3559 13.5131 13.063L14.1578 12.4119C14.4685 12.1004 14.9531 12.0766 15.2371 12.3606L18.9428 16.0663C19.2264 16.3507 19.204 16.8353 18.8928 17.1478L16.3902 19.6479L16.6211 20.0367C16.7495 20.2533 16.8853 20.4961 17.0303 20.7599C17.7187 22.0015 18.6606 23.701 20.4796 25.5183C22.2938 27.3335 23.9908 28.2746 25.2286 28.9612C25.496 29.1091 25.7403 29.2452 25.9594 29.3758L26.349 29.6067L28.85 27.1049C29.162 26.7942 29.6482 26.7712 29.9323 27.0544L33.6363 30.7594C33.9195 31.0433 33.897 31.5278 33.5859 31.839Z" fill="white"/>
</svg>
