<svg width="45" height="45" viewBox="0 0 45 45" fill="none" xmlns="http://www.w3.org/2000/svg">
<rect x="0.5" y="0.5" width="44" height="44" rx="22" fill="#C16D6D" stroke="#ECECEC"/>
<path d="M36.8942 26.2509C36.7311 25.9336 36.4084 25.7371 36.0518 25.7371H35.5139C35.2859 19.7465 30.9149 14.8022 25.1896 13.692C25.1979 13.6129 25.2107 13.5343 25.2107 13.4562C25.2107 12.1018 24.1088 11 22.7545 11C21.4002 11 20.2983 12.1018 20.2983 13.4562C20.2983 13.5343 20.3106 13.6134 20.3195 13.692C14.5936 14.8017 10.2226 19.7465 9.99466 25.7371H9.94799C9.59136 25.7371 9.26862 25.9336 9.10553 26.2509C8.94244 26.5682 8.96994 26.945 9.17725 27.2353L10.2874 28.7896C10.8995 29.6468 11.8938 30.1582 12.9465 30.1582H33.0538C34.1065 30.1582 35.1007 29.6468 35.7128 28.7896L36.8235 27.2353C37.0303 26.945 37.0573 26.5677 36.8942 26.2509ZM21.2838 13.5407C21.2818 13.5122 21.2808 13.4837 21.2808 13.4562C21.2808 12.6437 21.942 11.9825 22.7545 11.9825C23.567 11.9825 24.2282 12.6437 24.2282 13.4562C24.2282 13.4842 24.2272 13.5122 24.2253 13.5407C24.2022 13.5382 24.1791 13.5372 24.1565 13.5348C23.9875 13.5161 23.8175 13.5028 23.6466 13.4911C23.5837 13.4866 23.5213 13.4802 23.4585 13.4768C23.2246 13.4635 22.9903 13.4562 22.7545 13.4562C22.5187 13.4562 22.2839 13.4635 22.0511 13.4763C21.9882 13.4798 21.9258 13.4861 21.8629 13.4906C21.692 13.5024 21.522 13.5161 21.353 13.5343C21.3299 13.5372 21.3068 13.5377 21.2838 13.5407ZM20.989 14.5708C21.2518 14.5315 21.5171 14.503 21.7824 14.4814C21.8364 14.477 21.8904 14.473 21.9445 14.4696C22.4838 14.4332 23.0257 14.4332 23.565 14.4696C23.6191 14.4735 23.6731 14.4775 23.7272 14.4814C23.9924 14.503 24.2572 14.5315 24.5205 14.5708C30.0277 15.4015 34.3 20.0569 34.5339 25.7371H10.9747C11.209 20.0569 15.4808 15.4015 20.989 14.5708ZM34.9131 28.2183C34.4847 28.8176 33.7896 29.1757 33.0533 29.1757H12.9465C12.2101 29.1757 11.515 28.8176 11.0867 28.2188L10.0158 26.7195H35.5266H35.984L34.9131 28.2183Z" fill="white"/>
<path d="M22.7476 15.4211C21.9405 15.4211 21.1374 15.51 20.3602 15.6848C20.0955 15.7443 19.9294 16.0071 19.9889 16.2719C20.0404 16.5003 20.2433 16.655 20.4678 16.655C20.5037 16.655 20.54 16.6511 20.5764 16.6432C21.2828 16.4841 22.0132 16.4035 22.7476 16.4035C22.7496 16.4035 22.7516 16.4035 22.754 16.4035C23.0252 16.4035 23.2453 16.1839 23.2453 15.9128C23.2458 15.6392 23.0276 15.4117 22.7476 15.4211Z" fill="white"/>
<path d="M17.4246 16.8452C14.8682 18.3597 13.0074 21.0998 12.4464 24.175C12.3978 24.4422 12.5746 24.6976 12.8418 24.7463C12.8713 24.7522 12.9008 24.7546 12.9303 24.7546C13.1631 24.7546 13.3699 24.5886 13.4132 24.3518C13.9235 21.5528 15.6104 19.0622 17.9256 17.6907C18.159 17.5526 18.2361 17.251 18.0981 17.0177C17.959 16.7843 17.6584 16.7072 17.4246 16.8452Z" fill="white"/>
</svg>
