<svg width="45" height="45" viewBox="0 0 45 45" fill="none" xmlns="http://www.w3.org/2000/svg">
<rect width="45" height="45" rx="22.5" fill="#CEA47D"/>
<path d="M13.3438 26.7203C13.3698 22.3977 13.3952 18.0813 13.4199 13.7711C13.421 13.6324 13.4724 13.4984 13.5654 13.3918C13.6583 13.2853 13.7871 13.2129 13.9297 13.1869C15.5703 12.8603 18.1563 12.9424 19.9121 13.5864C21.1486 14.013 22.2325 14.7672 23.0371 15.7607C23.8675 14.8148 24.9459 14.0966 26.1621 13.6797C27.8203 13.075 30.3359 12.9294 32.1387 13.1869C32.2875 13.2062 32.4241 13.2761 32.5234 13.3837C32.6228 13.4913 32.6782 13.6295 32.6797 13.773V26.7744C32.6794 26.8533 32.6629 26.9313 32.631 27.004C32.5992 27.0767 32.5526 27.1427 32.494 27.1982C32.4354 27.2537 32.3659 27.2976 32.2895 27.3273C32.2131 27.3571 32.1313 27.3722 32.0488 27.3717C32.0002 27.371 31.9517 27.3654 31.9043 27.3549C30.3648 27.164 28.8001 27.3037 27.3242 27.7636C26.2339 28.152 25.1991 28.67 24.2441 29.3053C25.587 28.9071 26.9867 28.7119 28.3926 28.7267C30.1967 28.7541 31.9921 28.972 33.7461 29.3762V15.7701H34.373C34.5393 15.7701 34.6988 15.8332 34.8164 15.9455C34.9339 16.0579 35 16.2103 35 16.3692V30.1601C35 30.319 34.9339 30.4714 34.8164 30.5838C34.6988 30.6961 34.5393 30.7592 34.373 30.7592C34.3066 30.7587 34.2406 30.748 34.1777 30.7275C32.2883 30.231 30.3419 29.9596 28.3828 29.9193C26.6515 29.8985 24.9357 30.2333 23.3516 30.9011C23.2453 30.9657 23.122 31 22.9961 31C22.8702 31 22.7469 30.9657 22.6406 30.9011C21.0565 30.2331 19.3407 29.8983 17.6094 29.9193C15.6547 29.9619 13.713 30.2346 11.8281 30.7312C11.7652 30.7517 11.6993 30.7624 11.6328 30.763C11.5497 30.7637 11.4672 30.7486 11.3902 30.7186C11.3132 30.6886 11.2432 30.6443 11.1843 30.5882C11.1254 30.5321 11.0788 30.4653 11.0472 30.3918C11.0155 30.3184 10.9995 30.2396 11 30.1601V16.3692C11 16.2103 11.0661 16.0579 11.1836 15.9455C11.3012 15.8332 11.4607 15.7701 11.627 15.7701H12.2539V29.3762C14.0079 28.972 15.8033 28.7541 17.6074 28.7267C19.1146 28.7097 20.614 28.9349 22.043 29.393C21.1403 28.6953 20.1117 28.1614 19.0078 27.8178C17.6406 27.3885 15.5547 27.2448 14.0293 27.3698C13.9466 27.3775 13.8631 27.3694 13.7837 27.346C13.7043 27.3226 13.6306 27.2843 13.5668 27.2335C13.503 27.1826 13.4504 27.1201 13.4122 27.0496C13.3739 26.9791 13.3506 26.9021 13.3438 26.823C13.3418 26.7888 13.3418 26.7545 13.3438 26.7203ZM25.3828 25.02C25.3336 25.0551 25.2773 25.0801 25.2175 25.0936C25.1577 25.1071 25.0957 25.1087 25.0352 25.0983C24.9748 25.088 24.9172 25.0659 24.866 25.0334C24.8148 25.0009 24.7711 24.9588 24.7377 24.9095C24.7042 24.8603 24.6817 24.8051 24.6715 24.7472C24.6613 24.6893 24.6636 24.63 24.6783 24.573C24.693 24.516 24.7198 24.4625 24.757 24.4158C24.7941 24.3691 24.841 24.3302 24.8945 24.3014C25.6152 23.8739 26.3896 23.5353 27.1992 23.2936C28.0208 23.0278 28.8736 22.8604 29.7383 22.7952C29.797 22.7922 29.8558 22.8002 29.9113 22.8189C29.9668 22.8375 30.0179 22.8664 30.0617 22.9039C30.1055 22.9415 30.1411 22.9869 30.1666 23.0375C30.192 23.0882 30.2068 23.1432 30.21 23.1993C30.2132 23.2555 30.2048 23.3116 30.1853 23.3647C30.1657 23.4177 30.1355 23.4665 30.0962 23.5084C30.057 23.5502 30.0095 23.5843 29.9564 23.6086C29.9034 23.6329 29.8458 23.647 29.7871 23.6501C29.0028 23.7128 28.2295 23.867 27.4844 24.1092C26.7464 24.3266 26.0402 24.6327 25.3828 25.02ZM25.4219 21.7053C25.3216 21.7661 25.2002 21.7865 25.0843 21.7618C24.9684 21.7371 24.8674 21.6695 24.8037 21.5737C24.74 21.4779 24.7187 21.3618 24.7445 21.2511C24.7704 21.1403 24.8412 21.0438 24.9414 20.983C25.6605 20.5649 26.4306 20.2327 27.2344 19.9938C28.0427 19.7352 28.8809 19.571 29.7305 19.5048C29.8467 19.5029 29.9592 19.5441 30.0442 19.6198C30.1293 19.6955 30.1804 19.7997 30.1867 19.9106C30.193 20.0215 30.1541 20.1305 30.0781 20.2145C30.0022 20.2986 29.8951 20.3513 29.7793 20.3614C29.006 20.4227 28.2433 20.5732 27.5078 20.8094C26.7769 21.0255 26.0763 21.3264 25.4219 21.7053ZM25.4336 18.4017C25.3837 18.4319 25.3281 18.4523 25.2699 18.4619C25.2118 18.4715 25.1522 18.4701 25.0946 18.4577C25.037 18.4453 24.9826 18.4222 24.9343 18.3897C24.8861 18.3572 24.845 18.3159 24.8135 18.2683C24.7819 18.2206 24.7605 18.1674 24.7505 18.1119C24.7404 18.0563 24.7419 17.9994 24.7549 17.9443C24.7678 17.8893 24.792 17.8373 24.826 17.7912C24.8601 17.7451 24.9032 17.7058 24.9531 17.6757C25.6712 17.2595 26.4399 16.9292 27.2422 16.6921C28.048 16.4346 28.8835 16.2717 29.7305 16.2068C29.7892 16.2037 29.848 16.2118 29.9035 16.2304C29.959 16.2491 30.0101 16.278 30.0539 16.3155C30.0977 16.353 30.1333 16.3984 30.1588 16.4491C30.1842 16.4998 30.1989 16.5548 30.2022 16.6109C30.2054 16.667 30.197 16.7232 30.1774 16.7762C30.1579 16.8292 30.1277 16.8781 30.0884 16.9199C30.0491 16.9618 30.0016 16.9958 29.9486 17.0202C29.8956 17.0445 29.838 17.0586 29.7793 17.0616C29.0088 17.123 28.2487 17.2728 27.5156 17.5077C26.786 17.7234 26.0868 18.0236 25.4336 18.4017ZM21.1055 24.3014C21.159 24.3302 21.2059 24.3691 21.2431 24.4158C21.2803 24.4625 21.307 24.516 21.3217 24.573C21.3364 24.63 21.3387 24.6893 21.3285 24.7472C21.3183 24.8051 21.2958 24.8603 21.2623 24.9095C21.2289 24.9588 21.1852 25.0009 21.134 25.0334C21.0829 25.0659 21.0253 25.088 20.9648 25.0983C20.9043 25.1087 20.8423 25.1071 20.7825 25.0936C20.7227 25.0801 20.6665 25.0551 20.6172 25.02C19.9623 24.6332 19.2588 24.3272 18.5234 24.1092C17.7783 23.867 17.005 23.7128 16.2207 23.6501C16.162 23.6468 16.1045 23.6324 16.0516 23.6079C15.9986 23.5834 15.9513 23.5491 15.9122 23.5071C15.8731 23.465 15.843 23.4161 15.8238 23.3629C15.8045 23.3098 15.7964 23.2536 15.7998 23.1975C15.8033 23.1413 15.8183 23.0864 15.844 23.0358C15.8696 22.9852 15.9055 22.94 15.9495 22.9026C15.9934 22.8653 16.0447 22.8366 16.1003 22.8181C16.1559 22.7997 16.2147 22.7919 16.2734 22.7952C17.1381 22.8604 17.991 23.0278 18.8125 23.2936C19.6222 23.5353 20.3965 23.8739 21.1172 24.3014H21.1055ZM21.0586 20.983C21.1588 21.0448 21.2292 21.1422 21.2543 21.2537C21.2794 21.3652 21.2571 21.4816 21.1924 21.5774C21.1276 21.6732 21.0257 21.7405 20.9091 21.7645C20.7924 21.7884 20.6706 21.7671 20.5703 21.7053C19.9159 21.3264 19.2153 21.0255 18.4844 20.8094C17.7489 20.5732 16.9862 20.4227 16.2129 20.3614C16.094 20.3538 15.9832 20.3013 15.9048 20.2155C15.8264 20.1298 15.7869 20.0178 15.7949 19.9042C15.803 19.7906 15.8579 19.6847 15.9476 19.6098C16.0374 19.5349 16.1546 19.4971 16.2734 19.5048C17.1231 19.571 17.9612 19.7352 18.7695 19.9938C19.5733 20.2327 20.3434 20.5649 21.0625 20.983H21.0586ZM21.0469 17.6757C21.1006 17.7038 21.1477 17.7421 21.1854 17.7882C21.223 17.8344 21.2504 17.8874 21.2659 17.944C21.2813 18.0006 21.2845 18.0597 21.2751 18.1175C21.2658 18.1753 21.2442 18.2307 21.2117 18.2803C21.1792 18.3299 21.1364 18.3726 21.0859 18.4058C21.0355 18.4389 20.9785 18.4619 20.9184 18.4733C20.8584 18.4847 20.7965 18.4842 20.7366 18.4719C20.6768 18.4596 20.6202 18.4357 20.5703 18.4017C19.9171 18.0236 19.2179 17.7234 18.4883 17.5077C17.7552 17.2728 16.9952 17.123 16.2246 17.0616C16.1659 17.0586 16.1084 17.0445 16.0553 17.0202C16.0023 16.9958 15.9548 16.9618 15.9155 16.9199C15.8762 16.8781 15.846 16.8292 15.8265 16.7762C15.807 16.7232 15.7986 16.667 15.8018 16.6109C15.805 16.5548 15.8197 16.4998 15.8452 16.4491C15.8706 16.3984 15.9062 16.353 15.95 16.3155C15.9938 16.278 16.0449 16.2491 16.1004 16.2304C16.1559 16.2118 16.2147 16.2037 16.2734 16.2068C17.1204 16.2717 17.9559 16.4346 18.7617 16.6921C19.564 16.9292 20.3328 17.2595 21.0508 17.6757H21.0469ZM31.4219 14.3068C29.9727 14.1761 27.8945 14.3292 26.5918 14.8014C25.3808 15.2071 24.3426 15.9815 23.6367 17.0056V28.2526C24.6517 27.5878 25.7485 27.045 26.9023 26.6363C28.3607 26.1899 29.8936 26.0083 31.4219 26.1007V14.3068ZM22.3828 28.1369V16.9888C21.7266 15.882 20.666 15.1429 19.4668 14.7043C18.0996 14.206 16 14.094 14.6699 14.2751L14.5996 26.138C16.0508 26.0876 18.0547 26.2649 19.3887 26.6811C20.4605 27.0132 21.4709 27.5044 22.3828 28.1369Z" fill="white"/>
</svg>
