<svg width="45" height="45" viewBox="0 0 45 45" fill="none" xmlns="http://www.w3.org/2000/svg">
<rect x="0.5" y="0.5" width="44" height="44" rx="22" fill="#CCC47A" stroke="#ECECEC"/>
<g clip-path="url(#clip0_416_197)">
<path d="M33.1712 26.822C33.3183 26.6997 33.4035 26.5183 33.4035 26.3268V25.1486C33.4035 24.9378 33.3003 24.7404 33.1273 24.62L25.0835 19.0256L25.2608 13.9589C25.2613 13.9441 25.2613 13.9295 25.2608 13.9147C25.2031 12.2004 24.5575 11.2497 24.026 10.7542C23.3863 10.1576 22.7012 10 22.4283 10C22.1182 10 21.439 10.22 20.8388 10.8259C20.3283 11.3414 19.723 12.3005 19.7388 13.9426C19.7389 13.9481 19.739 13.9535 19.7392 13.959L19.9165 19.0257L11.8727 24.6201C11.6997 24.7405 11.5964 24.938 11.5964 25.1488V26.3269C11.5964 26.5183 11.6816 26.6997 11.8288 26.8221C11.9759 26.9444 12.1699 26.9949 12.3581 26.96L20.1434 25.5123L20.3219 30.613L17.4987 32.5765C17.3256 32.6969 17.2224 32.8944 17.2224 33.1052V33.6373C17.2224 33.9929 17.5107 34.2812 17.8663 34.2812H20.9218C21.2997 34.7162 21.8396 34.9783 22.4265 34.9987C22.4514 34.9996 22.4763 35 22.501 35C23.1093 35 23.6856 34.7318 24.0799 34.2811H27.1335C27.4891 34.2811 27.7775 33.9928 27.7775 33.6372V33.1051C27.7775 32.8943 27.6743 32.6968 27.5012 32.5764L24.6779 30.6129L24.8564 25.5122L32.6418 26.96C32.83 26.9948 33.024 26.9444 33.1712 26.822ZM32.1156 25.5522L24.3568 24.1094C24.1725 24.0752 23.9824 24.1229 23.8363 24.2402C23.69 24.3574 23.6021 24.5326 23.5956 24.72L23.3788 30.9186C23.3711 31.1373 23.4749 31.3449 23.6546 31.4697L25.8451 32.9933H23.7539C23.5254 32.9933 23.314 33.1143 23.1984 33.3114C23.0536 33.5586 22.7863 33.7122 22.501 33.7122C22.4913 33.7122 22.4815 33.712 22.4716 33.7116C22.1955 33.7019 21.9457 33.552 21.8035 33.3105C21.6877 33.1139 21.4767 32.9933 21.2486 32.9933H19.1548L21.3454 31.4697C21.525 31.3449 21.6289 31.1372 21.6212 30.9186L21.4044 24.72C21.3978 24.5326 21.3099 24.3574 21.1637 24.2402C21.0175 24.1229 20.8274 24.0752 20.6431 24.1094L12.8843 25.5522V25.4851L20.94 19.8825C21.1196 19.7575 21.2234 19.5499 21.2158 19.3313L21.0266 13.9222C21.0096 11.838 22.218 11.3635 22.4409 11.2945C22.6753 11.3496 23.8913 11.7424 23.9729 13.9365L23.7841 19.3314C23.7765 19.55 23.8803 19.7576 24.0599 19.8825L32.1156 25.4852V25.5522Z" fill="white"/>
</g>
<defs>
<clipPath id="clip0_416_197">
<rect width="25" height="25" fill="white" transform="translate(10 10)"/>
</clipPath>
</defs>
</svg>
