<svg width="45" height="45" viewBox="0 0 45 45" fill="none" xmlns="http://www.w3.org/2000/svg">
<rect x="0.5" y="0.5" width="44" height="44" rx="22" fill="#699AB3" stroke="#ECECEC"/>
<g clip-path="url(#clip0_416_198)">
<path d="M19.592 10.9326C19.3802 9.75282 17.7182 9.06415 15.8801 9.39427C14.4896 9.64403 12.8356 11.2028 12.1124 11.9472C11.9228 12.1424 11.981 12.467 12.2268 12.584C13.1639 13.0304 15.2569 13.9161 16.6474 13.6664C18.4855 13.3363 19.8039 12.1122 19.592 10.9326Z" fill="white"/>
<path d="M20.0726 26.7458C19.5861 25.3643 19.6458 23.8797 20.2408 22.5655C20.8467 21.227 21.9319 20.2252 23.2965 19.7447C23.5739 19.647 23.8626 19.5734 24.1606 19.5238C23.9504 18.8376 23.8407 18.1193 23.8407 17.391C23.8407 15.6449 22.6854 14.169 21.0977 13.6846C21.4814 13.018 22.2702 11.8663 23.4311 11.2307C23.6344 11.1194 23.7259 10.8757 23.6452 10.6584L23.1624 9.35726C23.0598 9.0807 22.7291 8.96683 22.4775 9.12249C21.6513 9.63377 20.065 10.9386 19.8118 13.52C17.7433 13.6011 16.0911 15.3026 16.0911 17.3909C16.0911 19.1017 15.4927 20.748 14.3971 22.0618C13.349 23.3187 12.7185 24.9357 12.7185 26.7002C12.7185 30.7028 15.9633 33.9475 19.9659 33.9475C21.179 33.9475 22.3222 33.649 23.3269 33.1221C22.9749 32.6802 22.6296 32.1785 22.2937 31.6194C21.2856 29.942 20.5295 28.0432 20.0726 26.7458Z" fill="white"/>
<path d="M33.2707 21.0677C32.5275 21.0677 31.7555 21.2565 31.0706 21.6006C30.8079 21.7326 30.5349 21.8352 30.2561 21.9086C30.5842 21.3263 31.2973 20.2534 32.3636 19.6696C32.5444 19.5706 32.6257 19.3539 32.554 19.1606L32.1245 18.0032C32.0331 17.7567 31.7386 17.6562 31.5153 17.7944C30.745 18.2711 29.2324 19.5238 29.1206 22.0466C28.4949 22.0371 27.8708 21.8884 27.2964 21.6001C26.6119 21.2564 25.8401 21.0678 25.0976 21.0678C22.3521 21.0677 20.74 23.7642 21.6005 26.2079C22.2648 28.0947 24.5144 33.9478 27.5184 33.9478C27.7596 33.9478 28.0053 33.9101 28.2559 33.8296C28.6471 33.7038 28.952 33.3089 29.1841 32.7418C29.4163 33.3089 29.7212 33.7038 30.1124 33.8296C30.3628 33.91 30.6088 33.9478 30.8499 33.9478C33.8542 33.9478 36.1033 28.0948 36.7678 26.2079C37.6277 23.7659 36.0182 21.0677 33.2707 21.0677Z" fill="white"/>
</g>
<defs>
<clipPath id="clip0_416_198">
<rect width="25" height="25" fill="white" transform="translate(12 9)"/>
</clipPath>
</defs>
</svg>
