<svg width="45" height="45" viewBox="0 0 45 45" fill="none" xmlns="http://www.w3.org/2000/svg">
<rect x="0.5" y="0.5" width="44" height="44" rx="22" fill="#987B59" stroke="#ECECEC"/>
<path d="M32.9965 16.0534C32.7258 15.8499 32.3752 15.786 32.0502 15.8809C31.4539 16.0549 30.8456 16.1431 30.2422 16.1431C28.5098 16.1431 26.7943 15.6356 25.5355 14.7507C24.424 13.9694 23.7865 12.9938 23.7865 12.074C23.7865 11.4809 23.3056 11 22.7125 11C22.1193 11 21.6384 11.4809 21.6384 12.074C21.6384 12.9938 21.001 13.9694 19.8896 14.7508C18.6308 15.6356 16.9153 16.1431 15.183 16.1431C14.5795 16.1431 13.9712 16.0549 13.3749 15.8809C13.0498 15.786 12.6992 15.85 12.4286 16.0534C12.158 16.2569 11.9992 16.5761 12 16.9146C12.0145 22.6264 14.5249 27.1206 16.0199 29.2911C17.0656 30.8092 18.2366 32.1187 19.4064 33.0781C20.269 33.7856 21.5429 34.6289 22.7125 34.6289C23.8821 34.6289 25.1559 33.7856 26.0186 33.0781C27.1884 32.1187 28.3594 30.8092 29.4051 29.2911C30.9002 27.1206 33.4105 22.6264 33.425 16.9146C33.4259 16.5761 33.2671 16.2569 32.9965 16.0534ZM27.636 28.0726C25.4903 31.1877 23.3705 32.4808 22.7125 32.4808C22.0545 32.4808 19.9347 31.1877 17.7889 28.0727C16.5534 26.279 14.5526 22.7387 14.2014 18.2337C14.5281 18.272 14.8557 18.2912 15.1829 18.2912C17.3789 18.2912 19.4891 17.658 21.1248 16.5081C21.7602 16.0615 22.2939 15.5544 22.7125 15.0093C23.1312 15.5545 23.6647 16.0615 24.3001 16.5081C25.9358 17.658 28.0461 18.2912 30.2421 18.2912C30.5692 18.2912 30.8968 18.272 31.2235 18.2337C30.8724 22.7387 28.8715 26.279 27.636 28.0726Z" fill="white"/>
<path d="M22.7126 23.0456C24.1605 23.0456 25.3343 21.8718 25.3343 20.4239C25.3343 18.9759 24.1605 17.8021 22.7126 17.8021C21.2646 17.8021 20.0908 18.9759 20.0908 20.4239C20.0908 21.8718 21.2646 23.0456 22.7126 23.0456Z" fill="white"/>
<path d="M22.7125 23.0457C20.4603 23.0457 18.6344 24.8714 18.6344 27.1239H26.7907C26.7907 24.8714 24.9648 23.0457 22.7125 23.0457Z" fill="white"/>
</svg>
