<svg width="19" height="19" viewBox="0 0 19 19" fill="none" xmlns="http://www.w3.org/2000/svg">
<g clip-path="url(#clip0_48_162)">
<path d="M13.0221 10.4307V3.63662C13.0221 3.16835 12.6411 2.78735 12.1728 2.78735H0.849265C0.381001 2.78735 0 3.16835 0 3.63662V10.4307C0 10.899 0.381001 11.28 0.849265 11.28H12.1728C12.6411 11.28 13.0221 10.899 13.0221 10.4307ZM0.566176 10.4307V3.63662C0.566176 3.48053 0.693177 3.35353 0.849265 3.35353H12.1728C12.3289 3.35353 12.4559 3.48053 12.4559 3.63662V10.4307C12.4559 10.5868 12.3289 10.7138 12.1728 10.7138H0.849265C0.693177 10.7138 0.566176 10.5868 0.566176 10.4307Z" fill="black"/>
<path d="M17.2685 6.79419H13.8714C13.7151 6.79419 13.5884 6.92094 13.5884 7.07728C13.5884 7.23361 13.7151 7.36037 13.8714 7.36037H17.2685C17.4246 7.36037 17.5516 7.48737 17.5516 7.64345V9.0589H13.8714C13.7151 9.0589 13.5884 9.18565 13.5884 9.34198C13.5884 9.49832 13.7151 9.62507 13.8714 9.62507H17.5516V14.4376C17.5516 14.5937 17.4246 14.7207 17.2685 14.7207H5.94497C5.78888 14.7207 5.66188 14.5937 5.66188 14.4376V12.1729C5.66188 12.0165 5.53513 11.8898 5.37879 11.8898C5.22246 11.8898 5.0957 12.0165 5.0957 12.1729V14.4376C5.0957 14.9058 5.4767 15.2868 5.94497 15.2868H17.2685C17.7368 15.2868 18.1178 14.9058 18.1178 14.4376V7.64345C18.1178 7.17519 17.7368 6.79419 17.2685 6.79419Z" fill="black"/>
<path d="M5.94487 8.77576H4.52943C4.37309 8.77576 4.24634 8.90251 4.24634 9.05885C4.24634 9.21518 4.37309 9.34193 4.52943 9.34193H5.94487C6.1012 9.34193 6.22796 9.21518 6.22796 9.05885C6.22796 8.90251 6.1012 8.77576 5.94487 8.77576Z" fill="black"/>
<path d="M3.39702 8.77576H1.98157C1.82524 8.77576 1.69849 8.90251 1.69849 9.05885C1.69849 9.21518 1.82524 9.34193 1.98157 9.34193H3.39702C3.55335 9.34193 3.6801 9.21518 3.6801 9.05885C3.6801 8.90251 3.55335 8.77576 3.39702 8.77576Z" fill="black"/>
<path d="M11.0403 8.77576H9.62489C9.46855 8.77576 9.3418 8.90251 9.3418 9.05885C9.3418 9.21518 9.46855 9.34193 9.62489 9.34193H11.0403C11.1967 9.34193 11.3234 9.21518 11.3234 9.05885C11.3234 8.90251 11.1967 8.77576 11.0403 8.77576Z" fill="black"/>
<path d="M8.49272 8.77576H7.07728C6.92094 8.77576 6.79419 8.90251 6.79419 9.05885C6.79419 9.21518 6.92094 9.34193 7.07728 9.34193H8.49272C8.64905 9.34193 8.77581 9.21518 8.77581 9.05885C8.77581 8.90251 8.64905 8.77576 8.49272 8.77576Z" fill="black"/>
<path d="M3.11406 4.24634H2.26479C1.79649 4.24634 1.41553 4.62734 1.41553 5.0956V5.37869C1.41553 5.84695 1.79649 6.22796 2.26479 6.22796H3.11406C3.58236 6.22796 3.96332 5.84695 3.96332 5.37869V5.0956C3.96332 4.62734 3.58236 4.24634 3.11406 4.24634ZM3.39715 5.37869C3.39715 5.53478 3.27014 5.66178 3.11406 5.66178H2.26479C2.1087 5.66178 1.9817 5.53478 1.9817 5.37869V5.0956C1.9817 4.93951 2.1087 4.81251 2.26479 4.81251H3.11406C3.27014 4.81251 3.39715 4.93951 3.39715 5.0956V5.37869Z" fill="black"/>
<path d="M10.4742 4.24634C10.1362 4.24634 9.83257 4.39535 9.62493 4.63091C9.41728 4.39535 9.11364 4.24634 8.77566 4.24634C8.15128 4.24634 7.64331 4.7543 7.64331 5.37869C7.64331 6.00308 8.15128 6.51104 8.77566 6.51104C9.11364 6.51104 9.41728 6.36203 9.62493 6.12647C9.83257 6.36203 10.1362 6.51104 10.4742 6.51104C11.0986 6.51104 11.6065 6.00308 11.6065 5.37869C11.6065 4.7543 11.0986 4.24634 10.4742 4.24634ZM8.77566 5.94487C8.46349 5.94487 8.20949 5.69087 8.20949 5.37869C8.20949 5.06652 8.46349 4.81251 8.77566 4.81251C9.08784 4.81251 9.34184 5.06652 9.34184 5.37869C9.34184 5.69087 9.08784 5.94487 8.77566 5.94487ZM10.4742 5.94487C10.162 5.94487 9.90802 5.69087 9.90802 5.37869C9.90802 5.06652 10.162 4.81251 10.4742 4.81251C10.7864 4.81251 11.0404 5.06652 11.0404 5.37869C11.0404 5.69087 10.7864 5.94487 10.4742 5.94487Z" fill="black"/>
<path d="M13.8712 8.49269H16.9852C17.1415 8.49269 17.2683 8.36594 17.2683 8.2096C17.2683 8.05327 17.1415 7.92651 16.9852 7.92651H13.8712C13.7149 7.92651 13.5881 8.05327 13.5881 8.2096C13.5881 8.36594 13.7149 8.49269 13.8712 8.49269Z" fill="black"/>
<path d="M16.1361 11.8898H10.7575C10.6011 11.8898 10.4744 12.0165 10.4744 12.1729C10.4744 12.3292 10.6011 12.4559 10.7575 12.4559H16.1361C16.2925 12.4559 16.4192 12.3292 16.4192 12.1729C16.4192 12.0165 16.2925 11.8898 16.1361 11.8898Z" fill="black"/>
<path d="M16.136 13.0221H12.7389C12.5826 13.0221 12.4558 13.1488 12.4558 13.3052C12.4558 13.4615 12.5826 13.5883 12.7389 13.5883H16.136C16.2923 13.5883 16.419 13.4615 16.419 13.3052C16.419 13.1488 16.2923 13.0221 16.136 13.0221Z" fill="black"/>
</g>
<defs>
<clipPath id="clip0_48_162">
<rect width="18.1176" height="18.1176" fill="white"/>
</clipPath>
</defs>
</svg>
