<svg width="18" height="18" viewBox="0 0 18 18" fill="none" xmlns="http://www.w3.org/2000/svg">
<path d="M8.19498 0.0342082C6.22446 0.285283 4.58062 1.83286 4.2058 3.78955C3.72089 6.32059 5.37838 8.7622 7.93008 9.27117C8.34279 9.35378 9.25064 9.35378 9.66335 9.27117C11.5617 8.89294 13.0162 7.43822 13.3946 5.53989C13.4771 5.12718 13.4771 4.21932 13.3946 3.80661C13.0852 2.26245 12.0604 0.993608 10.6228 0.37113C9.88695 0.0548618 9.00657 -0.0654674 8.19498 0.0342082ZM9.07195 1.81903V2.19726H9.17503C9.43293 2.19726 10.0863 2.41044 10.0588 2.48605C10.052 2.5067 10.0107 2.62703 9.96597 2.75095L9.88695 2.98137L9.70125 2.89535C9.07194 2.60656 8.38068 2.69581 8.17774 3.09146C8.0883 3.27034 8.0883 3.53165 8.17774 3.71394C8.274 3.89964 8.45288 4.01997 9.03405 4.29853C9.30919 4.42927 9.61181 4.59773 9.70807 4.66993C10.5024 5.26834 10.3753 6.52012 9.47424 6.94648C9.35732 7.00144 9.20952 7.05658 9.15097 7.06681L9.03746 7.08747V7.49676V7.90588H8.77956H8.52166V7.51724V7.12859L8.2397 7.0907C7.94391 7.04939 7.65512 6.95654 7.46941 6.84304L7.35932 6.77766L7.44876 6.52318C7.49689 6.38561 7.5382 6.26869 7.5382 6.26528C7.54161 6.26187 7.64829 6.31 7.77544 6.37196C8.35662 6.65733 9.0204 6.64369 9.34367 6.34789C9.47083 6.22756 9.55344 6.02121 9.55344 5.79761C9.55344 5.3849 9.36774 5.19579 8.58021 4.81415C8.20881 4.63186 7.96456 4.48746 7.84423 4.38078C7.32502 3.91994 7.29736 3.12559 7.78568 2.62344C7.94049 2.46521 8.274 2.28292 8.48036 2.24521L8.59045 2.22456V1.8325V1.44044H8.83111H9.07177V1.81903H9.07195Z" fill="black"/>
<path d="M0.0858719 8.46994C0.0343279 8.6041 -0.0138037 9.41569 0.0032579 9.84888C0.0618061 11.2314 0.467513 12.3077 1.24121 13.1227C1.58172 13.4803 2.12841 13.9309 3.19108 14.7321C4.52188 15.7362 5.0138 16.2452 5.26469 16.8815C5.33689 17.0638 5.42633 17.4454 5.42633 17.5762C5.42633 17.5934 5.89058 17.6036 6.45451 17.6036H7.48629L7.55849 17.4041C8.07429 16.0354 7.81297 14.6874 6.83974 13.7175C6.69535 13.5732 6.27581 13.2395 5.90782 12.9713C4.70759 12.1012 3.66557 11.2244 3.20132 10.6914C3.07398 10.5504 2.94683 10.423 2.90894 10.4094C2.78178 10.3579 2.41379 10.3406 2.27622 10.3785C1.88758 10.4816 1.9014 10.8325 2.32094 11.5238C2.59267 11.9742 2.90894 12.3697 3.33548 12.7962C3.55548 13.0198 3.73436 13.2021 3.72753 13.2021C3.72071 13.2021 3.59337 13.1608 3.44557 13.1127C2.67528 12.8548 1.98743 12.3664 1.62644 11.8266C1.34448 11.4036 1.21032 10.953 1.07616 10.004C0.976666 9.2986 0.935359 9.10266 0.849333 8.9342C0.759894 8.75891 0.546714 8.58004 0.323118 8.49401C0.0928761 8.40798 0.106525 8.4114 0.0858719 8.46994Z" fill="black"/>
<path d="M17.2393 8.50759C16.806 8.68647 16.6547 8.96502 16.5515 9.79727C16.438 10.7017 16.2763 11.3104 16.0323 11.7265C15.7744 12.1633 15.2825 12.5896 14.6945 12.882C14.4227 13.0196 13.8897 13.2155 13.8622 13.188C13.8554 13.1812 13.9378 13.0986 14.0445 13.0092C14.5294 12.5964 15.2173 11.7024 15.4716 11.1556C15.623 10.8323 15.6332 10.5846 15.4956 10.4677C15.3719 10.361 15.1415 10.3301 14.8629 10.3748C14.6532 10.4092 14.6291 10.423 14.4811 10.5949C13.9412 11.2139 12.9542 12.0496 11.6165 13.0194C10.7189 13.6728 10.3682 14.0544 10.0656 14.6975C9.69075 15.4989 9.67692 16.4549 10.0347 17.4075L10.1069 17.6034H11.1316H12.1566L12.1979 17.3557C12.2908 16.7952 12.5865 16.2897 13.1366 15.76C13.3396 15.5675 13.9103 15.1032 14.4538 14.6905C15.936 13.5763 16.4071 13.1465 16.7957 12.5618C17.4216 11.6232 17.7036 10.2752 17.566 8.89965C17.5281 8.52142 17.5076 8.42157 17.4698 8.42157C17.4559 8.42175 17.3528 8.45946 17.2393 8.50759Z" fill="black"/>
</svg>
