<svg width="45" height="45" viewBox="0 0 45 45" fill="none" xmlns="http://www.w3.org/2000/svg">
<rect x="0.5" y="0.5" width="44" height="44" rx="22" fill="#618E6B" stroke="#ECECEC"/>
<path d="M26.0719 12H16.0686V13.8139H26.0719V12Z" fill="white"/>
<path d="M29.1429 20.4498C29.1429 20.4498 25.4073 25.4245 25.4073 28.8996C25.4073 30.9425 27.082 32.5992 29.1429 32.5992C31.2037 32.5992 32.7751 30.9425 32.8784 28.8996C33.04 25.7253 29.1429 20.4498 29.1429 20.4498Z" fill="white"/>
<path d="M24.3253 14.7074H17.8286V15.8433H24.3253V14.7074Z" fill="white"/>
<path d="M24.5004 28.8996C24.5004 26.5605 25.9865 23.678 27.1359 21.8282V20.1356C27.1359 19.9245 27.0641 19.736 26.9429 19.5788L24.671 16.7323H17.4649L15.1931 19.5788C15.0718 19.736 15 19.929 15 20.1356V33.0392C15 33.569 15.431 34.0001 15.9608 34.0001H26.1751C26.7049 34.0001 27.1359 33.569 27.1359 33.0392C25.5824 32.2894 24.5004 30.718 24.5004 28.8996Z" fill="white"/>
</svg>
