<svg width="45" height="45" viewBox="0 0 45 45" fill="none" xmlns="http://www.w3.org/2000/svg">
<rect x="0.5" y="0.5" width="44" height="44" rx="22" fill="#76AEAE" stroke="#ECECEC"/>
<path d="M16.0417 26.0326C16.249 26.1354 16.502 26.0525 16.6069 25.8447C16.7123 25.6374 16.6289 25.3831 16.422 25.2765C16.3607 25.2448 14.9121 24.4748 14.5326 22.1995C14.5017 22.0125 14.3498 21.8691 14.1607 21.8488C13.9673 21.8272 13.7931 21.9363 13.7224 22.1119C12.8043 24.408 14.5355 27.0467 14.6095 27.158C14.6907 27.2802 14.8253 27.3462 14.9615 27.3462C15.0419 27.3462 15.1236 27.323 15.1959 27.2751C15.3901 27.1457 15.443 26.8834 15.314 26.6888C15.3034 26.6727 14.5871 25.5773 14.3662 24.2874C15.0623 25.5283 15.9871 26.0051 16.0417 26.0326Z" fill="white"/>
<path d="M18.006 26.9145C18.2349 26.8688 18.3838 26.6458 18.3382 26.417C18.292 26.1881 18.0716 26.0392 17.8402 26.0853C16.9911 26.2549 15.3846 27.1793 15.3846 29.4614C15.3846 31.1173 15.7315 32.266 15.9994 32.9049C15.0732 33.0847 14.5385 33.6672 14.5385 34.5383C14.5385 35.519 15.4282 36.2306 16.6539 36.2306H17.0769C17.7784 36.2306 18.2099 35.7047 18.2565 35.6451C18.4003 35.4611 18.3677 35.195 18.1833 35.0511C17.9992 34.9068 17.7331 34.9402 17.5897 35.1239C17.5876 35.1269 17.3727 35.3845 17.077 35.3845H16.6539C16.0231 35.3845 15.3846 35.0939 15.3846 34.5383C15.3846 34.3289 15.3846 33.6922 16.6539 33.6922C16.8091 33.6922 16.9513 33.6063 17.0253 33.4696C17.0993 33.333 17.0917 33.1663 17.0071 33.0364C16.9991 33.0241 16.2307 31.8188 16.2307 29.4614C16.2308 27.316 17.9358 26.9297 18.006 26.9145Z" fill="white"/>
<path d="M30.0007 32.9049C30.2685 32.2661 30.6154 31.1174 30.6154 29.4615C30.6154 27.1794 29.009 26.255 28.1599 26.0853C27.9306 26.04 27.708 26.1877 27.6619 26.417C27.6162 26.6459 27.7652 26.8689 27.9941 26.9145C28.0668 26.9293 29.7693 27.2949 29.7693 29.4615C29.7693 31.8188 29.001 33.0242 28.9942 33.0343C28.9079 33.1642 28.8995 33.3313 28.9731 33.4688C29.0467 33.6063 29.1901 33.6922 29.3462 33.6922C30.6154 33.6922 30.6154 34.329 30.6154 34.5384C30.6154 35.0939 29.977 35.3846 29.3462 35.3846H28.9231C28.6312 35.3846 28.4163 35.1312 28.4078 35.121C28.2635 34.9404 28 34.9082 27.8168 35.0512C27.6323 35.195 27.5997 35.4612 27.7436 35.6452C27.7901 35.7049 28.2217 36.2308 28.9231 36.2308H29.3462C30.5723 36.2308 31.4616 35.5191 31.4616 34.5385C31.4616 33.6673 30.9268 33.0847 30.0007 32.9049Z" fill="white"/>
<path d="M25.6095 32.8783L26.3787 28.2622C26.4171 28.0316 26.2615 27.8137 26.0309 27.7752C25.7995 27.7371 25.5825 27.8924 25.5444 28.1225L24.757 32.8462H24.6923C24.4583 32.8462 24.2692 33.0357 24.2692 33.2693C24.2692 33.5028 24.4583 33.6923 24.6923 33.6923H25.1153C26.3846 33.6923 26.3846 34.3291 26.3846 34.5385C26.3846 35.094 25.7461 35.3847 25.1153 35.3847H24.6923C23.9925 35.3847 23.423 34.8152 23.423 34.1154V28.1923C23.423 27.9588 23.2339 27.7693 23 27.7693C22.766 27.7693 22.5769 27.9588 22.5769 28.1923V34.1154C22.5769 34.8152 22.0075 35.3847 21.3077 35.3847H20.8846C20.2538 35.3847 19.6154 35.094 19.6154 34.5385C19.6154 34.3291 19.6154 33.6923 20.8846 33.6923H21.3077C21.5417 33.6923 21.7308 33.5028 21.7308 33.2693C21.7308 33.0357 21.5417 32.8462 21.3077 32.8462H21.2429L20.4556 28.1225C20.418 27.8924 20.2001 27.7371 19.9691 27.7752C19.7385 27.8137 19.5828 28.0316 19.6214 28.2622L20.3905 32.8783C19.3658 33.0201 18.7693 33.6183 18.7693 34.5385C18.7693 35.5192 19.659 36.2308 20.8847 36.2308H21.3077C21.999 36.2308 22.6138 35.8974 23 35.3834C23.3862 35.8974 24.0009 36.2308 24.6922 36.2308H25.1153C26.3414 36.2308 27.2307 35.5192 27.2307 34.5385C27.2307 33.6183 26.6341 33.0201 25.6095 32.8783Z" fill="white"/>
<path d="M33.5321 14.4648C32.6022 12.6045 30.362 10.8462 28.9231 10.8462C28.1061 10.8462 26.7002 12.1129 25.9941 12.8033C25.178 12.104 24.1846 11.6924 23 11.6924C21.8154 11.6924 20.822 12.104 20.0059 12.8034C19.2998 12.1129 17.8939 10.8462 17.0769 10.8462C15.638 10.8462 13.3978 12.6045 12.4679 14.4648C12.1879 15.0241 12 15.7801 12 16.3462C12 17.5126 12.9489 18.4616 14.1154 18.4616C15.1667 18.4616 15.6372 17.7703 16.0146 17.2148C16.0607 17.1475 16.1064 17.0798 16.1597 17.0041L17.852 14.4656C17.9819 14.271 17.9294 14.0083 17.7348 13.8788C17.5393 13.7485 17.2774 13.8014 17.148 13.996L15.462 16.5251C15.4121 16.5958 15.3635 16.6673 15.3148 16.7388C14.9344 17.2989 14.6907 17.6154 14.1153 17.6154C13.4156 17.6154 12.8461 17.0459 12.8461 16.3462C12.8461 15.9066 13.0018 15.2885 13.2248 14.843C14.0582 13.1756 16.0733 11.6923 17.0769 11.6923C17.4378 11.6923 18.5119 12.5325 19.4076 13.4032C17.8181 15.2513 17.0769 18.3452 17.0769 21.4231C17.0769 25.3293 18.7929 26.9231 23 26.9231C27.207 26.9231 28.923 25.3293 28.923 21.4231C28.923 18.3448 28.1818 15.2513 26.5923 13.4032C27.488 12.5325 28.5618 11.6923 28.923 11.6923C29.9266 11.6923 31.9417 13.1756 32.7756 14.843C32.9982 15.2885 33.1538 15.9066 33.1538 16.3462C33.1538 17.0459 32.5844 17.6154 31.8846 17.6154C31.2885 17.6154 31.0533 17.3023 30.6564 16.7028L28.852 13.996C28.7225 13.8014 28.4598 13.7485 28.2652 13.8788C28.0706 14.0083 28.0181 14.271 28.148 14.4656L29.9507 17.1699C30.3518 17.7753 30.8058 18.4616 31.8846 18.4616C33.051 18.4616 34 17.5126 34 16.3462C34 15.7801 33.8121 15.0241 33.5321 14.4648ZM28.0769 21.4231C28.0769 24.8593 26.748 26.0769 23 26.0769C19.252 26.0769 17.9231 24.8593 17.9231 21.4231C17.9231 17.0007 19.4931 12.5385 23 12.5385C26.5069 12.5385 28.0769 17.0007 28.0769 21.4231Z" fill="white"/>
<path d="M25.1623 23.3446C25.09 23.4855 24.8074 23.5366 24.6922 23.5383C24.1968 23.5383 23.6849 23.1165 23.5 22.6317C24.1955 22.4743 24.6922 22.0025 24.6922 21.4229C24.6922 20.7113 23.9489 20.1537 22.9999 20.1537C22.051 20.1537 21.3077 20.7113 21.3077 21.4229C21.3077 22.0025 21.8043 22.4742 22.4999 22.6317C22.3154 23.1165 21.8035 23.5383 21.3106 23.5383C21.1892 23.5366 20.9125 23.4854 20.8351 23.3399C20.7255 23.1334 20.4695 23.0552 20.2631 23.1647C20.0566 23.2743 19.9779 23.5303 20.0879 23.7367C20.4221 24.3663 21.218 24.3845 21.3077 24.3845C21.9647 24.3845 22.6001 24.0092 22.9999 23.4723C23.3998 24.0092 24.0352 24.3845 24.6922 24.3845C24.7828 24.3845 25.5875 24.3659 25.9145 23.7321C26.0216 23.5244 25.9399 23.2693 25.7322 23.1623C25.5244 23.0552 25.2697 23.1364 25.1623 23.3446ZM22.9999 21.846C22.4914 21.846 22.1538 21.5913 22.1538 21.423C22.1538 21.2546 22.4914 20.9999 22.9999 20.9999C23.5165 20.9999 23.8461 21.2504 23.8461 21.423C23.8461 21.5956 23.5165 21.846 22.9999 21.846Z" fill="white"/>
<path d="M24.9039 18.4615C25.2538 18.4615 25.5385 18.1768 25.5385 17.8269C25.5385 17.477 25.2538 17.1923 24.9039 17.1923C24.554 17.1923 24.2693 17.477 24.2693 17.8269C24.2693 18.1768 24.554 18.4615 24.9039 18.4615Z" fill="white"/>
<path d="M21.0962 18.4615C21.446 18.4615 21.7308 18.1768 21.7308 17.8269C21.7308 17.477 21.446 17.1923 21.0962 17.1923C20.7463 17.1923 20.4615 17.477 20.4615 17.8269C20.4615 18.1768 20.7463 18.4615 21.0962 18.4615Z" fill="white"/>
</svg>
