<svg width="120" height="120" viewBox="0 0 800 800" fill="none" xmlns="http://www.w3.org/2000/svg">
<path d="M400 800C620.914 800 800 620.914 800 400C800 179.086 620.914 0 400 0C179.086 0 0 179.086 0 400C0 620.914 179.086 800 400 800Z" fill="#CF4F6D"/>
<path d="M225.104 597.344L426.845 799.084C625.843 785.894 785.034 627.195 798.985 428.404L529.81 159.23L225.104 597.344Z" fill="#773242"/>
<path d="M680.358 357.576H654.448C634.29 304.094 590.529 259.329 533.331 231.758V157.576C533.331 157.576 483.852 151.916 456.98 207.122C438.621 203.793 419.561 202.02 400 202.02C297.325 202.02 208.218 250.387 163.655 321.261C160.205 320.013 157.244 318.198 154.777 315.758C145.516 306.61 145.452 291.464 145.454 291.081C145.549 284.418 140.242 278.92 133.573 278.791C126.817 278.607 121.349 283.976 121.215 290.669C121.161 293.261 121.182 316.453 137.53 332.8C141.705 336.978 146.529 340.213 151.903 342.615C139.919 367.884 133.333 395.421 133.333 424.242C133.333 490.053 167.674 549.172 222.222 589.861V664.87C222.222 679.251 233.88 690.909 248.261 690.909H285.075C299.456 690.909 311.114 679.251 311.114 664.87V633.802C338.92 641.993 368.832 646.465 400.003 646.465C431.173 646.465 461.085 641.993 488.892 633.802V664.87C488.892 679.251 500.549 690.909 514.931 690.909H551.744C566.125 690.909 577.783 679.251 577.783 664.87V589.861C613.08 563.531 639.914 529.492 654.457 490.909H680.366C697.349 490.909 711.119 477.142 711.119 460.156V388.326C711.111 371.343 697.344 357.576 680.358 357.576Z" fill="#F8A9AC"/>
<path d="M555.555 379.798C567.828 379.798 577.778 369.849 577.778 357.576C577.778 345.303 567.828 335.354 555.555 335.354C543.282 335.354 533.333 345.303 533.333 357.576C533.333 369.849 543.282 379.798 555.555 379.798Z" fill="#595155"/>
<path d="M429.63 266.667H354.209C347.515 266.667 342.088 261.239 342.088 254.545C342.088 247.852 347.515 242.424 354.209 242.424H429.63C436.323 242.424 441.751 247.852 441.751 254.545C441.751 261.239 436.323 266.667 429.63 266.667Z" fill="white"/>
<path d="M400 181.818C437.935 181.818 468.687 151.066 468.687 113.131C468.687 75.1966 437.935 44.4445 400 44.4445C362.065 44.4445 331.313 75.1966 331.313 113.131C331.313 151.066 362.065 181.818 400 181.818Z" fill="#FFCD02"/>
<path d="M400 164.646C428.451 164.646 451.515 141.582 451.515 113.131C451.515 84.6803 428.451 61.6161 400 61.6161C371.549 61.6161 348.485 84.6803 348.485 113.131C348.485 141.582 371.549 164.646 400 164.646Z" fill="#F9B65F"/>
</svg>
