<svg width="45" height="45" viewBox="0 0 45 45" fill="none" xmlns="http://www.w3.org/2000/svg">
<rect x="0.5" y="0.5" width="44" height="44" rx="22" fill="#C48BA0" stroke="#ECECEC"/>
<path d="M35.8035 21.48L23.2029 11.1816C22.7936 10.8472 22.2058 10.8472 21.7968 11.1816L18.5693 13.8199V12.4505C18.5693 12.1548 18.3299 11.9158 18.0342 11.9158H14.9283C14.6326 11.9158 14.3932 12.155 14.3932 12.4505V17.2329L9.1964 21.48C8.9674 21.6667 8.93406 22.004 9.12066 22.2327C9.22662 22.3619 9.38067 22.4297 9.53604 22.4297C9.65504 22.4297 9.77442 22.3898 9.87397 22.3091L12.5716 20.1038V33.5342C12.5716 33.8297 12.811 34.0692 13.1061 34.0692H31.8939C32.1892 34.0692 32.4291 33.8298 32.4291 33.5342V20.1041L35.1267 22.3094C35.2261 22.3904 35.3459 22.43 35.4645 22.43C35.6194 22.43 35.7734 22.3621 35.8794 22.233C36.0659 22.004 36.0325 21.6671 35.8035 21.48ZM15.4632 12.9852H17.4988V14.6942L15.4632 16.3581V12.9852ZM31.3592 32.999H13.641V19.2295L22.0419 12.3633C22.3085 12.1454 22.6912 12.1454 22.9579 12.3633L31.3592 19.2295V32.999Z" fill="white"/>
</svg>
