<svg width="45" height="45" viewBox="0 0 45 45" fill="none" xmlns="http://www.w3.org/2000/svg">
<rect x="0.5" y="0.5" width="44" height="44" rx="22" fill="#717CA5" stroke="#ECECEC"/>
<path d="M23.0886 19.0864C22.8854 19.2897 22.8854 19.6191 23.0887 19.8224C23.2919 20.0256 23.6214 20.0256 23.8246 19.8223L24.2542 19.3924C24.4088 19.2378 24.4503 19.0032 24.358 18.8049C24.0713 18.1888 23.9259 17.5514 23.9259 16.9104C23.9259 15.6053 24.494 14.3762 25.4522 13.5269L25.4539 16.9333C25.4539 17.104 25.5377 17.2638 25.678 17.3609L28.1469 19.0705C28.325 19.1939 28.561 19.194 28.7392 19.0706L31.209 17.3619C31.3495 17.2647 31.4334 17.1048 31.4334 16.9339L31.433 13.5277C32.3911 14.3762 32.9593 15.6044 32.9596 16.9083C32.9596 18.115 32.4897 19.2496 31.6365 20.103C30.784 20.9557 29.6508 21.4251 28.4454 21.4251C28.4442 21.4251 28.443 21.4251 28.4418 21.4251C28.027 21.4248 27.2128 21.224 26.934 21.1466C26.7533 21.0963 26.5594 21.1474 26.4268 21.28L24.8448 22.8621C24.6416 23.0653 24.6416 23.3948 24.8448 23.598C24.9464 23.6996 25.0796 23.7504 25.2127 23.7504C25.3459 23.7504 25.4791 23.6996 25.5807 23.598L26.952 22.2266C27.3343 22.3212 27.9915 22.4655 28.441 22.4659C28.4425 22.4659 28.4438 22.4659 28.4454 22.4659C29.9287 22.4658 31.3234 21.888 32.3724 20.8388C33.4221 19.7889 34.0002 18.393 34.0002 16.9082C33.9997 14.9082 32.9146 13.0536 31.1682 12.0681C31.0071 11.9772 30.8098 11.9786 30.65 12.0719C30.4903 12.1652 30.392 12.3363 30.3921 12.5213L30.3925 16.6612L28.4432 18.0098L26.4945 16.6603L26.4925 12.5201C26.4924 12.3351 26.3941 12.1641 26.2344 12.0709C26.0746 11.9776 25.8773 11.9763 25.7162 12.0673C23.97 13.0537 22.8853 14.9095 22.8853 16.9103C22.8853 17.5862 23.0143 18.2557 23.2694 18.9056L23.0886 19.0864Z" fill="white"/>
<path d="M21.7107 25.9964L14.492 33.2153C14.2207 33.4867 13.8601 33.6363 13.4766 33.6366C13.4763 33.6366 13.4761 33.6366 13.4758 33.6366C13.0924 33.6365 12.7317 33.4871 12.4605 33.2158C12.1894 32.9444 12.0402 32.5833 12.0407 32.199C12.0411 31.8158 12.1905 31.4562 12.462 31.1855L18.671 24.9759C18.8742 24.7727 18.8742 24.4433 18.671 24.24C18.4678 24.0369 18.1383 24.0368 17.9351 24.2401L11.7268 30.449C11.2589 30.9153 11.0008 31.5364 11 32.1978C10.9992 32.8603 11.2564 33.483 11.7245 33.9516C12.1925 34.4196 12.8144 34.6773 13.4758 34.6773C13.4763 34.6773 13.4768 34.6773 13.4772 34.6773C14.1386 34.6769 14.7605 34.419 15.2281 33.9511L22.4466 26.7323C22.6498 26.5291 22.6498 26.1996 22.4466 25.9964C22.2433 25.7932 21.9139 25.7932 21.7107 25.9964Z" fill="white"/>
<path d="M13.4684 31.567C13.297 31.5671 13.136 31.6341 13.0172 31.7536C12.767 32.0021 12.7658 32.4084 13.0144 32.6589C13.015 32.6596 13.0156 32.6602 13.0162 32.6608C13.1409 32.7852 13.3045 32.8474 13.4683 32.8474C13.6326 32.8474 13.797 32.7848 13.9226 32.6595C14.1717 32.4093 14.1709 32.0031 13.922 31.755C13.8011 31.6337 13.6402 31.567 13.4688 31.567C13.4687 31.567 13.4686 31.567 13.4684 31.567Z" fill="white"/>
<path d="M30.4817 28.929C30.4278 28.8752 30.3627 28.8338 30.2911 28.8078L28.7989 28.2667L23.4085 22.8762L24.2797 22.005C24.4829 21.8018 24.483 21.4723 24.2797 21.269C24.1255 21.1149 23.8985 21.0776 23.7092 21.1575L15.556 13.0051C15.0629 12.5104 14.4062 12.2375 13.7068 12.2367C13.7058 12.2367 13.7049 12.2367 13.7038 12.2367C13.0045 12.2367 12.3472 12.5086 11.8525 13.0027C11.3573 13.4979 11.0848 14.1561 11.0852 14.856C11.0856 15.5553 11.3583 16.2128 11.853 16.7073L20.0064 24.8603C19.9266 25.0496 19.9637 25.2765 20.1179 25.4307C20.3212 25.6339 20.6507 25.634 20.8539 25.4307L21.7249 24.5597L27.1154 29.9501L27.6565 31.4424C27.6825 31.514 27.7238 31.5791 27.7777 31.633L30.8023 34.6575C30.904 34.7591 31.0371 34.8099 31.1703 34.8099C31.3035 34.8099 31.4367 34.7591 31.5382 34.6575L33.5062 32.6895C33.6038 32.5919 33.6587 32.4596 33.6587 32.3216C33.6587 32.1836 33.6038 32.0512 33.5062 31.9536L30.4817 28.929ZM22.3045 22.5082C22.3034 22.5093 22.3023 22.5105 22.3012 22.5116L20.7153 24.0974L12.5888 15.9713C12.2905 15.6732 12.1262 15.2769 12.1259 14.8555C12.1257 14.4337 12.29 14.0371 12.5882 13.7388C12.8862 13.4412 13.2823 13.2775 13.7038 13.2775C13.7044 13.2775 13.7051 13.2775 13.7056 13.2775C14.1268 13.278 14.522 13.4422 14.8194 13.7405L22.9463 21.8665L22.3079 22.5049C22.3068 22.506 22.3056 22.5071 22.3045 22.5082ZM31.1703 33.5537L28.5955 30.9789L28.0544 29.4865C28.0284 29.4149 27.987 29.3498 27.9331 29.296L22.4609 23.8238L22.6725 23.6121L28.1448 29.0844C28.1987 29.1383 28.2637 29.1796 28.3353 29.2057L29.8276 29.7467L32.4024 32.3215L31.1703 33.5537Z" fill="white"/>
<path d="M14.0692 14.4844C13.866 14.2812 13.5365 14.2812 13.3333 14.4844C13.1301 14.6876 13.1301 15.0171 13.3333 15.2204L20.5119 22.3989C20.6134 22.5004 20.7467 22.5513 20.8798 22.5513C21.013 22.5513 21.1462 22.5004 21.2478 22.3989C21.451 22.1957 21.451 21.8662 21.2478 21.6629L14.0692 14.4844Z" fill="white"/>
</svg>
