<svg width="39" height="43" viewBox="0 0 39 43" fill="none" xmlns="http://www.w3.org/2000/svg">
<path d="M0.632102 40V32.7273H3.50142C4.05066 32.7273 4.51941 32.8255 4.90767 33.022C5.2983 33.2161 5.59541 33.492 5.79901 33.8494C6.00497 34.2045 6.10795 34.6224 6.10795 35.103C6.10795 35.5859 6.00379 36.0014 5.79545 36.3494C5.58712 36.6951 5.28527 36.9602 4.88991 37.1449C4.49692 37.3295 4.02107 37.4219 3.46236 37.4219H1.54119V36.1861H3.21378C3.50734 36.1861 3.75118 36.1458 3.94531 36.0653C4.13944 35.9848 4.28385 35.8641 4.37855 35.7031C4.47562 35.5421 4.52415 35.3421 4.52415 35.103C4.52415 34.8615 4.47562 34.6579 4.37855 34.4922C4.28385 34.3265 4.13826 34.201 3.94176 34.1158C3.74763 34.0282 3.5026 33.9844 3.20668 33.9844H2.16974V40H0.632102ZM4.55966 36.6903L6.36719 40H4.66974L2.90128 36.6903H4.55966ZM9.5641 40.1065C9.00302 40.1065 8.52006 39.9929 8.11523 39.7656C7.71277 39.536 7.40264 39.2116 7.18484 38.7926C6.96703 38.3712 6.85813 37.8729 6.85813 37.2976C6.85813 36.7365 6.96703 36.2441 7.18484 35.8203C7.40264 35.3965 7.70922 35.0663 8.10458 34.8295C8.50231 34.5928 8.96869 34.4744 9.50373 34.4744C9.86358 34.4744 10.1986 34.5324 10.5087 34.6484C10.8212 34.7621 11.0935 34.9337 11.3255 35.1634C11.5598 35.393 11.7421 35.6818 11.8723 36.0298C12.0025 36.3755 12.0676 36.7803 12.0676 37.2443V37.6598H7.46183V36.7223H10.6436C10.6436 36.5045 10.5963 36.3116 10.5016 36.1435C10.4069 35.9754 10.2755 35.844 10.1074 35.7493C9.9417 35.6522 9.74876 35.6037 9.52859 35.6037C9.29895 35.6037 9.09535 35.657 8.91779 35.7635C8.7426 35.8677 8.60529 36.0085 8.50586 36.1861C8.40643 36.3613 8.35553 36.5566 8.35316 36.772V37.6634C8.35316 37.9332 8.40288 38.1664 8.50231 38.3629C8.60411 38.5594 8.74734 38.7109 8.932 38.8175C9.11665 38.924 9.33564 38.9773 9.58896 38.9773C9.75704 38.9773 9.91093 38.9536 10.0506 38.9062C10.1903 38.8589 10.3098 38.7879 10.4093 38.6932C10.5087 38.5985 10.5845 38.4825 10.6365 38.3452L12.0357 38.4375C11.9647 38.7737 11.8191 39.0672 11.5989 39.3182C11.3811 39.5668 11.0994 39.7609 10.7537 39.9006C10.4105 40.0379 10.0139 40.1065 9.5641 40.1065ZM13.0549 42.0455V34.5455H14.5463V35.4616H14.6138C14.6801 35.3149 14.776 35.1657 14.9015 35.0142C15.0293 34.8603 15.195 34.7325 15.3986 34.6307C15.6046 34.5265 15.8603 34.4744 16.1657 34.4744C16.5634 34.4744 16.9303 34.5786 17.2665 34.7869C17.6027 34.9929 17.8714 35.3042 18.0726 35.7209C18.2739 36.1352 18.3745 36.6548 18.3745 37.2798C18.3745 37.8883 18.2762 38.402 18.0797 38.821C17.8856 39.2377 17.6204 39.5537 17.2843 39.7692C16.9505 39.9822 16.5764 40.0888 16.1621 40.0888C15.8685 40.0888 15.6188 40.0402 15.4128 39.9432C15.2092 39.8461 15.0423 39.7242 14.9121 39.5774C14.7819 39.4283 14.6825 39.2779 14.6138 39.1264H14.5676V42.0455H13.0549ZM14.5357 37.2727C14.5357 37.5971 14.5807 37.88 14.6706 38.1214C14.7606 38.3629 14.8908 38.5511 15.0613 38.6861C15.2317 38.8187 15.4389 38.8849 15.6827 38.8849C15.9289 38.8849 16.1373 38.8175 16.3077 38.6825C16.4782 38.5452 16.6072 38.3558 16.6948 38.1143C16.7847 37.8705 16.8297 37.59 16.8297 37.2727C16.8297 36.9579 16.7859 36.6809 16.6983 36.4418C16.6107 36.2027 16.4817 36.0156 16.3113 35.8807C16.1408 35.7457 15.9313 35.6783 15.6827 35.6783C15.4365 35.6783 15.2282 35.7434 15.0577 35.8736C14.8896 36.0038 14.7606 36.1884 14.6706 36.4276C14.5807 36.6667 14.5357 36.9484 14.5357 37.2727ZM21.8475 40.1065C21.2959 40.1065 20.8188 39.9893 20.4164 39.755C20.0163 39.5182 19.7073 39.1892 19.4895 38.7678C19.2717 38.344 19.1628 37.8527 19.1628 37.294C19.1628 36.7306 19.2717 36.2382 19.4895 35.8168C19.7073 35.393 20.0163 35.0639 20.4164 34.8295C20.8188 34.5928 21.2959 34.4744 21.8475 34.4744C22.3991 34.4744 22.8749 34.5928 23.275 34.8295C23.6775 35.0639 23.9876 35.393 24.2054 35.8168C24.4232 36.2382 24.5321 36.7306 24.5321 37.294C24.5321 37.8527 24.4232 38.344 24.2054 38.7678C23.9876 39.1892 23.6775 39.5182 23.275 39.755C22.8749 39.9893 22.3991 40.1065 21.8475 40.1065ZM21.8546 38.9347C22.1055 38.9347 22.315 38.8636 22.4831 38.7216C22.6512 38.5772 22.7779 38.3807 22.8631 38.1321C22.9507 37.8835 22.9945 37.6006 22.9945 37.2834C22.9945 36.9661 22.9507 36.6832 22.8631 36.4347C22.7779 36.1861 22.6512 35.9896 22.4831 35.8452C22.315 35.7008 22.1055 35.6286 21.8546 35.6286C21.6013 35.6286 21.3882 35.7008 21.2154 35.8452C21.0449 35.9896 20.9159 36.1861 20.8283 36.4347C20.7431 36.6832 20.7005 36.9661 20.7005 37.2834C20.7005 37.6006 20.7431 37.8835 20.8283 38.1321C20.9159 38.3807 21.0449 38.5772 21.2154 38.7216C21.3882 38.8636 21.6013 38.9347 21.8546 38.9347ZM25.5158 40V34.5455H26.9824V35.4972H27.0392C27.1387 35.1586 27.3056 34.9029 27.54 34.7301C27.7743 34.5549 28.0442 34.4673 28.3496 34.4673C28.4254 34.4673 28.507 34.4721 28.5946 34.4815C28.6822 34.491 28.7592 34.504 28.8255 34.5206V35.8629C28.7544 35.8416 28.6562 35.8227 28.5307 35.8061C28.4052 35.7895 28.2904 35.7812 28.1863 35.7812C27.9637 35.7812 27.7649 35.8298 27.5897 35.9268C27.4168 36.0215 27.2795 36.1541 27.1777 36.3246C27.0783 36.495 27.0286 36.6915 27.0286 36.9141V40H25.5158ZM32.7823 34.5455V35.6818H29.4975V34.5455H32.7823ZM30.2433 33.2386H31.756V38.3239C31.756 38.4635 31.7773 38.5724 31.82 38.6506C31.8626 38.7263 31.9218 38.7796 31.9975 38.8104C32.0756 38.8411 32.1656 38.8565 32.2674 38.8565C32.3384 38.8565 32.4094 38.8506 32.4805 38.8388C32.5515 38.8246 32.6059 38.8139 32.6438 38.8068L32.8817 39.9325C32.806 39.9562 32.6995 39.9834 32.5621 40.0142C32.4248 40.0473 32.2579 40.0675 32.0614 40.0746C31.6969 40.0888 31.3772 40.0402 31.1026 39.929C30.8304 39.8177 30.6185 39.6449 30.467 39.4105C30.3155 39.1761 30.2409 38.8802 30.2433 38.5227V33.2386ZM38.2377 36.1009L36.8528 36.1861C36.8291 36.0677 36.7782 35.9612 36.7001 35.8665C36.622 35.7694 36.519 35.6925 36.3912 35.6357C36.2657 35.5765 36.1154 35.5469 35.9402 35.5469C35.7058 35.5469 35.5081 35.5966 35.3471 35.696C35.1861 35.7931 35.1056 35.9233 35.1056 36.0866C35.1056 36.2169 35.1577 36.3269 35.2619 36.4169C35.3661 36.5069 35.5448 36.5791 35.7981 36.6335L36.7853 36.8324C37.3156 36.9413 37.711 37.1165 37.9714 37.358C38.2318 37.5994 38.362 37.9167 38.362 38.3097C38.362 38.6671 38.2567 38.9808 38.046 39.2507C37.8377 39.5206 37.5512 39.7313 37.1866 39.8828C36.8244 40.032 36.4065 40.1065 35.9331 40.1065C35.211 40.1065 34.6357 39.9562 34.2072 39.6555C33.7811 39.3525 33.5313 38.9406 33.4579 38.4197L34.9458 38.3416C34.9908 38.5618 35.0997 38.7299 35.2725 38.8459C35.4454 38.9595 35.6667 39.0163 35.9366 39.0163C36.2018 39.0163 36.4148 38.9654 36.5758 38.8636C36.7392 38.7595 36.822 38.6257 36.8244 38.4624C36.822 38.325 36.764 38.2126 36.6504 38.125C36.5368 38.035 36.3616 37.9664 36.1248 37.919L35.1802 37.7308C34.6475 37.6243 34.251 37.4396 33.9906 37.1768C33.7325 36.9141 33.6035 36.5791 33.6035 36.1719C33.6035 35.8215 33.6982 35.5196 33.8876 35.2663C34.0794 35.013 34.3481 34.8177 34.6937 34.6804C35.0417 34.5431 35.4489 34.4744 35.9153 34.4744C36.6042 34.4744 37.1464 34.62 37.5417 34.9112C37.9395 35.2024 38.1715 35.599 38.2377 36.1009Z" fill="currentColor"/>
<path d="M14.8725 26.9794C11.6874 26.8096 8.68674 25.4312 6.48118 23.1248C4.27562 20.8184 3.03097 17.7573 3.00057 14.5647C2.97017 11.3721 4.15631 8.28786 6.31755 5.93979C8.4788 3.59173 11.4527 2.15632 14.6339 1.92573C14.7488 1.91963 14.8637 1.93682 14.9718 1.97627C15.0798 2.01572 15.1788 2.07661 15.2628 2.1553C15.3468 2.23398 15.414 2.32883 15.4605 2.43417C15.5069 2.5395 15.5316 2.65314 15.5331 2.76827V13.4027C15.5369 13.6805 15.649 13.9458 15.8454 14.1421C16.0418 14.3385 16.3071 14.4502 16.5846 14.4536H27.2064C27.3228 14.4498 27.4388 14.471 27.5464 14.5157C27.6541 14.5603 27.751 14.6275 27.8306 14.7127C27.9103 14.7978 27.9708 14.899 28.0082 15.0095C28.0457 15.12 28.0591 15.2372 28.0476 15.3533C27.826 18.5104 26.4186 21.4664 24.1084 23.6271C21.7982 25.7878 18.7564 26.9928 15.5947 27C15.3566 27 15.1158 26.9931 14.8725 26.9794ZM18.9857 11.8093C18.8831 11.8099 18.7814 11.7901 18.6865 11.7511C18.5915 11.712 18.5053 11.6545 18.4327 11.5819C18.3602 11.5093 18.3027 11.423 18.2638 11.3279C18.2248 11.2329 18.205 11.1311 18.2056 11.0284V0.785225C18.2097 0.67609 18.2356 0.568888 18.2819 0.469975C18.3281 0.371063 18.3937 0.282452 18.4748 0.209398C18.5559 0.136343 18.6509 0.0803316 18.754 0.0446838C18.8571 0.0090361 18.9664 -0.00552218 19.0752 0.00187211C21.9029 0.210029 24.5616 1.42867 26.5664 3.43554C28.5713 5.44241 29.7887 8.10379 29.9967 10.9343C30.0067 11.0436 29.9941 11.1539 29.9596 11.2581C29.9251 11.3624 29.8695 11.4584 29.7963 11.5401C29.7231 11.6219 29.6338 11.6877 29.5341 11.7333C29.4343 11.779 29.3262 11.8036 29.2166 11.8056L18.9857 11.8093Z" fill="currentColor"/>
</svg>
