<svg width="26" height="26" viewBox="0 0 26 26" fill="currentColor" xmlns="http://www.w3.org/2000/svg">
<path d="M11.5556 10.4H15.8889C16.0804 10.4 16.2641 10.3315 16.3996 10.2096C16.535 10.0877 16.6111 9.92239 16.6111 9.75C16.6111 9.57761 16.535 9.41228 16.3996 9.29038C16.2641 9.16848 16.0804 9.1 15.8889 9.1H11.5556C11.364 9.1 11.1803 9.16848 11.0449 9.29038C10.9094 9.41228 10.8333 9.57761 10.8333 9.75C10.8333 9.92239 10.9094 10.0877 11.0449 10.2096C11.1803 10.3315 11.364 10.4 11.5556 10.4ZM10.1111 13H15.8889C16.0804 13 16.2641 12.9315 16.3996 12.8096C16.535 12.6877 16.6111 12.5224 16.6111 12.35C16.6111 12.1776 16.535 12.0123 16.3996 11.8904C16.2641 11.7685 16.0804 11.7 15.8889 11.7H10.1111C9.91957 11.7 9.73587 11.7685 9.60042 11.8904C9.46498 12.0123 9.38889 12.1776 9.38889 12.35C9.38889 12.5224 9.46498 12.6877 9.60042 12.8096C9.73587 12.9315 9.91957 13 10.1111 13ZM10.1111 15.6H15.8889C16.0804 15.6 16.2641 15.5315 16.3996 15.4096C16.535 15.2877 16.6111 15.1224 16.6111 14.95C16.6111 14.7776 16.535 14.6123 16.3996 14.4904C16.2641 14.3685 16.0804 14.3 15.8889 14.3H10.1111C9.91957 14.3 9.73587 14.3685 9.60042 14.4904C9.46498 14.6123 9.38889 14.7776 9.38889 14.95C9.38889 15.1224 9.46498 15.2877 9.60042 15.4096C9.73587 15.5315 9.91957 15.6 10.1111 15.6ZM18.7778 6.5H7.22222C7.03068 6.5 6.84698 6.56848 6.71153 6.69038C6.57609 6.81228 6.5 6.97761 6.5 7.15V18.85C6.5 18.9707 6.53735 19.089 6.60786 19.1917C6.67838 19.2944 6.77927 19.3774 6.89923 19.4314C7.0192 19.4854 7.1535 19.5082 7.28708 19.4974C7.42067 19.4865 7.54826 19.4424 7.65556 19.37L9.15056 18.3625L10.6383 19.37C10.7633 19.4544 10.9154 19.5 11.0717 19.5C11.2279 19.5 11.38 19.4544 11.505 19.37L13 18.3625L14.495 19.37C14.62 19.4544 14.7721 19.5 14.9283 19.5C15.0846 19.5 15.2367 19.4544 15.3617 19.37L16.8494 18.3625L18.3444 19.37C18.4523 19.4423 18.5804 19.4861 18.7144 19.4964C18.8483 19.5068 18.9829 19.4833 19.1028 19.4285C19.2219 19.3745 19.322 19.2918 19.3922 19.1897C19.4623 19.0876 19.4996 18.97 19.5 18.85V7.15C19.5 6.97761 19.4239 6.81228 19.2885 6.69038C19.153 6.56848 18.9693 6.5 18.7778 6.5ZM18.0556 17.55L17.2828 17.03C17.1578 16.9456 17.0057 16.9 16.8494 16.9C16.6932 16.9 16.5411 16.9456 16.4161 17.03L14.9283 18.0375L13.4333 17.03C13.3083 16.9456 13.1563 16.9 13 16.9C12.8437 16.9 12.6917 16.9456 12.5667 17.03L11.0717 18.0375L9.58389 17.03C9.45887 16.9456 9.30682 16.9 9.15056 16.9C8.99429 16.9 8.84224 16.9456 8.71722 17.03L7.94444 17.55V7.8H18.0556V17.55Z" fill="currentColor"/>
<path fill-rule="evenodd" clip-rule="evenodd" d="M2 19.5V23C2 23.5523 2.44772 24 3 24H6.5V26H3C1.34315 26 0 24.6569 0 23V19.5H2ZM6.5 2H3C2.44772 2 2 2.44772 2 3V6.5H0V3C0 1.34315 1.34315 0 3 0H6.5V2ZM24 6.5V3C24 2.44772 23.5523 2 23 2H19.5V0H23C24.6569 0 26 1.34315 26 3V6.5H24ZM19.5 24H23C23.5523 24 24 23.5523 24 23V19.5H26V23C26 24.6569 24.6569 26 23 26H19.5V24Z" fill="currentColor"/>
</svg>
