<svg width="45" height="45" viewBox="0 0 45 45" fill="none" xmlns="http://www.w3.org/2000/svg">
<rect x="0.5" y="0.5" width="44" height="44" rx="22" fill="#856EA5" stroke="#ECECEC"/>
<path d="M31.1119 25.5541C31.4319 25.5541 31.6913 25.2947 31.6913 24.9747C31.6913 24.6547 31.4319 24.3953 31.1119 24.3953C30.7919 24.3953 30.5325 24.6547 30.5325 24.9747C30.5325 25.2947 30.7919 25.5541 31.1119 25.5541Z" fill="white"/>
<path d="M16.006 25.5541C16.326 25.5541 16.5854 25.2947 16.5854 24.9747C16.5854 24.6547 16.326 24.3953 16.006 24.3953C15.686 24.3953 15.4266 24.6547 15.4266 24.9747C15.4266 25.2947 15.686 25.5541 16.006 25.5541Z" fill="white"/>
<path d="M32.3695 18.9518L30.0024 18.5903L29.306 17.8274C27.6466 16.0101 25.284 14.9678 22.8232 14.9678H20.9724C20.5702 14.9678 20.1734 14.9995 19.7822 15.0555C19.7757 15.0567 19.7692 15.0573 19.7626 15.0585C17.4513 15.3942 15.3758 16.679 14.0472 18.6463C11.6911 19.5055 10 21.7119 10 23.9625C10 24.9269 10.7845 25.7111 11.7486 25.7111H12.7713C13.0585 27.1532 14.3329 28.2435 15.8583 28.2435C17.3837 28.2435 18.6581 27.1532 18.9453 25.7111H27.8775C28.1646 27.1532 29.4393 28.2435 30.9644 28.2435C32.4895 28.2435 33.7639 27.1532 34.0511 25.7111H34.9245C35.8889 25.7111 36.673 24.9269 36.673 23.9625C36.673 21.4401 34.8634 19.333 32.3695 18.9518ZM22.8235 16.1532C24.9173 16.1532 26.9276 17.0272 28.3585 18.552H21.6958L20.7276 16.1609C20.8091 16.1583 20.8906 16.1532 20.9724 16.1532H22.8235ZM19.5075 16.3062L20.4167 18.552H15.6227C16.6472 17.4012 18.0072 16.6177 19.5075 16.3062ZM15.8583 27.0581C14.776 27.0581 13.8955 26.1776 13.8955 25.0955C13.8955 24.0132 14.776 23.1327 15.8583 23.1327C16.9406 23.1327 17.8211 24.0132 17.8211 25.0955C17.8211 26.1779 16.9406 27.0581 15.8583 27.0581ZM30.9644 27.0581C29.8821 27.0581 29.0016 26.1776 29.0016 25.0955C29.0016 24.0132 29.8821 23.1327 30.9644 23.1327C32.0465 23.1327 32.927 24.0132 32.927 25.0955C32.927 26.1779 32.0468 27.0581 30.9644 27.0581Z" fill="white"/>
</svg>
