<svg width="45" height="45" viewBox="0 0 45 45" fill="none" xmlns="http://www.w3.org/2000/svg">
<rect x="0.5" y="0.5" width="44" height="44" rx="22" fill="#628295" stroke="#ECECEC"/>
<path d="M34.5788 28.7235H34.1015V14.7689C34.1015 13.7935 33.308 13 32.3326 13H11.6674C10.692 13 9.89849 13.7935 9.89849 14.7689V28.7235H9.42117C9.18857 28.7235 9 28.9121 9 29.1447V30.0432C9 30.7709 9.59199 31.3629 10.3197 31.3629H33.6803C34.408 31.3629 35 30.7709 35 30.0432V29.1447C35 28.9121 34.8114 28.7235 34.5788 28.7235ZM10.7408 14.7689C10.7408 14.258 11.1565 13.8423 11.6674 13.8423H32.3326C32.8435 13.8423 33.2592 14.258 33.2592 14.7689V28.7235H10.7408V14.7689ZM34.1577 30.0432C34.1577 30.3064 33.9435 30.5205 33.6803 30.5205H10.3197C10.0565 30.5205 9.84233 30.3064 9.84233 30.0432V29.5659H19.334C19.3334 29.5752 19.3326 29.5845 19.3326 29.594C19.3326 29.8265 19.5212 30.0151 19.7538 30.0151H24.2462C24.4788 30.0151 24.6674 29.8265 24.6674 29.594C24.6674 29.5845 24.6666 29.5752 24.666 29.5659H34.1577V30.0432Z" fill="white"/>
<path d="M31.8833 14.7969H12.1166C11.884 14.7969 11.6954 14.9854 11.6954 15.218V27.3476C11.6954 27.5802 11.884 27.7688 12.1166 27.7688H31.8833C32.1159 27.7688 32.3045 27.5802 32.3045 27.3476V15.218C32.3045 14.9854 32.1159 14.7969 31.8833 14.7969ZM31.4622 26.9265H12.5378V15.6392H31.4622V26.9265Z" fill="white"/>
</svg>
