<svg width="28" height="28" viewBox="0 0 28 28" fill="none" xmlns="http://www.w3.org/2000/svg">
<circle cx="14" cy="14" r="14" fill="#D9D9D9"/>
<g clip-path="url(#clip0_48_180)">
<path d="M21 8.07324C21 7.52174 20.5515 7.07324 20 7.07324H7C6.4485 7.07324 6 7.52174 6 8.07324C6 8.53799 6.32 8.92599 6.75 9.03774V21.1767L7.5 20.4267L9 21.9267L10.5 20.4267L12 21.9267L13.5 20.4267L15 21.9267L16.5 20.4267L18 21.9267L19.5 20.4267L20.25 21.1767V9.03774C20.68 8.92599 21 8.53799 21 8.07324ZM19.75 19.9697L19.5 19.7197L18 21.2197L16.5 19.7197L15 21.2197L13.5 19.7197L12 21.2197L10.5 19.7197L9 21.2197L7.5 19.7197L7.25 19.9697V9.07324V8.32324H19.75V9.07324V19.9697ZM20.25 8.50599V7.82324H6.75V8.50599C6.60075 8.41974 6.5 8.25799 6.5 8.07324C6.5 7.79749 6.72425 7.57324 7 7.57324H20C20.2758 7.57324 20.5 7.79749 20.5 8.07324C20.5 8.25799 20.3993 8.41974 20.25 8.50599Z" fill="black"/>
<path d="M17 17.0732H13.25C13.112 17.0732 13 17.185 13 17.3232C13 17.4615 13.112 17.5732 13.25 17.5732H17C17.138 17.5732 17.25 17.4615 17.25 17.3232C17.25 17.185 17.138 17.0732 17 17.0732Z" fill="black"/>
<path d="M18.0725 17.1458C18.0275 17.193 18 17.2555 18 17.3233C18 17.3883 18.0275 17.4533 18.0725 17.5008C18.12 17.5458 18.185 17.5733 18.25 17.5733C18.315 17.5733 18.38 17.5458 18.4275 17.5008C18.4725 17.4533 18.5 17.3883 18.5 17.3233C18.5 17.2555 18.4725 17.193 18.4275 17.1458C18.3325 17.0533 18.1675 17.0533 18.0725 17.1458Z" fill="black"/>
<path d="M18.25 13.5732H14.5C14.362 13.5732 14.25 13.685 14.25 13.8232C14.25 13.9615 14.362 14.0732 14.5 14.0732H18.25C18.388 14.0732 18.5 13.9615 18.5 13.8232C18.5 13.685 18.388 13.5732 18.25 13.5732Z" fill="black"/>
<path d="M18.25 15.3232H15.75C15.612 15.3232 15.5 15.435 15.5 15.5732C15.5 15.7115 15.612 15.8232 15.75 15.8232H18.25C18.388 15.8232 18.5 15.7115 18.5 15.5732C18.5 15.435 18.388 15.3232 18.25 15.3232Z" fill="black"/>
<path d="M13 15.5732C13 15.7115 13.112 15.8232 13.25 15.8232H13.75C13.888 15.8232 14 15.7115 14 15.5732C14 15.435 13.888 15.3232 13.75 15.3232H13.25C13.112 15.3232 13 15.435 13 15.5732Z" fill="black"/>
<path d="M17.25 12.0732C17.25 11.935 17.138 11.8232 17 11.8232H13.25C13.112 11.8232 13 11.935 13 12.0732C13 12.2115 13.112 12.3232 13.25 12.3232H17C17.138 12.3232 17.25 12.2115 17.25 12.0732Z" fill="black"/>
<path d="M18.0725 11.8958C18.0275 11.943 18 12.0055 18 12.0733C18 12.1383 18.0275 12.2033 18.0725 12.2508C18.12 12.2958 18.185 12.3233 18.25 12.3233C18.3175 12.3233 18.38 12.2958 18.4275 12.2508C18.4725 12.2033 18.5 12.1383 18.5 12.0733C18.5 12.0083 18.4725 11.943 18.4275 11.8958C18.335 11.8033 18.165 11.8033 18.0725 11.8958Z" fill="black"/>
<path d="M13.6775 14.0008C13.7225 13.9533 13.75 13.8908 13.75 13.8233C13.75 13.7555 13.7225 13.693 13.6775 13.6458C13.585 13.5533 13.4175 13.5533 13.3225 13.6458C13.2775 13.693 13.25 13.7555 13.25 13.8233C13.25 13.8908 13.2775 13.9533 13.3225 14.0008C13.37 14.0458 13.435 14.0733 13.5 14.0733C13.565 14.0733 13.63 14.0458 13.6775 14.0008Z" fill="black"/>
<path d="M14.9275 15.7508C14.9725 15.7033 15 15.6408 15 15.5733C15 15.5055 14.9725 15.4408 14.9275 15.3958C14.835 15.3033 14.6675 15.3033 14.5725 15.3958C14.5275 15.443 14.5 15.5083 14.5 15.5733C14.5 15.6383 14.5275 15.7033 14.5725 15.7508C14.62 15.7958 14.685 15.8233 14.75 15.8233C14.815 15.8233 14.88 15.7958 14.9275 15.7508Z" fill="black"/>
<path d="M10.25 12.3485V12.0732C10.25 11.935 10.138 11.8232 10 11.8232C9.862 11.8232 9.75 11.935 9.75 12.0732V12.3492C9.47725 12.4047 9.22875 12.5495 9.0455 12.7662C8.89275 12.9467 8.822 13.1777 8.847 13.417C8.8725 13.6617 8.9985 13.8887 9.19275 14.0397L9.75 14.4732V15.8327C9.45975 15.7292 9.25 15.4542 9.25 15.1287C9.25 14.9905 9.138 14.8787 9 14.8787C8.862 14.8787 8.75 14.9905 8.75 15.1287C8.75 15.7322 9.18025 16.2372 9.75 16.3535V16.573C9.75 16.7112 9.862 16.823 10 16.823C10.138 16.823 10.25 16.7112 10.25 16.573V16.3525C10.5227 16.297 10.7712 16.1522 10.9547 15.9355C11.1075 15.7545 11.178 15.5235 11.153 15.2842C11.1272 15.0397 11.0015 14.813 10.8072 14.6622L10.25 14.229V12.8695C10.5402 12.973 10.75 13.248 10.75 13.5735C10.75 13.7117 10.862 13.8235 11 13.8235C11.138 13.8235 11.25 13.7117 11.25 13.5735C11.25 12.9697 10.8197 12.4647 10.25 12.3485ZM10.5002 15.057C10.5875 15.1247 10.6442 15.227 10.6557 15.3365C10.6665 15.439 10.637 15.5372 10.573 15.6127C10.486 15.7155 10.3735 15.7875 10.25 15.8315V14.862L10.5002 15.057ZM9.49975 13.6452C9.41225 13.5772 9.35575 13.475 9.34425 13.3652C9.33375 13.263 9.363 13.165 9.427 13.0892C9.514 12.9865 9.6265 12.9145 9.75 12.8705V13.8397L9.49975 13.6452Z" fill="black"/>
<path d="M16 10.0732C16.1381 10.0732 16.25 9.96131 16.25 9.82324C16.25 9.68517 16.1381 9.57324 16 9.57324C15.8619 9.57324 15.75 9.68517 15.75 9.82324C15.75 9.96131 15.8619 10.0732 16 10.0732Z" fill="black"/>
<path d="M15 10.0732C15.1381 10.0732 15.25 9.96131 15.25 9.82324C15.25 9.68517 15.1381 9.57324 15 9.57324C14.8619 9.57324 14.75 9.68517 14.75 9.82324C14.75 9.96131 14.8619 10.0732 15 10.0732Z" fill="black"/>
<path d="M17 10.0732C17.1381 10.0732 17.25 9.96131 17.25 9.82324C17.25 9.68517 17.1381 9.57324 17 9.57324C16.8619 9.57324 16.75 9.68517 16.75 9.82324C16.75 9.96131 16.8619 10.0732 17 10.0732Z" fill="black"/>
<path d="M14 10.0732C14.1381 10.0732 14.25 9.96131 14.25 9.82324C14.25 9.68517 14.1381 9.57324 14 9.57324C13.8619 9.57324 13.75 9.68517 13.75 9.82324C13.75 9.96131 13.8619 10.0732 14 10.0732Z" fill="black"/>
<path d="M18 10.0732C18.1381 10.0732 18.25 9.96131 18.25 9.82324C18.25 9.68517 18.1381 9.57324 18 9.57324C17.8619 9.57324 17.75 9.68517 17.75 9.82324C17.75 9.96131 17.8619 10.0732 18 10.0732Z" fill="black"/>
<path d="M11 10.0732C11.1381 10.0732 11.25 9.96131 11.25 9.82324C11.25 9.68517 11.1381 9.57324 11 9.57324C10.8619 9.57324 10.75 9.68517 10.75 9.82324C10.75 9.96131 10.8619 10.0732 11 10.0732Z" fill="black"/>
<path d="M12 10.0732C12.1381 10.0732 12.25 9.96131 12.25 9.82324C12.25 9.68517 12.1381 9.57324 12 9.57324C11.8619 9.57324 11.75 9.68517 11.75 9.82324C11.75 9.96131 11.8619 10.0732 12 10.0732Z" fill="black"/>
<path d="M13 10.0732C13.1381 10.0732 13.25 9.96131 13.25 9.82324C13.25 9.68517 13.1381 9.57324 13 9.57324C12.8619 9.57324 12.75 9.68517 12.75 9.82324C12.75 9.96131 12.8619 10.0732 13 10.0732Z" fill="black"/>
<path d="M19 10.0732C19.1381 10.0732 19.25 9.96131 19.25 9.82324C19.25 9.68517 19.1381 9.57324 19 9.57324C18.8619 9.57324 18.75 9.68517 18.75 9.82324C18.75 9.96131 18.8619 10.0732 19 10.0732Z" fill="black"/>
<path d="M10 10.0732C10.1381 10.0732 10.25 9.96131 10.25 9.82324C10.25 9.68517 10.1381 9.57324 10 9.57324C9.86193 9.57324 9.75 9.68517 9.75 9.82324C9.75 9.96131 9.86193 10.0732 10 10.0732Z" fill="black"/>
<path d="M9 10.0732C9.13807 10.0732 9.25 9.96131 9.25 9.82324C9.25 9.68517 9.13807 9.57324 9 9.57324C8.86193 9.57324 8.75 9.68517 8.75 9.82324C8.75 9.96131 8.86193 10.0732 9 10.0732Z" fill="black"/>
<path d="M8 10.0732C8.13807 10.0732 8.25 9.96131 8.25 9.82324C8.25 9.68517 8.13807 9.57324 8 9.57324C7.86193 9.57324 7.75 9.68517 7.75 9.82324C7.75 9.96131 7.86193 10.0732 8 10.0732Z" fill="black"/>
</g>
<defs>
<clipPath id="clip0_48_180">
<rect width="15" height="15" fill="white" transform="translate(6 7)"/>
</clipPath>
</defs>
</svg>
