<svg width="28" height="28" viewBox="0 0 28 28" fill="none" xmlns="http://www.w3.org/2000/svg">
<circle cx="14" cy="14" r="14" fill="#D9D9D9"/>
<g clip-path="url(#clip0_48_162)">
<path d="M17.9632 15.3719V8.57778C17.9632 8.10952 17.5822 7.72852 17.114 7.72852H5.79043C5.32216 7.72852 4.94116 8.10952 4.94116 8.57778V15.3719C4.94116 15.8402 5.32216 16.2212 5.79043 16.2212H17.114C17.5822 16.2212 17.9632 15.8402 17.9632 15.3719ZM5.50734 15.3719V8.57778C5.50734 8.42169 5.63434 8.29469 5.79043 8.29469H17.114C17.27 8.29469 17.397 8.42169 17.397 8.57778V15.3719C17.397 15.528 17.27 15.655 17.114 15.655H5.79043C5.63434 15.655 5.50734 15.528 5.50734 15.3719Z" fill="black"/>
<path d="M22.2097 11.7354H18.8126C18.6563 11.7354 18.5295 11.8621 18.5295 12.0184C18.5295 12.1748 18.6563 12.3015 18.8126 12.3015H22.2097C22.3657 12.3015 22.4927 12.4285 22.4927 12.5846V14.0001H18.8126C18.6563 14.0001 18.5295 14.1268 18.5295 14.2831C18.5295 14.4395 18.6563 14.5662 18.8126 14.5662H22.4927V19.3787C22.4927 19.5348 22.3657 19.6618 22.2097 19.6618H10.8861C10.73 19.6618 10.603 19.5348 10.603 19.3787V17.114C10.603 16.9577 10.4763 16.8309 10.32 16.8309C10.1636 16.8309 10.0369 16.9577 10.0369 17.114V19.3787C10.0369 19.847 10.4179 20.228 10.8861 20.228H22.2097C22.6779 20.228 23.0589 19.847 23.0589 19.3787V12.5846C23.0589 12.1164 22.6779 11.7354 22.2097 11.7354Z" fill="black"/>
<path d="M10.886 13.7169H9.47059C9.31425 13.7169 9.1875 13.8437 9.1875 14C9.1875 14.1563 9.31425 14.2831 9.47059 14.2831H10.886C11.0424 14.2831 11.1691 14.1563 11.1691 14C11.1691 13.8437 11.0424 13.7169 10.886 13.7169Z" fill="black"/>
<path d="M8.33818 13.7169H6.92274C6.7664 13.7169 6.63965 13.8437 6.63965 14C6.63965 14.1563 6.7664 14.2831 6.92274 14.2831H8.33818C8.49451 14.2831 8.62127 14.1563 8.62127 14C8.62127 13.8437 8.49451 13.7169 8.33818 13.7169Z" fill="black"/>
<path d="M15.9815 13.7169H14.566C14.4097 13.7169 14.283 13.8437 14.283 14C14.283 14.1563 14.4097 14.2831 14.566 14.2831H15.9815C16.1378 14.2831 16.2646 14.1563 16.2646 14C16.2646 13.8437 16.1378 13.7169 15.9815 13.7169Z" fill="black"/>
<path d="M13.4339 13.7169H12.0184C11.8621 13.7169 11.7354 13.8437 11.7354 14C11.7354 14.1563 11.8621 14.2831 12.0184 14.2831H13.4339C13.5902 14.2831 13.717 14.1563 13.717 14C13.717 13.8437 13.5902 13.7169 13.4339 13.7169Z" fill="black"/>
<path d="M8.05522 9.1875H7.20595C6.73766 9.1875 6.35669 9.5685 6.35669 10.0368V10.3199C6.35669 10.7881 6.73766 11.1691 7.20595 11.1691H8.05522C8.52352 11.1691 8.90448 10.7881 8.90448 10.3199V10.0368C8.90448 9.5685 8.52352 9.1875 8.05522 9.1875ZM8.33831 10.3199C8.33831 10.4759 8.21131 10.6029 8.05522 10.6029H7.20595C7.04987 10.6029 6.92287 10.4759 6.92287 10.3199V10.0368C6.92287 9.88068 7.04987 9.75368 7.20595 9.75368H8.05522C8.21131 9.75368 8.33831 9.88068 8.33831 10.0368V10.3199Z" fill="black"/>
<path d="M15.4154 9.1875C15.0774 9.1875 14.7737 9.33651 14.5661 9.57208C14.3584 9.33651 14.0548 9.1875 13.7168 9.1875C13.0924 9.1875 12.5845 9.69547 12.5845 10.3199C12.5845 10.9442 13.0924 11.4522 13.7168 11.4522C14.0548 11.4522 14.3584 11.3032 14.5661 11.0676C14.7737 11.3032 15.0774 11.4522 15.4154 11.4522C16.0397 11.4522 16.5477 10.9442 16.5477 10.3199C16.5477 9.69547 16.0397 9.1875 15.4154 9.1875ZM13.7168 10.886C13.4047 10.886 13.1506 10.632 13.1506 10.3199C13.1506 10.0077 13.4047 9.75368 13.7168 9.75368C14.029 9.75368 14.283 10.0077 14.283 10.3199C14.283 10.632 14.029 10.886 13.7168 10.886ZM15.4154 10.886C15.1032 10.886 14.8492 10.632 14.8492 10.3199C14.8492 10.0077 15.1032 9.75368 15.4154 9.75368C15.7275 9.75368 15.9815 10.0077 15.9815 10.3199C15.9815 10.632 15.7275 10.886 15.4154 10.886Z" fill="black"/>
<path d="M18.8124 13.4339H21.9264C22.0827 13.4339 22.2094 13.3071 22.2094 13.1508C22.2094 12.9944 22.0827 12.8677 21.9264 12.8677H18.8124C18.656 12.8677 18.5293 12.9944 18.5293 13.1508C18.5293 13.3071 18.656 13.4339 18.8124 13.4339Z" fill="black"/>
<path d="M21.0773 16.8309H15.6986C15.5423 16.8309 15.4155 16.9577 15.4155 17.114C15.4155 17.2704 15.5423 17.3971 15.6986 17.3971H21.0773C21.2336 17.3971 21.3604 17.2704 21.3604 17.114C21.3604 16.9577 21.2336 16.8309 21.0773 16.8309Z" fill="black"/>
<path d="M21.0771 17.9633H17.6801C17.5237 17.9633 17.397 18.09 17.397 18.2463C17.397 18.4027 17.5237 18.5294 17.6801 18.5294H21.0771C21.2335 18.5294 21.3602 18.4027 21.3602 18.2463C21.3602 18.09 21.2335 17.9633 21.0771 17.9633Z" fill="black"/>
</g>
<defs>
<clipPath id="clip0_48_162">
<rect width="18.1176" height="18.1176" fill="white" transform="translate(4.94116 4.94116)"/>
</clipPath>
</defs>
</svg>
