<svg width="28" height="28" viewBox="0 0 28 28" fill="none" xmlns="http://www.w3.org/2000/svg">
<circle cx="14" cy="14" r="14" fill="#D9D9D9"/>
<path d="M14.195 5.03421C12.2245 5.28528 10.5806 6.83286 10.2058 8.78955C9.72089 11.3206 11.3784 13.7622 13.9301 14.2712C14.3428 14.3538 15.2506 14.3538 15.6634 14.2712C17.5617 13.8929 19.0162 12.4382 19.3946 10.5399C19.4771 10.1272 19.4771 9.21932 19.3946 8.80661C19.0852 7.26245 18.0604 5.99361 16.6228 5.37113C15.887 5.05486 15.0066 4.93453 14.195 5.03421ZM15.0719 6.81903V7.19726H15.175C15.4329 7.19726 16.0863 7.41044 16.0588 7.48605C16.052 7.5067 16.0107 7.62703 15.966 7.75095L15.887 7.98137L15.7012 7.89535C15.0719 7.60656 14.3807 7.69581 14.1777 8.09146C14.0883 8.27034 14.0883 8.53165 14.1777 8.71394C14.274 8.89964 14.4529 9.01997 15.034 9.29853C15.3092 9.42927 15.6118 9.59773 15.7081 9.66993C16.5024 10.2683 16.3753 11.5201 15.4742 11.9465C15.3573 12.0014 15.2095 12.0566 15.151 12.0668L15.0375 12.0875V12.4968V12.9059H14.7796H14.5217V12.5172V12.1286L14.2397 12.0907C13.9439 12.0494 13.6551 11.9565 13.4694 11.843L13.3593 11.7777L13.4488 11.5232C13.4969 11.3856 13.5382 11.2687 13.5382 11.2653C13.5416 11.2619 13.6483 11.31 13.7754 11.372C14.3566 11.6573 15.0204 11.6437 15.3437 11.3479C15.4708 11.2276 15.5534 11.0212 15.5534 10.7976C15.5534 10.3849 15.3677 10.1958 14.5802 9.81415C14.2088 9.63186 13.9646 9.48746 13.8442 9.38078C13.325 8.91994 13.2974 8.12559 13.7857 7.62344C13.9405 7.46521 14.274 7.28292 14.4804 7.24521L14.5904 7.22456V6.8325V6.44044H14.8311H15.0718V6.81903H15.0719Z" fill="black"/>
<path d="M6.08587 13.4699C6.03433 13.6041 5.9862 14.4157 6.00326 14.8489C6.06181 16.2314 6.46751 17.3077 7.24121 18.1227C7.58172 18.4803 8.12841 18.9309 9.19108 19.7321C10.5219 20.7362 11.0138 21.2452 11.2647 21.8815C11.3369 22.0638 11.4263 22.4454 11.4263 22.5762C11.4263 22.5934 11.8906 22.6036 12.4545 22.6036H13.4863L13.5585 22.4041C14.0743 21.0354 13.813 19.6874 12.8397 18.7175C12.6953 18.5732 12.2758 18.2395 11.9078 17.9713C10.7076 17.1012 9.66557 16.2244 9.20132 15.6914C9.07398 15.5504 8.94683 15.423 8.90894 15.4094C8.78178 15.3579 8.41379 15.3406 8.27622 15.3785C7.88758 15.4816 7.9014 15.8325 8.32094 16.5238C8.59267 16.9742 8.90894 17.3697 9.33547 17.7962C9.55548 18.0198 9.73436 18.2021 9.72753 18.2021C9.72071 18.2021 9.59337 18.1608 9.44557 18.1127C8.67528 17.8548 7.98743 17.3664 7.62644 16.8266C7.34448 16.4036 7.21032 15.953 7.07616 15.004C6.97667 14.2986 6.93536 14.1027 6.84933 13.9342C6.75989 13.7589 6.54671 13.58 6.32312 13.494C6.09288 13.408 6.10653 13.4114 6.08587 13.4699Z" fill="black"/>
<path d="M23.2393 13.5076C22.806 13.6865 22.6547 13.965 22.5515 14.7973C22.438 15.7017 22.2763 16.3104 22.0323 16.7265C21.7744 17.1633 21.2825 17.5896 20.6945 17.882C20.4227 18.0196 19.8897 18.2155 19.8622 18.188C19.8554 18.1812 19.9378 18.0986 20.0445 18.0092C20.5294 17.5964 21.2173 16.7024 21.4716 16.1556C21.623 15.8323 21.6332 15.5846 21.4956 15.4677C21.3719 15.361 21.1415 15.3301 20.8629 15.3748C20.6532 15.4092 20.6291 15.423 20.4811 15.5949C19.9412 16.2139 18.9542 17.0496 17.6165 18.0194C16.7189 18.6728 16.3682 19.0544 16.0656 19.6975C15.6907 20.4989 15.6769 21.4549 16.0347 22.4075L16.1069 22.6034H17.1316H18.1566L18.1979 22.3557C18.2908 21.7952 18.5865 21.2897 19.1366 20.76C19.3396 20.5675 19.9103 20.1032 20.4538 19.6905C21.936 18.5763 22.4071 18.1465 22.7957 17.5618C23.4216 16.6232 23.7036 15.2752 23.566 13.8996C23.5281 13.5214 23.5076 13.4216 23.4698 13.4216C23.4559 13.4217 23.3528 13.4595 23.2393 13.5076Z" fill="black"/>
</svg>
