<svg width="34" height="39" viewBox="0 0 34 39" fill="none" xmlns="http://www.w3.org/2000/svg">
<path d="M7.45455 32.0781C7.40483 31.9053 7.33499 31.7526 7.24503 31.62C7.15507 31.4851 7.04498 31.3714 6.91477 31.2791C6.78693 31.1844 6.64015 31.1122 6.47443 31.0625C6.31108 31.0128 6.12997 30.9879 5.93111 30.9879C5.55942 30.9879 5.23272 31.0803 4.95099 31.2649C4.67164 31.4496 4.45384 31.7183 4.29759 32.071C4.14134 32.4214 4.06321 32.8499 4.06321 33.3565C4.06321 33.8632 4.14015 34.294 4.29403 34.6491C4.44792 35.0043 4.66572 35.2753 4.94744 35.4624C5.22917 35.647 5.56179 35.7393 5.94531 35.7393C6.29332 35.7393 6.59044 35.6778 6.83665 35.5547C7.08523 35.4292 7.27462 35.2528 7.40483 35.0256C7.53741 34.7983 7.60369 34.5296 7.60369 34.2195L7.91619 34.2656H6.04119V33.108H9.08452V34.0241C9.08452 34.6634 8.94957 35.2126 8.67969 35.6719C8.4098 36.1288 8.03812 36.4815 7.56463 36.7301C7.09115 36.9763 6.54901 37.0994 5.93821 37.0994C5.25639 37.0994 4.65743 36.9491 4.14134 36.6484C3.62524 36.3454 3.22277 35.9157 2.93395 35.3594C2.64749 34.8007 2.50426 34.1378 2.50426 33.3707C2.50426 32.7812 2.58949 32.2557 2.75994 31.794C2.93277 31.33 3.17424 30.937 3.48438 30.6151C3.79451 30.2931 4.15554 30.0481 4.56747 29.88C4.9794 29.7119 5.42566 29.6278 5.90625 29.6278C6.31818 29.6278 6.7017 29.6882 7.05682 29.8089C7.41193 29.9273 7.7268 30.0954 8.00142 30.3132C8.27841 30.531 8.5045 30.7902 8.67969 31.0909C8.85488 31.3892 8.96733 31.7183 9.01705 32.0781H7.45455ZM11.7665 37.103C11.4185 37.103 11.1084 37.0426 10.8361 36.9219C10.5639 36.7988 10.3484 36.6177 10.1898 36.3786C10.0336 36.1371 9.95543 35.8364 9.95543 35.4766C9.95543 35.1735 10.0111 34.919 10.1223 34.7131C10.2336 34.5071 10.3851 34.3414 10.5769 34.2159C10.7686 34.0904 10.9864 33.9957 11.2303 33.9318C11.4765 33.8679 11.7346 33.8229 12.0044 33.7969C12.3217 33.7637 12.5774 33.733 12.7715 33.7045C12.9656 33.6738 13.1065 33.6288 13.1941 33.5696C13.2817 33.5104 13.3255 33.4228 13.3255 33.3068V33.2855C13.3255 33.0606 13.2544 32.8866 13.1124 32.7635C12.9727 32.6404 12.7739 32.5788 12.5158 32.5788C12.2435 32.5788 12.0269 32.6392 11.8659 32.7599C11.705 32.8783 11.5984 33.0275 11.5463 33.2074L10.1472 33.0938C10.2182 32.7623 10.3579 32.4759 10.5662 32.2344C10.7746 31.9905 11.0433 31.8035 11.3723 31.6733C11.7038 31.5407 12.0873 31.4744 12.5229 31.4744C12.8259 31.4744 13.1159 31.5099 13.3929 31.581C13.6723 31.652 13.9197 31.7621 14.1351 31.9112C14.3529 32.0604 14.5246 32.2521 14.65 32.4865C14.7755 32.7185 14.8382 32.9967 14.8382 33.321V37H13.4036V36.2436H13.361C13.2734 36.4141 13.1562 36.5644 13.0094 36.6946C12.8626 36.8224 12.6863 36.9231 12.4803 36.9964C12.2743 37.0675 12.0364 37.103 11.7665 37.103ZM12.1998 36.0589C12.4223 36.0589 12.6188 36.0152 12.7892 35.9276C12.9597 35.8376 13.0935 35.7169 13.1905 35.5653C13.2876 35.4138 13.3361 35.2422 13.3361 35.0504V34.4716C13.2888 34.5024 13.2237 34.5308 13.1408 34.5568C13.0603 34.5805 12.9692 34.603 12.8674 34.6243C12.7656 34.6432 12.6638 34.661 12.562 34.6776C12.4602 34.6918 12.3678 34.7048 12.285 34.7166C12.1074 34.7427 11.9524 34.7841 11.8198 34.8409C11.6872 34.8977 11.5842 34.9747 11.5108 35.0717C11.4374 35.1664 11.4007 35.2848 11.4007 35.4268C11.4007 35.6328 11.4753 35.7902 11.6245 35.8991C11.776 36.0057 11.9677 36.0589 12.1998 36.0589ZM16.0119 37V31.5455H17.4537V32.5078H17.5176C17.6312 32.1882 17.8206 31.9361 18.0858 31.7514C18.3509 31.5668 18.6681 31.4744 19.0375 31.4744C19.4115 31.4744 19.7299 31.5679 19.9927 31.755C20.2555 31.9396 20.4307 32.1906 20.5183 32.5078H20.5751C20.6864 32.1953 20.8876 31.9455 21.1788 31.7585C21.4724 31.5691 21.8192 31.4744 22.2193 31.4744C22.7283 31.4744 23.1414 31.6366 23.4586 31.9609C23.7782 32.2829 23.938 32.7398 23.938 33.3317V37H22.4288V33.63C22.4288 33.3269 22.3483 33.0997 22.1873 32.9482C22.0263 32.7966 21.8251 32.7209 21.5836 32.7209C21.309 32.7209 21.0948 32.8085 20.9409 32.9837C20.787 33.1565 20.71 33.3849 20.71 33.669V37H19.2434V33.598C19.2434 33.3305 19.1665 33.1174 19.0126 32.9588C18.8611 32.8002 18.661 32.7209 18.4125 32.7209C18.2444 32.7209 18.0929 32.7635 17.9579 32.8487C17.8253 32.9316 17.72 33.0488 17.6419 33.2003C17.5637 33.3494 17.5247 33.5246 17.5247 33.7259V37H16.0119ZM27.6188 37.1065C27.0577 37.1065 26.5748 36.9929 26.1699 36.7656C25.7675 36.536 25.4573 36.2116 25.2395 35.7926C25.0217 35.3712 24.9128 34.8729 24.9128 34.2976C24.9128 33.7365 25.0217 33.2441 25.2395 32.8203C25.4573 32.3965 25.7639 32.0663 26.1593 31.8295C26.557 31.5928 27.0234 31.4744 27.5584 31.4744C27.9183 31.4744 28.2533 31.5324 28.5634 31.6484C28.8759 31.7621 29.1481 31.9337 29.3801 32.1634C29.6145 32.393 29.7968 32.6818 29.927 33.0298C30.0572 33.3755 30.1223 33.7803 30.1223 34.2443V34.6598H25.5165V33.7223H28.6983C28.6983 33.5045 28.651 33.3116 28.5563 33.1435C28.4616 32.9754 28.3302 32.844 28.1621 32.7493C27.9964 32.6522 27.8034 32.6037 27.5833 32.6037C27.3536 32.6037 27.15 32.657 26.9725 32.7635C26.7973 32.8677 26.66 33.0085 26.5605 33.1861C26.4611 33.3613 26.4102 33.5566 26.4078 33.772V34.6634C26.4078 34.9332 26.4576 35.1664 26.557 35.3629C26.6588 35.5594 26.802 35.7109 26.9867 35.8175C27.1713 35.924 27.3903 35.9773 27.6436 35.9773C27.8117 35.9773 27.9656 35.9536 28.1053 35.9062C28.245 35.8589 28.3645 35.7879 28.464 35.6932C28.5634 35.5985 28.6391 35.4825 28.6912 35.3452L30.0904 35.4375C30.0194 35.7737 29.8738 36.0672 29.6536 36.3182C29.4358 36.5668 29.1541 36.7609 28.8084 36.9006C28.4651 37.0379 28.0686 37.1065 27.6188 37.1065Z" fill="#B9B9B9"/>
<path fill-rule="evenodd" clip-rule="evenodd" d="M0 11C0 4.92487 4.87114 0 10.88 0H23.12C29.1289 0 34 4.92487 34 11C34 17.0751 29.1289 22 23.12 22H10.88C4.87114 22 0 17.0751 0 11ZM8.61333 5.95833C9.61481 5.95833 10.4267 6.77914 10.4267 7.79167V9.16667H11.7867C12.7881 9.16667 13.6 9.98748 13.6 11C13.6 12.0125 12.7881 12.8333 11.7867 12.8333H10.4267V14.2083C10.4267 15.2209 9.61481 16.0417 8.61333 16.0417C7.61186 16.0417 6.8 15.2209 6.8 14.2083V12.8333H5.44C4.43852 12.8333 3.62667 12.0125 3.62667 11C3.62667 9.98748 4.43852 9.16667 5.44 9.16667H6.8V7.79167C6.8 6.77914 7.61186 5.95833 8.61333 5.95833ZM24.7067 9.625C25.583 9.625 26.2933 8.90679 26.2933 8.02083C26.2933 7.13488 25.583 6.41667 24.7067 6.41667C23.8304 6.41667 23.12 7.13488 23.12 8.02083C23.12 8.90679 23.8304 9.625 24.7067 9.625ZM24.7067 16.0417C25.583 16.0417 26.2933 15.3235 26.2933 14.4375C26.2933 13.5515 25.583 12.8333 24.7067 12.8333C23.8304 12.8333 23.12 13.5515 23.12 14.4375C23.12 15.3235 23.8304 16.0417 24.7067 16.0417ZM23.12 11.2292C23.12 12.1151 22.4096 12.8333 21.5333 12.8333C20.657 12.8333 19.9467 12.1151 19.9467 11.2292C19.9467 10.3432 20.657 9.625 21.5333 9.625C22.4096 9.625 23.12 10.3432 23.12 11.2292ZM27.88 12.8333C28.7563 12.8333 29.4667 12.1151 29.4667 11.2292C29.4667 10.3432 28.7563 9.625 27.88 9.625C27.0037 9.625 26.2933 10.3432 26.2933 11.2292C26.2933 12.1151 27.0037 12.8333 27.88 12.8333Z" fill="#B9B9B9"/>
</svg>
