<svg width="33" height="45" viewBox="0 0 33 45" fill="none" xmlns="http://www.w3.org/2000/svg">
<g clip-path="url(#clip0_29_186)">
<path d="M32.588 15.3545L17.7479 2.30308C17.0564 1.69454 15.9362 1.69454 15.2538 2.30308L0.418385 15.3545C-0.273137 15.963 -0.0887314 16.4563 0.833299 16.4563H5.41115V29.8211C5.41115 30.5495 6.01047 31.1534 6.74345 31.1534H12.3448V22.3618C12.3448 21.6334 12.9441 21.0295 13.6771 21.0295H19.3337C20.0713 21.0295 20.666 21.6196 20.666 22.3618V31.1534H26.2674C27.005 31.1534 27.5997 30.5541 27.5997 29.8211V16.4517H32.1776C33.0859 16.4517 33.2703 15.963 32.588 15.3545Z" fill="#B9B9B9"/>
</g>
<path d="M2.6321 43V35.7273H4.16974V38.728H7.29119V35.7273H8.82528V43H7.29119V39.9957H4.16974V43H2.6321ZM12.5291 43.1065C11.9775 43.1065 11.5005 42.9893 11.098 42.755C10.6979 42.5182 10.389 42.1892 10.1712 41.7678C9.95336 41.344 9.84446 40.8527 9.84446 40.294C9.84446 39.7306 9.95336 39.2382 10.1712 38.8168C10.389 38.393 10.6979 38.0639 11.098 37.8295C11.5005 37.5928 11.9775 37.4744 12.5291 37.4744C13.0807 37.4744 13.5566 37.5928 13.9567 37.8295C14.3591 38.0639 14.6693 38.393 14.8871 38.8168C15.1049 39.2382 15.2138 39.7306 15.2138 40.294C15.2138 40.8527 15.1049 41.344 14.8871 41.7678C14.6693 42.1892 14.3591 42.5182 13.9567 42.755C13.5566 42.9893 13.0807 43.1065 12.5291 43.1065ZM12.5362 41.9347C12.7872 41.9347 12.9967 41.8636 13.1648 41.7216C13.3329 41.5772 13.4595 41.3807 13.5447 41.1321C13.6323 40.8835 13.6761 40.6006 13.6761 40.2834C13.6761 39.9661 13.6323 39.6832 13.5447 39.4347C13.4595 39.1861 13.3329 38.9896 13.1648 38.8452C12.9967 38.7008 12.7872 38.6286 12.5362 38.6286C12.2829 38.6286 12.0698 38.7008 11.897 38.8452C11.7266 38.9896 11.5975 39.1861 11.5099 39.4347C11.4247 39.6832 11.3821 39.9661 11.3821 40.2834C11.3821 40.6006 11.4247 40.8835 11.5099 41.1321C11.5975 41.3807 11.7266 41.5772 11.897 41.7216C12.0698 41.8636 12.2829 41.9347 12.5362 41.9347ZM16.1974 43V37.5455H17.6392V38.5078H17.7031C17.8168 38.1882 18.0062 37.9361 18.2713 37.7514C18.5365 37.5668 18.8537 37.4744 19.223 37.4744C19.5971 37.4744 19.9155 37.5679 20.1783 37.755C20.4411 37.9396 20.6162 38.1906 20.7038 38.5078H20.7607C20.8719 38.1953 21.0732 37.9455 21.3643 37.7585C21.6579 37.5691 22.0047 37.4744 22.4048 37.4744C22.9138 37.4744 23.3269 37.6366 23.6442 37.9609C23.9638 38.2829 24.1236 38.7398 24.1236 39.3317V43H22.6143V39.63C22.6143 39.3269 22.5339 39.0997 22.3729 38.9482C22.2119 38.7966 22.0107 38.7209 21.7692 38.7209C21.4946 38.7209 21.2803 38.8085 21.1264 38.9837C20.9725 39.1565 20.8956 39.3849 20.8956 39.669V43H19.429V39.598C19.429 39.3305 19.352 39.1174 19.1982 38.9588C19.0466 38.8002 18.8466 38.7209 18.598 38.7209C18.4299 38.7209 18.2784 38.7635 18.1435 38.8487C18.0109 38.9316 17.9055 39.0488 17.8274 39.2003C17.7493 39.3494 17.7102 39.5246 17.7102 39.7259V43H16.1974ZM27.8043 43.1065C27.2433 43.1065 26.7603 42.9929 26.3555 42.7656C25.953 42.536 25.6429 42.2116 25.4251 41.7926C25.2073 41.3712 25.0984 40.8729 25.0984 40.2976C25.0984 39.7365 25.2073 39.2441 25.4251 38.8203C25.6429 38.3965 25.9495 38.0663 26.3448 37.8295C26.7425 37.5928 27.2089 37.4744 27.744 37.4744C28.1038 37.4744 28.4388 37.5324 28.7489 37.6484C29.0614 37.7621 29.3337 37.9337 29.5657 38.1634C29.8001 38.393 29.9824 38.6818 30.1126 39.0298C30.2428 39.3755 30.3079 39.7803 30.3079 40.2443V40.6598H25.7021V39.7223H28.8839C28.8839 39.5045 28.8365 39.3116 28.7418 39.1435C28.6471 38.9754 28.5157 38.844 28.3477 38.7493C28.1819 38.6522 27.989 38.6037 27.7688 38.6037C27.5392 38.6037 27.3356 38.657 27.158 38.7635C26.9828 38.8677 26.8455 39.0085 26.7461 39.1861C26.6467 39.3613 26.5958 39.5566 26.5934 39.772V40.6634C26.5934 40.9332 26.6431 41.1664 26.7425 41.3629C26.8443 41.5594 26.9876 41.7109 27.1722 41.8175C27.3569 41.924 27.5759 41.9773 27.8292 41.9773C27.9973 41.9773 28.1512 41.9536 28.2908 41.9062C28.4305 41.8589 28.5501 41.7879 28.6495 41.6932C28.7489 41.5985 28.8247 41.4825 28.8768 41.3452L30.2759 41.4375C30.2049 41.7737 30.0593 42.0672 29.8391 42.3182C29.6213 42.5668 29.3396 42.7609 28.994 42.9006C28.6507 43.0379 28.2541 43.1065 27.8043 43.1065Z" fill="#B9B9B9"/>
<defs>
<clipPath id="clip0_29_186">
<rect width="33" height="33" fill="white"/>
</clipPath>
</defs>
</svg>
