<svg width="64" height="42" viewBox="0 0 64 42" fill="none" xmlns="http://www.w3.org/2000/svg">
<path fill-rule="evenodd" clip-rule="evenodd" d="M22 0C18.6863 0 16 2.6863 16 6V21C16 24.3137 18.6863 27 22 27H37C40.3137 27 43 24.3137 43 21V6C43 2.6863 40.3137 0 37 0H22ZM35.8004 15.675C35.8004 15.0744 35.3304 14.5875 34.7505 14.5875H20.052L19.9327 14.594C19.078 14.6884 18.677 15.7887 19.3096 16.444L24.5591 21.8815L24.658 21.972C25.0699 22.3037 25.6654 22.2735 26.0439 21.8815L26.1312 21.779C26.4514 21.3524 26.4223 20.7356 26.0439 20.3435L22.5875 16.7625H34.7505L34.873 16.7552C35.3951 16.6924 35.8004 16.2327 35.8004 15.675ZM34.4409 5.11853L34.342 5.02804C33.9301 4.69633 33.3346 4.7265 32.9561 5.11853L32.8688 5.22096C32.5486 5.6476 32.5777 6.26444 32.9561 6.65647L36.4125 10.2375H24.2495L24.127 10.2448C23.6049 10.3076 23.1996 10.7673 23.1996 11.325C23.1996 11.9256 23.6696 12.4125 24.2495 12.4125H38.948L39.0673 12.406C39.922 12.3116 40.323 11.2113 39.6904 10.556L34.4409 5.11853Z" fill="#B9B9B9"/>
<path d="M0.355114 33.995V32.7273H6.32812V33.995H4.10156V40H2.58168V33.995H0.355114ZM6.71697 40V34.5455H8.18359V35.4972H8.24041C8.33984 35.1586 8.50675 34.9029 8.74112 34.7301C8.9755 34.5549 9.24538 34.4673 9.55078 34.4673C9.62654 34.4673 9.70822 34.4721 9.79581 34.4815C9.8834 34.491 9.96035 34.504 10.0266 34.5206V35.8629C9.95561 35.8416 9.85736 35.8227 9.73189 35.8061C9.60642 35.7895 9.4916 35.7812 9.38743 35.7812C9.16489 35.7812 8.96603 35.8298 8.79084 35.9268C8.61802 36.0215 8.48071 36.1541 8.37891 36.3246C8.27947 36.495 8.22976 36.6915 8.22976 36.9141V40H6.71697ZM12.2079 40.103C11.8599 40.103 11.5498 40.0426 11.2775 39.9219C11.0053 39.7988 10.7898 39.6177 10.6312 39.3786C10.475 39.1371 10.3968 38.8364 10.3968 38.4766C10.3968 38.1735 10.4525 37.919 10.5637 37.7131C10.675 37.5071 10.8265 37.3414 11.0183 37.2159C11.21 37.0904 11.4279 36.9957 11.6717 36.9318C11.9179 36.8679 12.176 36.8229 12.4458 36.7969C12.7631 36.7637 13.0188 36.733 13.2129 36.7045C13.407 36.6738 13.5479 36.6288 13.6355 36.5696C13.7231 36.5104 13.7669 36.4228 13.7669 36.3068V36.2855C13.7669 36.0606 13.6958 35.8866 13.5538 35.7635C13.4141 35.6404 13.2153 35.5788 12.9572 35.5788C12.685 35.5788 12.4683 35.6392 12.3074 35.7599C12.1464 35.8783 12.0398 36.0275 11.9877 36.2074L10.5886 36.0938C10.6596 35.7623 10.7993 35.4759 11.0076 35.2344C11.216 34.9905 11.4847 34.8035 11.8137 34.6733C12.1452 34.5407 12.5287 34.4744 12.9643 34.4744C13.2673 34.4744 13.5574 34.5099 13.8343 34.581C14.1137 34.652 14.3611 34.7621 14.5765 34.9112C14.7943 35.0604 14.966 35.2521 15.0914 35.4865C15.2169 35.7185 15.2797 35.9967 15.2797 36.321V40H13.845V39.2436H13.8024C13.7148 39.4141 13.5976 39.5644 13.4508 39.6946C13.304 39.8224 13.1277 39.9231 12.9217 39.9964C12.7157 40.0675 12.4778 40.103 12.2079 40.103ZM12.6412 39.0589C12.8637 39.0589 13.0602 39.0152 13.2306 38.9276C13.4011 38.8376 13.5349 38.7169 13.6319 38.5653C13.729 38.4138 13.7775 38.2422 13.7775 38.0504V37.4716C13.7302 37.5024 13.6651 37.5308 13.5822 37.5568C13.5017 37.5805 13.4106 37.603 13.3088 37.6243C13.207 37.6432 13.1052 37.661 13.0034 37.6776C12.9016 37.6918 12.8092 37.7048 12.7264 37.7166C12.5488 37.7427 12.3938 37.7841 12.2612 37.8409C12.1286 37.8977 12.0256 37.9747 11.9522 38.0717C11.8788 38.1664 11.8422 38.2848 11.8422 38.4268C11.8422 38.6328 11.9167 38.7902 12.0659 38.8991C12.2174 39.0057 12.4092 39.0589 12.6412 39.0589ZM17.9661 36.8466V40H16.4533V34.5455H17.8951V35.5078H17.959C18.0797 35.1906 18.2821 34.9396 18.5662 34.755C18.8503 34.5679 19.1948 34.4744 19.5996 34.4744C19.9784 34.4744 20.3087 34.5573 20.5904 34.723C20.8721 34.8887 21.0911 35.1255 21.2473 35.4332C21.4036 35.7386 21.4817 36.1032 21.4817 36.527V40H19.9689V36.7969C19.9713 36.4631 19.8861 36.2027 19.7132 36.0156C19.5404 35.8262 19.3025 35.7315 18.9995 35.7315C18.7959 35.7315 18.6159 35.7753 18.4597 35.8629C18.3058 35.9505 18.1851 36.0784 18.0975 36.2464C18.0123 36.4122 17.9685 36.6122 17.9661 36.8466ZM27.2124 36.1009L25.8274 36.1861C25.8037 36.0677 25.7528 35.9612 25.6747 35.8665C25.5966 35.7694 25.4936 35.6925 25.3658 35.6357C25.2403 35.5765 25.09 35.5469 24.9148 35.5469C24.6804 35.5469 24.4827 35.5966 24.3217 35.696C24.1607 35.7931 24.0803 35.9233 24.0803 36.0866C24.0803 36.2169 24.1323 36.3269 24.2365 36.4169C24.3407 36.5069 24.5194 36.5791 24.7727 36.6335L25.7599 36.8324C26.2902 36.9413 26.6856 37.1165 26.946 37.358C27.2064 37.5994 27.3366 37.9167 27.3366 38.3097C27.3366 38.6671 27.2313 38.9808 27.0206 39.2507C26.8123 39.5206 26.5258 39.7313 26.1612 39.8828C25.799 40.032 25.3812 40.1065 24.9077 40.1065C24.1856 40.1065 23.6103 39.9562 23.1818 39.6555C22.7557 39.3525 22.5059 38.9406 22.4325 38.4197L23.9205 38.3416C23.9654 38.5618 24.0743 38.7299 24.2472 38.8459C24.42 38.9595 24.6413 39.0163 24.9112 39.0163C25.1764 39.0163 25.3894 38.9654 25.5504 38.8636C25.7138 38.7595 25.7966 38.6257 25.799 38.4624C25.7966 38.325 25.7386 38.2126 25.625 38.125C25.5114 38.035 25.3362 37.9664 25.0994 37.919L24.1548 37.7308C23.6222 37.6243 23.2256 37.4396 22.9652 37.1768C22.7071 36.9141 22.5781 36.5791 22.5781 36.1719C22.5781 35.8215 22.6728 35.5196 22.8622 35.2663C23.054 35.013 23.3227 34.8177 23.6683 34.6804C24.0163 34.5431 24.4235 34.4744 24.8899 34.4744C25.5788 34.4744 26.121 34.62 26.5163 34.9112C26.9141 35.2024 27.1461 35.599 27.2124 36.1009ZM29.8446 40.103C29.4966 40.103 29.1865 40.0426 28.9142 39.9219C28.642 39.7988 28.4266 39.6177 28.2679 39.3786C28.1117 39.1371 28.0336 38.8364 28.0336 38.4766C28.0336 38.1735 28.0892 37.919 28.2005 37.7131C28.3117 37.5071 28.4632 37.3414 28.655 37.2159C28.8468 37.0904 29.0646 36.9957 29.3084 36.9318C29.5546 36.8679 29.8127 36.8229 30.0826 36.7969C30.3998 36.7637 30.6555 36.733 30.8496 36.7045C31.0437 36.6738 31.1846 36.6288 31.2722 36.5696C31.3598 36.5104 31.4036 36.4228 31.4036 36.3068V36.2855C31.4036 36.0606 31.3326 35.8866 31.1905 35.7635C31.0508 35.6404 30.852 35.5788 30.5939 35.5788C30.3217 35.5788 30.1051 35.6392 29.9441 35.7599C29.7831 35.8783 29.6766 36.0275 29.6245 36.2074L28.2253 36.0938C28.2963 35.7623 28.436 35.4759 28.6444 35.2344C28.8527 34.9905 29.1214 34.8035 29.4505 34.6733C29.7819 34.5407 30.1654 34.4744 30.601 34.4744C30.9041 34.4744 31.1941 34.5099 31.4711 34.581C31.7504 34.652 31.9978 34.7621 32.2132 34.9112C32.431 35.0604 32.6027 35.2521 32.7282 35.4865C32.8536 35.7185 32.9164 35.9967 32.9164 36.321V40H31.4817V39.2436H31.4391C31.3515 39.4141 31.2343 39.5644 31.0875 39.6946C30.9408 39.8224 30.7644 39.9231 30.5584 39.9964C30.3525 40.0675 30.1145 40.103 29.8446 40.103ZM30.2779 39.0589C30.5004 39.0589 30.6969 39.0152 30.8674 38.9276C31.0378 38.8376 31.1716 38.7169 31.2686 38.5653C31.3657 38.4138 31.4142 38.2422 31.4142 38.0504V37.4716C31.3669 37.5024 31.3018 37.5308 31.2189 37.5568C31.1384 37.5805 31.0473 37.603 30.9455 37.6243C30.8437 37.6432 30.7419 37.661 30.6401 37.6776C30.5383 37.6918 30.446 37.7048 30.3631 37.7166C30.1855 37.7427 30.0305 37.7841 29.8979 37.8409C29.7653 37.8977 29.6623 37.9747 29.589 38.0717C29.5156 38.1664 29.4789 38.2848 29.4789 38.4268C29.4789 38.6328 29.5534 38.7902 29.7026 38.8991C29.8541 39.0057 30.0459 39.0589 30.2779 39.0589ZM36.5545 40.1065C35.9958 40.1065 35.5152 39.9882 35.1127 39.7514C34.7127 39.5123 34.4049 39.1809 34.1895 38.7571C33.9764 38.3333 33.8699 37.8456 33.8699 37.294C33.8699 36.7353 33.9776 36.2453 34.193 35.8239C34.4108 35.4001 34.7198 35.0698 35.1199 34.8331C35.5199 34.594 35.9958 34.4744 36.5474 34.4744C37.0233 34.4744 37.4399 34.5608 37.7974 34.7337C38.1549 34.9065 38.4378 35.1491 38.6461 35.4616C38.8545 35.7741 38.9693 36.1411 38.9906 36.5625H37.563C37.5228 36.2902 37.4163 36.0713 37.2434 35.9055C37.073 35.7375 36.8493 35.6534 36.5723 35.6534C36.3379 35.6534 36.1331 35.7173 35.9579 35.8452C35.7851 35.9706 35.6502 36.1541 35.5531 36.3956C35.456 36.6371 35.4075 36.9295 35.4075 37.2727C35.4075 37.6207 35.4548 37.9167 35.5495 38.1605C35.6466 38.4044 35.7827 38.5902 35.9579 38.718C36.1331 38.8459 36.3379 38.9098 36.5723 38.9098C36.7451 38.9098 36.9002 38.8743 37.0375 38.8033C37.1771 38.7322 37.292 38.6293 37.3819 38.4943C37.4743 38.357 37.5346 38.1925 37.563 38.0007H38.9906C38.9669 38.4174 38.8533 38.7843 38.6497 39.1016C38.4484 39.4164 38.1703 39.6626 37.8152 39.8402C37.46 40.0178 37.0398 40.1065 36.5545 40.1065ZM42.8604 34.5455V35.6818H39.5756V34.5455H42.8604ZM40.3214 33.2386H41.8342V38.3239C41.8342 38.4635 41.8555 38.5724 41.8981 38.6506C41.9407 38.7263 41.9999 38.7796 42.0756 38.8104C42.1538 38.8411 42.2437 38.8565 42.3455 38.8565C42.4165 38.8565 42.4876 38.8506 42.5586 38.8388C42.6296 38.8246 42.6841 38.8139 42.7219 38.8068L42.9599 39.9325C42.8841 39.9562 42.7776 39.9834 42.6403 40.0142C42.503 40.0473 42.3361 40.0675 42.1396 40.0746C41.775 40.0888 41.4554 40.0402 41.1808 39.929C40.9085 39.8177 40.6966 39.6449 40.5451 39.4105C40.3936 39.1761 40.319 38.8802 40.3214 38.5227V33.2386ZM43.8459 40V34.5455H45.3587V40H43.8459ZM44.6058 33.8423C44.3809 33.8423 44.188 33.7678 44.027 33.6186C43.8684 33.4671 43.7891 33.286 43.7891 33.0753C43.7891 32.867 43.8684 32.6882 44.027 32.5391C44.188 32.3875 44.3809 32.3118 44.6058 32.3118C44.8307 32.3118 45.0225 32.3875 45.1811 32.5391C45.3421 32.6882 45.4226 32.867 45.4226 33.0753C45.4226 33.286 45.3421 33.4671 45.1811 33.6186C45.0225 33.7678 44.8307 33.8423 44.6058 33.8423ZM49.035 40.1065C48.4834 40.1065 48.0063 39.9893 47.6039 39.755C47.2038 39.5182 46.8948 39.1892 46.677 38.7678C46.4592 38.344 46.3503 37.8527 46.3503 37.294C46.3503 36.7306 46.4592 36.2382 46.677 35.8168C46.8948 35.393 47.2038 35.0639 47.6039 34.8295C48.0063 34.5928 48.4834 34.4744 49.035 34.4744C49.5866 34.4744 50.0624 34.5928 50.4625 34.8295C50.865 35.0639 51.1751 35.393 51.3929 35.8168C51.6107 36.2382 51.7196 36.7306 51.7196 37.294C51.7196 37.8527 51.6107 38.344 51.3929 38.7678C51.1751 39.1892 50.865 39.5182 50.4625 39.755C50.0624 39.9893 49.5866 40.1065 49.035 40.1065ZM49.0421 38.9347C49.293 38.9347 49.5025 38.8636 49.6706 38.7216C49.8387 38.5772 49.9654 38.3807 50.0506 38.1321C50.1382 37.8835 50.182 37.6006 50.182 37.2834C50.182 36.9661 50.1382 36.6832 50.0506 36.4347C49.9654 36.1861 49.8387 35.9896 49.6706 35.8452C49.5025 35.7008 49.293 35.6286 49.0421 35.6286C48.7888 35.6286 48.5757 35.7008 48.4029 35.8452C48.2324 35.9896 48.1034 36.1861 48.0158 36.4347C47.9306 36.6832 47.888 36.9661 47.888 37.2834C47.888 37.6006 47.9306 37.8835 48.0158 38.1321C48.1034 38.3807 48.2324 38.5772 48.4029 38.7216C48.5757 38.8636 48.7888 38.9347 49.0421 38.9347ZM54.2161 36.8466V40H52.7033V34.5455H54.1451V35.5078H54.209C54.3297 35.1906 54.5321 34.9396 54.8162 34.755C55.1003 34.5679 55.4448 34.4744 55.8496 34.4744C56.2284 34.4744 56.5587 34.5573 56.8404 34.723C57.1221 34.8887 57.3411 35.1255 57.4973 35.4332C57.6536 35.7386 57.7317 36.1032 57.7317 36.527V40H56.2189V36.7969C56.2213 36.4631 56.1361 36.2027 55.9632 36.0156C55.7904 35.8262 55.5525 35.7315 55.2495 35.7315C55.0459 35.7315 54.8659 35.7753 54.7097 35.8629C54.5558 35.9505 54.4351 36.0784 54.3475 36.2464C54.2623 36.4122 54.2185 36.6122 54.2161 36.8466ZM63.4624 36.1009L62.0774 36.1861C62.0537 36.0677 62.0028 35.9612 61.9247 35.8665C61.8466 35.7694 61.7436 35.6925 61.6158 35.6357C61.4903 35.5765 61.34 35.5469 61.1648 35.5469C60.9304 35.5469 60.7327 35.5966 60.5717 35.696C60.4107 35.7931 60.3303 35.9233 60.3303 36.0866C60.3303 36.2169 60.3823 36.3269 60.4865 36.4169C60.5907 36.5069 60.7694 36.5791 61.0227 36.6335L62.0099 36.8324C62.5402 36.9413 62.9356 37.1165 63.196 37.358C63.4564 37.5994 63.5866 37.9167 63.5866 38.3097C63.5866 38.6671 63.4813 38.9808 63.2706 39.2507C63.0623 39.5206 62.7758 39.7313 62.4112 39.8828C62.049 40.032 61.6312 40.1065 61.1577 40.1065C60.4356 40.1065 59.8603 39.9562 59.4318 39.6555C59.0057 39.3525 58.7559 38.9406 58.6825 38.4197L60.1705 38.3416C60.2154 38.5618 60.3243 38.7299 60.4972 38.8459C60.67 38.9595 60.8913 39.0163 61.1612 39.0163C61.4264 39.0163 61.6394 38.9654 61.8004 38.8636C61.9638 38.7595 62.0466 38.6257 62.049 38.4624C62.0466 38.325 61.9886 38.2126 61.875 38.125C61.7614 38.035 61.5862 37.9664 61.3494 37.919L60.4048 37.7308C59.8722 37.6243 59.4756 37.4396 59.2152 37.1768C58.9571 36.9141 58.8281 36.5791 58.8281 36.1719C58.8281 35.8215 58.9228 35.5196 59.1122 35.2663C59.304 35.013 59.5727 34.8177 59.9183 34.6804C60.2663 34.5431 60.6735 34.4744 61.1399 34.4744C61.8288 34.4744 62.371 34.62 62.7663 34.9112C63.1641 35.2024 63.3961 35.599 63.4624 36.1009Z" fill="#B9B9B9"/>
</svg>
